<?xml version="1.0" encoding="UTF-8"?><svg id="Layer_1" xmlns="http://www.w3.org/2000/svg" viewBox="0 0 305.1 326.63"><defs><style>.cls-1{fill:none;stroke:#1d1d1b;stroke-miterlimit:10;stroke-width:3px;}</style></defs><path class="cls-1" d="m303.6,281.92c.04-11.69-5.56-22.48-11.43-32.28-3.73-6.11-7.85-12.03-12.68-17.33-5.14-5.03-7.8-6.89-13.91-11.7-4.9-4.1-10.82-6.82-17.19-7.56-5.07-.63-10.33-1.05-15.36.07-1.96.51-3.87,1.17-5.78,1.84-3.63-7.96-7.36-15.87-11.37-23.65-2.4-5.03-5.05-9.95-6.97-15.19-1.16-2.28-4.85-1.02-4.24,1.56,3.41,9.67,8.32,18.72,12.37,28.12,1.59,3.89,3.24,7.75,4.91,11.61-3.79,1.22-7.43,2.95-10.35,5.7-7.43,7.36-10.06,18.11-10.74,28.25-1.02,8.86-.46,17.82,1.17,26.58,1.05,5.16,2.66,10.18,3.81,15.31,1.55,6.59,2.97,13.4,6.72,19.16,7.9,12.29,20.68,14.97,34.17,11.01,5.76-1.77,11.19-4.4,16.71-6.78,4.64-1.59,8.86-4.07,13.26-6.19,8.41-3.93,14.21-7.51,20.32-13.65,1.8-1.88,3.62-3.85,4.71-6.24,1.27-2.71,1.59-5.71,1.85-8.66Zm-66.03,37.54c-9.42.76-16.42-4.17-20.48-10.07-5.09-8.34-6.37-19.16-9.08-30.07-3.32-17.03-3.88-35.36,4-49.24,3.03-4.4,4.97-6.01,10.47-8.39.12.2.26.39.44.55-2.06,4.66-4.06,9.35-5.28,14.29-1.41,5.62-1.41,11.43-.98,17.18.97,13.88,3.26,27.8,8.27,40.83,4.05,10.98,11.44,20.92,23.21,22.48-4.01,1.28-7.95,2.22-10.58,2.43Zm21.29-8.58c-4.71,1.06-6.12,1.23-11.1.5-16.93-2.5-24.26-33.3-26.44-55.06-.62-5.32-1.04-16.23.97-21.87.91-3.07,2.01-6.08,3.23-9.04,3.59,8.08,7.22,16.13,10.69,24.26,3.15,7.58,7.13,14.77,10.48,22.26,4.88,11.96,10.35,23.63,15.78,35.35.4.65.57,1.46.95,2.12-1.88.58-3.76,1.48-4.55,1.47Zm-.74-26.44c-3.35-8.03-6.57-16.12-10.36-23.96-5.86-12.42-11.32-25.02-16.92-37.56,8.38,1.02,14.06,5.59,20.71,11.7,10.08,9.45,17.77,17.49,23.4,28.96,3.17,6.15,5.48,15.05,5.92,20.47,0,5.45-1.72,10.5-3.78,14.43-2.22,3.56-3.15,4.27-6.83,7.26-.81.7-1.93,1.17-2.59,2.02-2.79-7.86-5.23-13.82-9.55-23.32Zm38.66,4.34c-.36.89-4.4,5.81-8.1,8.51-.85.73-3.98,2.71-6.89,4.33,2.74-5.22,4.34-11.14,4.59-17.01-.48-8.36-3.25-16.47-6.62-24.08-2.94-6.55-6.87-12.67-11.61-18.06-7.1-7.18-12.93-12.15-19.94-17.72-4.04-3.18-8.8-5.44-13.9-6.24-.38-.08-.77-.11-1.15-.16,5.37-.63,11.44-.04,14.66.52,9.07,1.88,11.8,4.7,18.5,10.89,9.76,9.2,15.37,16.52,21.49,27.15,6.18,11.33,12.38,22.5,8.97,31.9Z"/><path class="cls-1" d="m214.67,221.58c-4.14,2.83-7.88,6.72-9.29,11.64-3.1,7.58-4.28,15.77-3.89,23.94-.03.45.42.83.86.72.3-.06.54-.35.55-.66-.03-.94-.03-1.89-.03-2.83-.25-6.77.96-12.59,3.07-18.93,1.17-3.93,2.8-7,5.49-9.7,1.13-1.2,2.75-2.54,3.75-3.19.64-.32.12-1.33-.52-.99Z"/><path class="cls-1" d="m300.79,275.15c-1.67-6.71-4.15-13.16-7.5-19.21-3.05-6.11-6.89-11.78-10.69-17.44-.46-1.29-2.31-.85-1.79.52,4.35,7.31,9.32,14.3,12.91,22.03,1.99,4.57,3.38,9.22,4.69,14.63.32,1.54,2.75,1.01,2.38-.54Z"/><path class="cls-1" d="m279.14,261.09c-1.57-3.26-3.17-6.52-5.29-9.46-1.49-2.15-2.99-4.29-4.92-6.08-.22-.24-.6-.35-.9-.22-.54.16-.72.93-.33,1.33,4.16,4.49,7.11,9.03,9.78,14.79.27,1.34,2.17.95,1.66-.37Z"/><path class="cls-1" d="m253.54,315.35c-9.34.21-17.6-5.43-22.24-13.08-.58-.67-.98-2.14-1.65-2.51-.57-.21-1.15.47-.85,1,4.58,7.93,11.05,14.3,20.47,15.56,1.24.15,3.61.61,4.69.18.43-.37.16-1.14-.42-1.15Z"/><path class="cls-1" d="m54.58,42.14c-1.36-1.93-2.49-4.01-3.36-6.21-.26-.66-.5-1.35-.51-2.06-.01-1.58,1.11-2.93,2.29-3.97,3.29-2.88,7.47-4.52,11.63-5.91,1.58-.53,3.35-1.02,4.85-.3.82.39,1.44,1.09,2,1.81,1.34,1.71,2.48,3.58,3.37,5.56.19.41.36.87.23,1.31-.1.3-.33.54-.56.76-5.14,4.88-11.68,8.27-18.63,9.66-.79.16-1.78.22-1.3-.65Z"/><path class="cls-1" d="m192.18,173.47c1.12,1.43,1.65,3.22,2.4,4.88.75,1.66,1.87,3.31,3.6,3.89,1.07.36,2.24.25,3.35.05,4.67-.85,8.88-3.29,12.97-5.7.64-.37,1.3-.77,1.69-1.41.37-.61.43-1.35.46-2.06.08-1.94-.03-3.99-1.09-5.62-1.45-2.22-4.38-3.08-7.01-2.78-2.63.29-5.05,1.54-7.4,2.76-1.85.96-3.7,1.93-5.56,2.89-1.42.74-3.08,1.94-3.4,3.09Z"/><path class="cls-1" d="m87.76,28.24c-1.5-2.19-2.65-4.61-3.4-7.15-.2-.68-.37-1.43-.12-2.09.2-.54.65-.95,1.1-1.31,2.46-1.99,5.3-3.44,8.11-4.88,7.06-3.6,14.17-7.21,21.79-9.37,1.62-.46,3.33-.85,4.98-.5,2.77.59,4.66,3.09,6.29,5.42.5.71,1.02,1.53.86,2.39-.17.92-1.05,1.5-1.86,1.97-11.85,6.89-24.55,12.3-37.75,15.52Z"/><path class="cls-1" d="m155.36,171.09c.9,5.09,2.42,10.99,7.21,12.93,2.57,1.04,5.48.62,8.18,0,5.55-1.26,10.9-3.24,16.23-5.23,14.43-5.36,28.85-10.73,43.28-16.09,2.02-.75,4.09-1.54,5.64-3.04,4.16-4.04,2.64-10.92.83-16.42-.25-.76-.54-1.57-1.21-2.01-.74-.48-1.71-.35-2.58-.21-13.05,2.22-26.27,4.49-38.36,9.88-13.47,6-25.13,15.7-39.21,20.17Z"/><path class="cls-1" d="m245.01,116.18c-.44-7.64-2.82-15.02-5.18-22.29-2.45-7.56-4.9-15.13-7.35-22.69-4.3-13.28-8.66-26.69-15.8-38.69-7.14-12-17.39-22.64-30.43-27.63-19.65-7.51-41.63-1.16-61.42,5.96-22.13,7.97-43.92,16.88-65.29,26.72-14.32,6.59-28.7,13.77-40.03,24.73C8.17,73.24.18,88.68,1.68,104.37c.84,8.79,4.56,17.06,8.94,24.73,2.88,5.05,6.08,9.92,9.56,14.58,1.68,2.25,3.54,4.54,6.13,5.63,2.62,1.11,5.62.83,8.4.21,6.6-1.47,12.64-4.7,18.73-7.64,16.18-7.79,33.27-13.67,50.82-17.49,3.74-.81,9.32-1.93,10.72.99,7.16,14.96,14.31,29.91,21.47,44.87.89,1.85,1.84,3.78,3.49,5,2.79,2.04,6.64,1.45,10.01.67,25.42-5.85,49.29-16.93,72.94-27.93,5.76-2.68,11.71-5.5,15.85-10.32,4.99-5.8,6.7-13.86,6.26-21.5Zm-145.78-15.27c-1.91,3.93-6.19,6.02-10.17,7.82-5.48,2.48-10.96,4.97-16.45,7.45-2.99,1.36-5.98,2.71-9.03,3.95-7.4,3-15.1,5.25-22.95,6.73-2.11.4-4.42.71-6.32-.28-1.61-.84-2.64-2.47-3.55-4.06-2.35-4.12-4.44-8.69-4.03-13.42.6-6.98,6.36-12.3,12.03-16.42,11.77-8.57,24.93-15.25,38.8-19.69,2.48-.79,5.11-1.53,7.67-1.05,3.43.64,6.12,3.34,7.96,6.3,1.84,2.96,3.06,6.27,4.9,9.23,2.29,3.67,3.24,9.13,1.15,13.45Z"/><path class="cls-1" d="m151.9,157.08c-6.14-12.69-6.66-29.51-18.92-38.46-10.85-7.92-26.23-7.37-38.56-3.75-15.86,4.65-29.67,14.46-45.45,19.27-11.12,3.39-23.82,4.46-34.92.61,1.94,3.05,3.97,6.04,6.14,8.93,1.68,2.25,3.54,4.54,6.13,5.63,2.62,1.11,5.62.83,8.4.21,6.6-1.47,12.64-4.7,18.73-7.64,16.18-7.79,33.27-13.67,50.82-17.49,3.74-.81,9.32-1.93,10.72.99,7.16,14.96,14.31,29.91,21.47,44.87.89,1.85,1.84,3.78,3.49,5,2.79,2.04,6.64,1.45,10.01.67,5.04-1.16,10.01-2.53,14.93-4.06-5.81-3.21-10.13-8.89-12.99-14.8Z"/><path class="cls-1" d="m46.24,82.71c1.35,3.59,3.11,7.02,5.23,10.21.58.86,1.26,1.77,2.26,2.04.98.27,2-.14,2.93-.53,7.27-3.1,14.54-6.19,21.82-9.29,3.12-1.33,6.77-3.41,6.71-6.81-.03-2.16-1.63-3.93-2.47-5.92-.38-.9-.63-1.89-1.3-2.59-1-1.05-2.62-1.16-4.07-1.11-11.66.42-22.25,6.58-31.11,13.99Z"/><path class="cls-1" d="m95.91,83.2c-1.88-2.4-3.75-4.8-5.62-7.2-1.17-1.5-2.42-3.06-4.17-3.82-2.37-1.03-5.1-.36-7.55.42-12.33,3.91-23.71,10.3-34.75,17.03-7.08,4.31-14.55,9.39-17.15,17.26,0-6.45,4.21-12.08,8.63-16.77,6.51-6.88,13.93-12.9,22-17.85,3.45-2.11,7.05-4.04,10.93-5.17,3.44-1,7.07-1.35,10.64-1.04,3.58.32,7.18,1.36,9.99,3.59,4.41,3.5,6.21,9.26,7.05,13.55Z"/><path class="cls-1" d="m192.03,174.14c10.85-4.01,21.7-8.02,32.54-12.02,2.75-1.02,5.55-2.06,7.87-3.84,2.32-1.79,4.14-4.47,4.18-7.4,0-.56-.06-1.15-.38-1.61-.59-.87-1.88-1-2.85-.59-.97.4-1.71,1.2-2.45,1.94-10.62,10.59-27.06,12.6-39.59,20.84-1.21.79-2.49,1.86-2.51,3.3,1.53.54,3.35.09,3.2-.62Z"/><path class="cls-1" d="m159.61,178.3c.43,1.58,1.75,2.82,3.26,3.43,1.52.61,3.21.66,4.83.43.19-.03.4-.08.47-.25.04-.09.03-.19.01-.28-.24-1.4-1.76-2.18-3.13-2.56-1.37-.38-2.91-.67-3.8-1.79-.23-.29-.43-.66-.78-.78-.53-.18-1.09.31-1.21.85-.11.55.09,1.1.34.95Z"/><path class="cls-1" d="m52.89,34.01c4.58-2.09,9.08-4.35,13.5-6.76.96-.52,2-1.16,2.29-2.21-1.04-.19-2.1.17-3.11.52-1.79.64-3.58,1.27-5.36,1.93-1.48.54-2.96,1.1-4.28,1.96-1.64,1.07-2.95,2.56-4.25,4.03.27.03.54.05,1.2.52Z"/><path class="cls-1" d="m85.59,19.96c10.91-3.95,21.71-8.2,32.38-12.76,1.1-.47,2.32-1.08,2.64-2.23-12.97,2.72-25.49,7.56-36.92,14.26.76,1.02,2.52,1.03,1.89.74Z"/><path class="cls-1" d="m140.96,11.81c17.41-8.74,39.43-3.54,54.61,8.67,15.18,12.21,24.56,30.21,31.34,48.47,2.56,6.9,4.85,14.13,4.39,21.48-.13,2.09-.77,4.55-2.75,5.26-1.12.4-2.38.1-3.48-.36-4.69-1.97-7.71-6.51-10.28-10.9-6.94-11.85-12.7-24.43-20.83-35.5-8.12-11.07-19.14-20.77-32.53-23.8-6.09-1.38-12.41-1.33-18.66-1.19-2.82.06-6.1-.06-7.82-2.3-1.71-2.23-.89-5.67,1.11-7.65,2-1.98,4.84-2.83,4.88-2.17Z"/><path class="cls-1" d="m233.29,102.78c5.74,7.19,6.94,17.72,2.96,26.02-.81,1.68-2.05,3.44-3.91,3.68-1.64.21-3.23-.92-4.06-2.35-.83-1.43-1.08-3.12-1.3-4.77-.81-5.93-1.63-11.91-1.18-17.89.1-1.32.28-2.68.99-3.8.85-1.35,2.47-2.16,4.06-2.06,1.59.11,3.08,1.14,2.43,1.14Z"/><path class="cls-1" d="m20.31,67.06c-4.12,3.52-6.82,8.38-9.43,13.12-2.58,4.68-5.2,9.52-5.81,14.83-.83,7.3,2.25,14.44,5.63,20.97,1.13,2.19,3.32,4.73,5.54,3.68,2.07-.97,1.78-3.95,1.34-6.19-2.34-11.96.8-24.88,8.37-34.43,1.71-2.16,3.7-4.25,4.47-6.91.77-2.65-.21-6.08-2.85-6.91-1.05-.33-2.2-.19-3.26.09-2.24.6-4.29,1.86-4,1.74Z"/><path class="cls-1" d="m134.47,37.31c9.94-3.05,20.94-1.1,30.21,3.59,9.27,4.69,17.02,11.93,23.95,19.68,3.9,4.37,7.8,9.56,7.41,15.41-.33,4.84-3.59,9-7.26,12.18-10.99,9.52-27.12,12.76-40.89,8.09-13.77-4.67-24.63-17.14-27.21-31.45-1.14-6.28-.71-13,2.19-18.69,2.9-5.69,8.51-10.16,11.61-8.82Z"/></svg>