<?xml version="1.0" encoding="UTF-8"?><svg id="Layer_1" xmlns="http://www.w3.org/2000/svg" viewBox="0 0 368.88 100.5"><defs><style>.cls-1{fill:none;stroke:#1d1d1b;stroke-miterlimit:10;stroke-width:3px;}</style></defs><path class="cls-1" d="m198.26,14.91c48.5-6.16,97.96-1.94,146.29-9.35,5.44-.83,11.46-1.71,16.08,1.29,4.25,2.75,6.09,8.08,6.59,13.12.48,4.88-.05,9.93-2.14,14.37-3.47,7.36-10.91,12.23-18.71,14.51-7.81,2.28-16.07,2.32-24.2,2.34-22.55.06-45.1.12-67.64.18-13.81.04-27.72.08-41.29,2.69-4.69.9-9.31,2.1-13.94,3.31-.77.2-1.68.38-2.3-.13-.54-.44-.63-1.23-.67-1.93-.77-13.34-.39-26.75,1.94-40.38Z"/><path class="cls-1" d="m335.85,43.46c-18.8.73-37.52,2.64-56.34,2.9-27.82.37-58.25-3.18-75.04-28.5-.83-1.25-.97-2.49-.68-3.57-1.84.21-3.69.4-5.53.63-2.33,13.63-2.71,27.04-1.94,40.38.04.7.13,1.48.67,1.93.62.5,1.53.33,2.3.13,4.62-1.2,9.25-2.41,13.94-3.31,13.56-2.61,27.47-2.65,41.29-2.69l67.64-.18c8.13-.02,16.4-.06,24.2-2.34,6.41-1.87,12.56-5.49,16.48-10.8-8.73,3.22-17.99,5.07-26.99,5.41Z"/><path class="cls-1" d="m206.67,13.16c-28.17.33-56.07-.18-83.94-1.23-21.97-.83-62.5-8.01-84.41-9.87C27.72,1.16,13.03.14,12.58,9.39c-1.14,23.39-8.28,54.53-9.42,77.91-.04.81-.06,1.7.44,2.35.56.73,1.57.9,2.48,1.01,54.61,6.83,109.76,9.26,164.75,7.26,10.64-.39,21.47-.98,31.44-4.73,1.18-.44,2.4-.98,3.13-2,1.03-1.43.81-3.37.56-5.11-3.39-24.16-3.15-48.83.71-72.92ZM32.36,25.1c-2.13,1.01-4.46,1.43-6.75.67-2.42-.8-4.44-2.64-5.12-5.16-.47-1.74-.17-3.67.67-5.3.12-.45.29-.88.56-1.25,1.64-2.3,4.1-3.57,6.95-3.45,2.19.09,4.34,1.07,5.84,2.68,3.41,3.68,2.46,9.62-2.16,11.8Z"/><path class="cls-1" d="m206.44,91.19c-14.76,6.33-31.27,6.86-47.32,7.22-48.88,1.09-98.03,1.45-146.38-5.87-3.67-.56-7.75-1.4-9.86-4.46,7.19.1,14.27,1.59,21.38,2.64,11.82,1.74,23.78,2.27,35.72,2.65,48.89,1.57,97.85.69,146.46-2.18Z"/><path class="cls-1" d="m91.18,9.63c9.15.05,18.29.5,27.4,1.35-26.14,26.11-52.27,52.22-78.41,78.33-.86.86-1.76,1.74-2.88,2.2-1.22.49-2.58.43-3.89.36-5.41-.29-10.82-.57-16.24-.86,25.81-26.7,51.38-53.63,74.01-81.38Z"/><path class="cls-1" d="m134.23,11.85c-25.98,27.64-51.95,55.29-77.93,82.93,3.76,2.14,8.25-.95,11.45-3.86,8.04-7.31,16.08-14.63,23.51-22.56,6.61-7.06,12.71-14.58,19.2-21.75,11.02-12.17,23.15-23.29,35.25-34.39-4.24.16-8.47.33-11.48-.38Z"/><path class="cls-1" d="m183.06,13.25c-26.92,25.53-51.05,53.81-75.13,82.03,5.61.41,11.25.4,16.86-.02,1.55-.12,3.14-.28,4.52-.99,1.25-.64,2.24-1.69,3.2-2.72,23.91-25.56,47.22-51.67,69.92-78.31-6.79.15-13.57.31-19.37,0Z"/><path class="cls-1" d="m224.52,31.16c0-3.56,2.89-6.45,6.45-6.45s6.45,2.89,6.45,6.45-2.89,6.45-6.45,6.45-6.45-2.89-6.45-6.45Z"/><path class="cls-1" d="m330,28.21c0-3.56,2.89-6.45,6.45-6.45s6.45,2.89,6.45,6.45-2.89,6.45-6.45,6.45-6.45-2.89-6.45-6.45Z"/><path class="cls-1" d="m277.26,31.16c0-3.56,2.89-6.45,6.45-6.45s6.45,2.89,6.45,6.45-2.89,6.45-6.45,6.45-6.45-2.89-6.45-6.45Z"/><path class="cls-1" d="m364.02,22.67c.46-3.64.2-7.69-2.22-10.45-3.3-3.76-9.08-3.66-14.07-3.26-12.85,1.04-25.7,2.07-38.54,3.11-.97.08-2,.18-2.78.75-.78.58-1.17,1.81-.52,2.54,10.04.9,20.18.73,30.19-.5,4.06-.5,8.16-1.18,12.22-.71,4.06.47,8.19,2.29,10.39,5.75.6.94,1.04,1.98,1.77,2.82.73.84,1.86,1.46,2.93,1.18s1.77-1.76.63-1.23Z"/><path class="cls-1" d="m292.27,12.35c-10.04.25-20.07.63-30.1,1.13-.54.03-1.2.14-1.39.65-.25.69.61,1.24,1.31,1.46,5.53,1.71,11.42,1.75,17.21,1.77,4.99.02,10.2,0,14.68-2.2,1-.49,2.07-1.75,1.28-2.54-.23-.23-.56-.32-.88-.39-.95-.19-1.93-.2-2.12.12Z"/></svg>