<?xml version="1.0" encoding="UTF-8"?><svg id="Layer_1" xmlns="http://www.w3.org/2000/svg" viewBox="0 0 454.65 189.97"><defs><style>.cls-1{fill:none;stroke:#1d1d1b;stroke-miterlimit:10;stroke-width:3px;}</style></defs><path class="cls-1" d="m14.35,35.61c-.89,6.88-.04,13.98,1.68,19.35C6.96,69.6,1.89,86.7,1.52,103.93c-.13,6.31.36,12.71,2.28,18.73,5.29,16.66,20.5,28.12,35.9,36.38,28.31,15.19,59.94,23.38,91.78,27.6,11.46,1.52,23.08,2.54,34.56,1.24,11.48-1.3,22.91-5.06,31.95-12.26,17.15-13.67,23.04-37.61,21.35-59.48-.11-1.46-.25-2.97.24-4.35.48-1.37,1.52-2.45,2.53-3.49,2.89-2.97,5.79-5.94,7.6-9.33-35.55-6.49-70.54-15.7-105.48-24.91-12.75-3.36-25.51-6.72-38.13-10.53-25.58-7.71-50.61-17.26-71.74-27.92Z"/><path class="cls-1" d="m15.8,55.35c13.06,5.17,26.3,9.82,39.62,14.3,27.85,9.37,56,17.81,84.57,24.67,26.53,6.38,53.26,11.89,80.2,16.25.53-.83,1.23-1.57,1.92-2.28,2.89-2.97,5.79-5.94,7.6-9.33-35.55-6.49-70.54-15.7-105.48-24.91-12.75-3.36-25.51-6.72-38.13-10.53-25.58-7.71-50.61-17.26-71.74-27.92-.89,6.88-.04,13.98,1.68,19.35-.08.13-.15.26-.23.39Z"/><path class="cls-1" d="m180.99,169.66c-29.56,9.27-61.4,7.84-91.41,1.68-16.66-3.42-32.93-8.43-48.95-14.08-3.47-1.22-6.92-2.5-10.37-3.78,3.08,2,6.25,3.85,9.43,5.56,28.31,15.19,59.94,23.38,91.78,27.6,11.46,1.52,23.08,2.54,34.56,1.24,11.48-1.3,22.91-5.06,31.95-12.26,6.71-5.35,11.67-12.28,15.16-20.04-10.07,5.98-20.88,10.54-32.16,14.08Z"/><path class="cls-1" d="m212.94,82.93c-45.46-26.7-96.43-43.99-148.76-50.45-15.85-1.96-32.23-2.89-47.55,1.62-.88.26-1.83.59-2.32,1.36-1.06,1.67.72,3.67,2.34,4.8,18.23,12.75,39.7,19.97,61,26.39,42.92,12.94,86.57,23.33,130.18,33.71,6.66,1.58,13.92,3.12,20.11.21,1.14-.53,2.34-1.42,2.36-2.68.02-1.05-.8-1.9-1.56-2.62-5.63-5.26-11.75-9.96-15.8-12.34Z"/><path class="cls-1" d="m75.85,30.96c-2.34-2.46-5.71-3.91-9.1-3.92-2.96-.01-6.22,1.35-7.23,4.13-.82,2.27.08,4.85,1.56,6.76,3.69,4.77,10.53,6.26,16.41,4.91,5.88-1.35,10.94-5.05,15.4-9.12,4.45-4.07,8.52-8.6,13.39-12.16,10.88-7.95,25.58-10.33,38.47-6.38,2.59.8,5.15,1.85,7.26,3.55,1.91,1.53,3.39,3.53,4.75,5.57,6.49,9.69,10.84,20.8,12.65,32.32.72,4.55,1.07,9.27,3.1,13.41,3,6.12,9.75,10.2,16.56,10.02,2.78-.07,5.69-.9,7.55-2.96,1.87-2.06,2.27-5.56.36-7.57-2.64-2.79-7.33-1.29-11-2.41-3.2-.98-5.43-3.97-6.47-7.14-1.05-3.17-1.11-6.57-1.35-9.9-.86-12.13-4.48-24.74-13.42-32.98-4.24-3.91-9.44-6.61-14.7-8.98-10.55-4.76-22.36-8.4-33.61-5.63-16.34,4.03-26.57,20.06-40.58,28.51Z"/><path class="cls-1" d="m70.54,29.87c-1.56-.28-3.14-.56-4.71-.33-1.56.23-3.12,1.08-3.8,2.51-.67,1.43-.14,3.43,1.33,4.01.73.29,1.55.2,2.32.05,1.26-.25,2.48-.69,3.61-1.27,1.01-.52,1.98-1.2,2.56-2.19s.65-2.32-.06-3.21c-.71-.89-2.28-1.02-1.27.44Z"/><path class="cls-1" d="m125,3.86c-5.1-1.06-10.31,1.03-14.9,3.51-9.28,5-17.6,11.75-24.4,19.8-.44.53-.88,1.33-.41,1.83.43.46,1.19.19,1.74-.12,2.97-1.68,5.79-3.63,8.41-5.82,3.07-2.58,5.86-5.5,9.05-7.94,5.45-4.18,12-6.9,18.81-7.81,1.26-.17,2.71-.38,3.38-1.47.67-1.08-.72-2.9-1.68-1.98Z"/><path class="cls-1" d="m194.78,70.92c-1.91-.27-3.99-.52-5.68.42-1.69.94-2.51,3.59-1.01,4.82.95.79,2.34.66,3.54.42,1.23-.25,2.49-.59,3.49-1.35,1-.76,1.71-2.02,1.49-3.26-.22-1.24-1.59-2.24-1.83-1.04Z"/><path class="cls-1" d="m75.67,31.01c2.06,2.65,2.2,6.38,1.34,9.63,3.04-3.15,4.19-8.01,2.87-12.18-1.21,1.23-2.62,2.25-4.21,2.55Z"/><path class="cls-1" d="m180.36,62.78c1.15,1.66,2.57,3.14,4.18,4.36.41.31.84.61,1.12,1.03.33.5.42,1.14.37,1.74-.13,1.63-1.31,3.13-2.86,3.65-1.55.52-3.39.03-4.48-1.2-.85-.96-1.22-2.27-1.22-3.55,0-1.28.35-2.53.8-3.73.23-.62.5-1.24.95-1.73.45-.49,1.11-.82,1.13-.57Z"/><path class="cls-1" d="m171.52,67.49c-1.25-6.64-2.71-12.23-4.22-18.82-1.6-7.02-3.39-14.1-6.93-20.37-3.54-6.27-9.07-11.72-16-13.66-2.63-.74-5.37-.95-8.09-1.15-3.32-.25-6.65-.49-9.96-.22-6.57.53-12.86,3.08-18.42,6.61-5.56,3.53-10.44,8.03-15.04,12.75,5.88-7.43,12.09-15.13,20.72-19.04,3.94-1.78,8.21-2.68,12.47-3.39,6-1,12.21-1.62,18.1-.1,3.23.84,6.26,2.3,9.16,3.95,2.54,1.45,5.01,3.08,7,5.22,2.58,2.77,4.24,6.28,5.42,9.87,1.82,5.56,2.57,11.4,3.31,17.2.98,7.7,2.04,14.37,2.49,21.16Z"/><path class="cls-1" d="m17.63,66.62c-7.15,11.94-10.16,26.31-8.4,40.11,1.76,13.8,8.27,26.96,18.19,36.72,2.18,2.15,4.67,4.21,7.68,4.8.89.18,1.87.2,2.65-.27,1.93-1.15,1.29-4.06.41-6.13-4.15-9.82-8.13-19.79-10.33-30.23-2.2-10.43-2.55-21.44.51-31.66.88-2.95,2.06-5.99,1.43-9.01-.58-2.78-2.79-5.17-5.53-5.94-2.74-.78-5.75.16-6.61,1.59Z"/><path class="cls-1" d="m40.62,72.23c-4.24,10.47-6.52,21.82-5.82,33.1.7,11.27,4.44,22.45,11.32,31.41,1.44-7.32-.49-14.81-1.34-22.21-1.25-10.88-.13-22.02,3.26-32.44.66-2.03,1.41-4.07,1.51-6.19.1-2.13-.58-4.43-2.29-5.7-1.71-1.28-5.23-1.44-6.64,2.04Z"/><path class="cls-1" d="m33.16,36.16c-3.96-.54-8.3-1.01-11.7,1.1-.64.4-1.26.92-1.52,1.63-.7,1.86,1.24,3.58,2.94,4.61,31.04,18.67,66.83,27.54,102.01,36.16,6.96,1.71,13.92,3.41,20.93,4.92-1.76-2.15-4.39-3.38-6.94-4.49-29.11-12.66-60.72-18.45-90.49-29.46-6.05-2.24-12.74-5.46-14.48-11.67-.25-.89-.4-1.84-.93-2.59-.53-.75-1.63-1.22.18-.21Z"/><path class="cls-1" d="m221.48,99.86c-7.01-.86-13.97-2.05-20.86-3.57-2.05-.45-4.14-.95-5.94-2.03-.78-.47-1.58-1.26-1.36-2.14,2.37-.5,4.83-.38,7.25-.16,7.55.69,15.02,2.38,22.13,5.01.54.2,1.1.42,1.49.85.39.43.53,1.13.17,1.58-.22.27-.56.4-.9.49-1.34.36-2.79.32-1.97-.02Z"/><path class="cls-1" d="m214.27,121.99c32.92-19.77,71.68-27.31,109.84-31.61,39.01-4.4,79.91-5.51,116,9.96,5.68,2.44,12,6.46,12.1,12.65.06,4.21-3.06,7.97-6.86,9.77-3.8,1.8-8.16,1.97-12.36,1.77-11.38-.55-22.47-3.6-33.59-6.07-32.06-7.13-65.16-9.54-97.92-7.12-13.78,1.02-27.57,2.9-40.76,7.01-5.33,1.66-10.62,3.72-15.12,7.02-8.61,6.32-14.41,17.14-24.77,19.7-3.9.97-8.75.18-10.7-3.34-1.63-2.95-.63-6.61.4-9.82.97-3.01,1.93-6.02,3.75-9.92Z"/><path class="cls-1" d="m445.89,119.12c-4.12,1.67-8.57,2.5-13,2.67-11.08.43-21.26-3.81-31.56-7.23-17.26-5.72-35.24-9.72-53.39-11.04-18-1.31-36.2-.39-53.98,2.72-17.66,3.09-35.44,8.27-51.75,15.79-4.37,2.01-8.8,4.19-13.75,3.99-3.75-.15-7.86-1.41-10.41-4.31-.37-.42-.69-.86-.98-1.32-.93.53-1.88,1.04-2.8,1.6-1.82,3.9-2.78,6.91-3.75,9.92-1.03,3.21-2.03,6.87-.4,9.82,1.94,3.52,6.8,4.31,10.7,3.34,10.36-2.56,16.17-13.38,24.77-19.7,4.5-3.3,9.79-5.36,15.12-7.02,13.19-4.11,26.98-5.99,40.76-7.01,32.75-2.42,65.86-.01,97.92,7.12,11.12,2.47,22.21,5.52,33.59,6.07,4.2.2,8.56.03,12.36-1.77,2.9-1.38,5.4-3.9,6.4-6.89-1.76,1.29-3.69,2.38-5.84,3.25Z"/><path class="cls-1" d="m440.75,105.83c-17.15-6.57-35.16-10.88-53.43-12.78-11.68-1.22-23.8-1.4-34.83,2.62-.02,2.46,3.29,3.22,5.75,3.25,16.49.16,32.95,2.82,48.65,7.84,10.22,3.27,20.28,7.57,30.98,8.45,1.87.15,4.02.09,5.23-1.34,1.27-1.49.86-3.87-.37-5.38-1.23-1.51-3.08-2.36-1.98-2.65Z"/><path class="cls-1" d="m262.64,104.91c-10.36,2.22-20.41,5.86-29.79,10.8-1.08.57-2.3,1.85-1.5,2.77,10.89-2.76,21.58-6.32,31.96-10.63,1.59-.66,3.24-1.39,4.28-2.76-2.11-.52-4.4-.29-4.95-.18Z"/></svg>