<?xml version="1.0" encoding="UTF-8"?><svg id="Layer_1" xmlns="http://www.w3.org/2000/svg" viewBox="0 0 334.14 203.17"><defs><style>.cls-1{fill:none;stroke:#1d1d1b;stroke-miterlimit:10;stroke-width:3px;}</style></defs><path class="cls-1" d="m273.9,53.85c-15.11-14.38-36.82-19.91-57.67-20.19-20.85-.29-41.44,4.09-62.1,6.9-8.65,1.18-17.37,2.09-25.84,4.19-25.23,6.27-50.28,19.62-71.63,36.15,44.37-1.33,91.7-8.28,135.89-12.44,27.61-2.6,56.21-3.13,81.35-14.61Z"/><path class="cls-1" d="m266.74,48.03c-.07.02-.14.05-.22.07-16.81,3.51-33.59,7.09-50.49,10.15-30.25,5.48-60.73,9.88-91.21,13.83-15.05,1.95-30.15,3.52-45.24,5.07-6.87.71-13.74,1.36-20.62,1.99-.77.58-1.55,1.16-2.31,1.74,44.37-1.33,91.7-8.28,135.89-12.44,27.61-2.6,56.21-3.13,81.35-14.61-2.25-2.14-4.65-4.05-7.16-5.81Z"/><path class="cls-1" d="m262.98,69.93c16.29-12.35,34.12-23.94,54.33-26.98,3.46-.52,7.13-.76,10.32.66,3.2,1.42,5.69,4.96,4.83,8.35-.89,3.49-4.65,5.3-7.97,6.7-20.35,8.6-39.8,19.34-57.93,31.98-3.67-6.63-4.95-14.56-3.59-20.7Z"/><path class="cls-1" d="m325.04,53.23c-5.46,2.69-10.93,5.37-16.42,8-5.63,2.69-11.26,5.64-17.13,7.74-4.91,1.76-11.2,2.48-15.15-1.66-1.4-1.47-2.37-3.23-2.77-5.06-3.6,2.48-7.13,5.06-10.59,7.68-1.36,6.15-.08,14.07,3.59,20.7,18.12-12.64,37.57-23.38,57.93-31.98,3.32-1.4,7.08-3.21,7.97-6.7.2-.8.21-1.61.07-2.39-2.5,1.23-5,2.44-7.5,3.67Z"/><path class="cls-1" d="m326.75,43.77c-6.5-2.16-13.62-.46-20.09,1.81-6.99,2.45-13.75,5.54-20.17,9.23-1.77,1.02-3.77,2.61-3.38,4.62,13.41-3.02,25.94-10.79,39.68-10.42,1.4.04,2.88.15,4.15-.44,1.27-.59,2.21-2.2,1.54-3.43-.46-.85-1.45-1.27-1.73-1.36Z"/><path class="cls-1" d="m73.73,93.27c-19.93-4.55-40.95-7.76-60.62-2.22-3.36.95-6.81,2.24-9.14,4.85-2.33,2.61-3.14,6.86-.96,9.6,2.25,2.82,6.42,2.91,10.02,2.82,22.09-.54,44.24,1.23,65.96,5.29.61-7.56-1.49-15.3-5.25-20.34Z"/><path class="cls-1" d="m10.3,103.61c6.09.2,12.17.4,18.26.53,6.23.13,12.58.5,18.8,0,5.2-.42,11.22-2.35,13.12-7.75.67-1.92.83-3.92.44-5.75,4.3.77,8.58,1.67,12.81,2.63,3.77,5.04,5.87,12.79,5.25,20.34-21.72-4.06-43.87-5.83-65.96-5.29-3.6.09-7.77,0-10.02-2.82-.51-.64-.85-1.38-1.05-2.15,2.78.09,5.56.17,8.35.26Z"/><path class="cls-1" d="m4.85,95.7c5.04-4.64,12.23-6.03,19.05-6.63,7.38-.65,14.81-.62,22.18.1,2.03.2,4.51.82,4.98,2.81-13.46,2.77-28.08.85-40.45,6.85-1.26.61-2.56,1.32-3.97,1.31-1.41-.02-2.92-1.09-2.81-2.5.07-.97.8-1.75,1.01-1.95Z"/><path class="cls-1" d="m53.65,80.39c74-4.14,152.1-14.69,224.6-30.04-.5,4.79-2.57,9.4-5.82,12.95-1.33,1.46-2.9,2.8-3.67,4.62-.8,1.88-.64,4-.47,6.03,2.17,26.09,4.33,52.19,6.5,78.28.45,5.43.83,11.23-1.81,16-3.24,5.85-10.09,8.56-16.51,10.42-27.2,7.89-55.91,8.53-83.84,13.2-14.91,2.5-29.62,6.14-44.54,8.59-6.06.99-12.26,1.78-18.3.73-6.04-1.05-11.99-4.19-15.1-9.49-2.71-4.63-6.57-16.25-7.67-21.5-5.46-26.22-12.41-48.93-18.7-68.74-7.91-12.34-6.52-8.35-14.66-21.06Z"/><path class="cls-1" d="m225.52,181.42c-19.64,4.8-39.36,9.18-59.69,8.95-17.73-.21-36.02-3.87-51.21-13.37-7.7-4.82-14.15-11.09-19.48-18.41-6.2-8.52-9.93-18.59-13.54-28.4-5.47-14.84-10.77-31.5-22.81-42.14,2.98,4.11,3.91,4.65,9.52,13.41,6.3,19.81,13.25,42.52,18.7,68.74,1.09,5.25,4.96,16.87,7.67,21.5,3.1,5.29,9.05,8.44,15.1,9.49,6.05,1.05,12.25.26,18.3-.73,14.92-2.44,29.63-6.09,44.54-8.59,27.93-4.67,56.64-5.31,83.84-13.2,4.97-1.44,10.19-3.4,13.81-6.92-15.09,2.14-29.97,6.06-44.75,9.68Z"/><path class="cls-1" d="m269.87,66.42c-53.78,15.02-108.61,26.27-163.96,33.65,4.1.97,8.37.85,12.58.69,25.75-.99,51.42-3.38,77-6.44,23.57-2.82,47.44-6.31,69.05-16.12.8-.37,1.64-.76,2.19-1.46.54-.68.74-1.55.92-2.4.63-2.86,1.26-5.72,2.22-7.93Z"/><path class="cls-1" d="m277.77,51.02c-33.08,5.91-66.17,11.83-99.25,17.74,13.19,2.04,26.67,2.27,39.92.68,15.29-1.84,30.18-6.07,45-10.29,3.89-1.11,7.78-2.22,11.57-3.63.93-.35,1.91-.75,2.52-1.53.61-.79.7-2.08.24-2.97Z"/><path class="cls-1" d="m69.51,79.77c4.03,5.16,8.06,10.32,12.09,15.48,1.49,1.91,3,3.84,3.9,6.08.72,1.79,1.04,3.71,1.39,5.6,4.05,22.21,12.86,43.8,27.22,61.23.88,1.07,1.93,2.21,3.32,2.33.34-4.62-1.59-9.07-3.4-13.33-6.59-15.49-12.22-31.41-16.4-47.72-.85-3.34-1.65-6.71-3.04-9.86-1.88-4.3-4.79-8.06-7.76-11.69-2.21-2.7-4.54-5.42-7.57-7.16-3.03-1.74-6.93-2.35-9.75-.97Z"/><path class="cls-1" d="m261.21,83.13c1.41,25.06,2.81,50.11,4.22,75.17.14,2.5.24,5.17-1.09,7.3-2.33,3.73-7.61,3.88-12,3.59-1.41-.09-2.88-.21-4.06-.98-1.99-1.31-2.46-3.98-2.68-6.36-2.12-22.67,1.52-45.61,8.15-67.39,1.42-4.66,3.61-9.93,7.46-11.33Z"/><path class="cls-1" d="m242.67,93.61c-2.54,16.12-5.08,32.25-7.63,48.37-.24,1.53-.59,3.24-1.88,4.1-2.98-2.8-3.56-7.27-3.79-11.36-.75-13.45.41-27.31,5.99-39.57.62-1.37,1.33-2.75,2.48-3.72,1.15-.97,2.84-1.43,4.18-.75,1.34.68,1.9,2.72.66,2.92Z"/><path class="cls-1" d="m120.83,34.72c.2,3.91.41,7.81.61,11.72.06,1.12.13,2.28.61,3.29,1.58,3.33,6.26,3.28,9.9,2.73,1.22-.19,2.57-.45,3.28-1.46.55-.77.57-1.79.57-2.74,0-7.07.21-14.54,3.9-20.57,4.75-7.77,14.16-11.35,23.12-12.97,3.15-.57,6.39-.97,9.53-.4,5.19.94,9.65,4.47,12.65,8.81,3,4.34,4.69,9.44,5.97,14.55.38,1.51.79,3.13,1.98,4.12,1.27,1.05,3.07,1.1,4.72,1.09,1.78,0,3.57-.02,5.35-.03.67,0,1.39-.02,1.93-.42.82-.61.86-1.79.82-2.81-.27-5.86-1.09-11.69-2.44-17.39-.98-4.14-2.32-8.35-5.17-11.5-1.88-2.08-4.33-3.57-6.86-4.77-13.18-6.26-28.68-5.01-42.91-1.77-5.05,1.15-10.18,2.59-14.38,5.63-7.75,5.6-13.69,15.25-13.18,24.91Z"/><path class="cls-1" d="m196.15,36.86c-.86-2.15-1.59-4.34-2.39-6.5-.22-.59-.45-1.17-.68-1.76-.11-.24-.5-1.16-.69-1.61-.12-.27-.36-.78-.35-.77-.23-.48-.47-.96-.73-1.43-3.61-6.71-9.92-12.11-16.7-14.96-7.7-3.24-15.86-3.26-23.66-.05-7.99,3.3-14.56,9.55-17.97,17.52-3.38,7.89-3.6,17.04-.68,25.08,1.12-.19,2.28-.48,2.93-1.39.55-.77.57-1.79.57-2.74,0-7.07.21-14.54,3.9-20.57,4.75-7.77,14.16-11.35,23.12-12.97,3.15-.57,6.39-.97,9.53-.4,5.19.94,9.65,4.47,12.65,8.81,3,4.34,4.69,9.44,5.97,14.55.38,1.51.79,3.13,1.98,4.12,1.27,1.05,3.07,1.1,4.72,1.09.47,0,.94,0,1.4,0-1.13-1.86-2.07-3.87-2.93-6.01Z"/><path class="cls-1" d="m134.04,12.53c-3.91,2.93-7.2,6.75-9.13,11.23-1.93,4.48-2.42,9.65-.95,14.3.91-.74,1.14-2.01,1.37-3.17,1.38-7.18,4.64-13.99,9.39-19.55.52-.6,1.06-1.22,1.29-1.98.22-.76.02-1.72-.69-2.09-.7-.37-1.77.27-1.27,1.26Z"/><path class="cls-1" d="m192.9,8.73c5.98,4.49,9.45,12.13,8.89,19.59-.02.26-.07.56-.29.7-.19.12-.43.07-.64,0-1.27-.41-2.19-1.5-3.02-2.54-3.82-4.74-7.73-9.8-8.71-15.8-.15-.95-.21-2,.36-2.78.77-1.06,2.42-1.12,3.57-.47,1.14.64,1.9,1.79-.14,1.29Z"/></svg>