<?xml version="1.0" encoding="UTF-8"?><svg id="Layer_1" xmlns="http://www.w3.org/2000/svg" viewBox="0 0 116.82 279.27"><defs><style>.cls-1{fill:none;stroke:#1d1d1b;stroke-miterlimit:10;stroke-width:3px;}</style></defs><path class="cls-1" d="m76.54,191.73c-2.4-10.2-5.79-20.22-11.17-29.25-.27-.51-.61-1.08-1.06-1.49-.02-.17-.07-.33-.15-.48.03-.2.05-.41.1-.61.03-.1.06-.21.08-.31,0-.04,0-.06,0-.09.02-.01.06-.16.14-.53.03-.11.06-.23.09-.35.13-.49,2.49-11.96,3.45-15.92,2.04-8.31,7.79-28.37,8.1-33.27.1-1.63-2.37-2.16-2.97-.63-1.92,4.94-4.94,14.89-7.66,26.91-1.29,5.73-4.74,19.72-5.63,21.71-.25.56-.4,1.11-.38,1.22-.08.29-.17.58-.24.87-23.36,7.71-50.46,39.32-56.13,62.38-2.91,11.28-1.76,23.39,2.26,34.26,3.77,8.52,10.92,15.5,19.38,19.34,6.8,2.78,14.51,2.7,21.65,1.41,11.68-2.85,22.03-11.14,27.44-21.87,9.92-19.64,7.12-42.55,2.69-63.31Zm-41.49,80.47c-11.31-1.11-16.53-25.46-14.79-38.62,1.91-19.11,10.1-35.92,21.42-50.4,4-5.45,11.04-12.04,15.02-15.32.7-.6,1.41-1.17,2.12-1.75.05.22.09.44.12.65.95,4.21,1.69,9.54,2.7,15.14,2.19,12.99,3.63,26.23,3.21,39.41-.13,5.51-2.76,14.75-5.4,20.61-5.29,12.7-15.38,31.25-24.4,30.29Zm-25.76-17.22c-4.13-10.42-4.86-18.37-2.75-28.81,2.93-14.76,10.65-26.38,20.5-38.11,7.45-8.55,14.2-14.43,23.62-20.5,1.46-.86,2.71-1.57,3.9-2.2-9.72,8.19-17.93,18.21-24.78,28.86-8.71,14.7-14.55,31.94-14.28,49.15.38,8.17,2.79,19.97,8.82,27.1-6.86-3.87-12.16-9.69-15.02-15.5Zm63.58-12.47c-2.25,7.67-5.19,15.85-11.25,21.87-4,3.95-8.65,6.73-14.55,8.51-.87.25-1.98.44-3.23.58,2.25-1.66,4.23-3.8,5.88-5.97,4.04-5.29,7.67-10.92,10.49-16.96,3.84-7.91,7.25-16.2,8.62-24.92,1.52-12.4.72-25.08-1.23-37.38-1.07-6.52-2.7-12.93-4.05-19.39-.04-.19-.08-.39-.13-.59,2.42,5.25,5.15,11.62,6.63,17.5,3.06,11.13,4.59,20.75,4.95,33.13.27,8.88.05,14.54-2.13,23.63Z"/><path class="cls-1" d="m107.31,5.26c-2.27.12-4.27,1.7-5.41,3.67-1.14,1.96-1.56,4.26-1.81,6.52-.25,2.26-.35,4.55-.94,6.74-.17.62-.47,1.33-1.1,1.47-.26.06-.54,0-.79-.07-2.16-.61-3.72-2.63-4.25-4.81-.52-2.18-.14-4.49.57-6.62,1.28-3.79,3.96-7.43,7.83-8.45,2.11-.55,4.68-.1,5.9,1.55Z"/><path class="cls-1" d="m114.68,9.03c-1.55-4.64-6.49-7.9-11.36-7.5-6.55.54-11.26,6.74-13.31,12.99-2.05,6.25-2.74,12.88-4.15,18.35-5.88,22.81-11.77,45.62-17.65,68.43-.34,1.32-.68,2.68-.53,4.04.52,4.44,5.69,6.46,10.01,7.57,1.66.43,3.56.82,5-.11,1.19-.76,1.72-2.2,2.17-3.53,8.52-25.14,17.04-50.29,25.55-75.43,1.78-5.26,3.57-10.54,4.49-16.02.49-2.92.71-5.97-.22-8.78Zm-4.2,5.91c-.24.81-.54,1.65-1.02,2.34-.91,1.32-2,2.54-3.48,3.22-1.06.48-2,.81-3.18.85-1.12.04-2.13-.32-3.12-.79-.32-.15-.61-.34-.89-.54-.44-.31-.88-.64-1.26-1.03-.77-.78-1.29-1.65-1.67-2.67-.36-.97-.36-2.04-.14-3.04.01-.06.04-.12.06-.18,0,0,0,0,0,0,.02-1.91.85-3.75,2.17-5.11.38-.39.84-.71,1.27-1.03.16-.12.32-.23.49-.31.65-.32,1.36-.64,2.08-.77.68-.12,1.4-.25,2.1-.22.68.03,1.39.1,2.04.3.48.15.96.36,1.42.58.14.06.27.13.39.22.88.59,1.43,1.16,2.04,2.01.37.51.62,1.13.79,1.73.05.18.09.36.12.54.08.48.17.98.17,1.47,0,.81-.15,1.66-.39,2.44Z"/><path class="cls-1" d="m114.68,9.03c-.04-.12-.09-.23-.13-.35-.21,1.17-.5,2.33-.73,3.41-1.08,5.19-3.12,10.11-5.09,15.02-3.57,8.89-7.28,17.69-10.58,26.69-1.54,4.21-2.54,8.44-3.62,12.78-.62,2.47-1.26,4.93-1.99,7.36-.63,2.09-1.46,4.15-1.92,6.29-.96,4.48-2.24,8.83-3.79,13.13-1.29,3.57-2,7.56-4.09,10.78-2.29,3.52-6.05,6.25-10.36,6.13-.45-.01-.91-.04-1.37-.08,1.94,1.3,4.43,2.13,6.69,2.71,1.66.43,3.56.82,5-.11,1.19-.76,1.72-2.2,2.17-3.53,8.52-25.14,17.04-50.29,25.55-75.43,1.78-5.26,3.57-10.54,4.49-16.02.49-2.92.71-5.97-.22-8.78Z"/><path class="cls-1" d="m91.73,21.04c-4.02,15.52-8.04,31.04-12.06,46.56-1.07,4.13-2.14,8.27-2.96,12.46-.55,2.82-.98,5.71-.59,8.55,1.53-2.9,2.45-6.07,3.35-9.22,2.31-8.06,4.63-16.13,6.94-24.19,1.94-6.77,3.89-13.55,5.45-20.42,1.14-4.99,2.07-10.12,1.53-15.21-1.22.45-2.22,1.49-1.66,1.47Z"/><path class="cls-1" d="m89.41,94.62c-1.3.23-2.64.43-3.96.36-1.3-.06-2.58-.36-3.85-.6-3.8-.74-7.31-2.32-10.43-4.54l-2.96,11.46c-.34,1.32-.68,2.68-.53,4.04.52,4.44,5.69,6.46,10.01,7.57,1.66.43,3.56.82,5-.11,1.19-.76,1.72-2.2,2.17-3.53l4.99-14.73c-.15.03-.3.05-.45.08Z"/><path class="cls-1" d="m86.29,94.97c-.99,3.12-1.77,6.43-3.55,9.17-2.29,3.52-6.05,6.25-10.36,6.13-.45-.01-.91-.04-1.37-.08,1.94,1.3,4.43,2.13,6.69,2.71,1.66.43,3.56.82,5-.11,1.19-.76,1.88-2.71,2.33-4.05,1.61-4.75,3.22-9.51,4.83-14.26-1.13.04-2.43.5-3.56.48Z"/><path class="cls-1" d="m59.11,160.49c-6.69,2.8-13.28,6.02-19.13,10.34-7.59,6.1-14.14,13.43-20.71,20.59-.45.47-.05,1.32.6,1.26.57-.05.8-.66,1.16-1.02,7.17-7.63,13.79-15.9,22.18-21.71,5.27-3.5,10.5-6.26,16.19-8.6.55-.17.28-1.07-.29-.87Z"/><path class="cls-1" d="m68.15,197.95c-.03-.66-1.09-.63-1.04.05-.16,12.03.13,23.31-2.71,34.71.1.84,1.27,1.15,1.81.51.47-.72.4-1.7.66-2.52,1.57-6.82,1.53-13.87,1.65-20.82.07-3.99-.13-7.96-.36-11.94Z"/><path class="cls-1" d="m79.39,226.3c-.26-.42-.97-.3-1.06.2-1.61,10.24-2.14,20.62-7.52,29.11-.36.66.06,1.52.79,1.67,1.39.23,1.69-1.59,2.3-2.48,1.41-2.71,2.33-5.64,2.92-8.63,1.32-5.59,1.96-11.33,2.44-17.05-.05-.55.35-1.83.13-2.82Z"/><path class="cls-1" d="m19.66,252.15c-.85-3.78-1.5-9.18-1.48-14.02.03-2.52.29-4.1.51-6.57-.08-.64-1.09-.66-1.21-.02-1.01,5.32-1.34,10.67-.86,16.07.1,1.75.32,3.49.68,5.21.13.59.19,1.31.81,1.59,1.58.62,2.12-1.03,1.56-2.27Z"/><path class="cls-1" d="m3.62,235.34c-.04-1.1-1.77-1.01-1.69.09.12,3.15.46,6.28.87,9.4.02,1.04,1.52,1.36,1.97.42.17-3.27-1.04-6.6-1.15-9.91Z"/></svg>