<?xml version="1.0" encoding="UTF-8"?><svg id="Layer_1" xmlns="http://www.w3.org/2000/svg" viewBox="0 0 255.36 203.83"><defs><style>.cls-1{fill:none;stroke:#1d1d1b;stroke-miterlimit:10;stroke-width:3px;}</style></defs><path class="cls-1" d="m247.83,56.66c-2.4-19.47-18.43-35.08-36.54-42.65-18.1-7.57-38.17-8.55-57.77-9.44-20.72-.94-41.43-1.88-62.15-2.81-14.39-.65-30.46-.72-41.03,9.07-7.08,6.56-10.15,16.25-12.93,25.49-6.95,23.02-12.79,49.37-19.73,72.39-2.85,9.46-6.76,16.64-2.59,25.59,2.05,4.39,5.57,7.89,9.03,11.29,11.04,10.85,23.98,22.44,39.45,21.81.83-.03,1.72-.12,2.39-.62.97-.71,1.21-2.04,1.38-3.23.82-5.75,1.64-11.49,2.46-17.23,1.77-12.41,3.61-25.04,8.99-36.36,8.26-17.39,24.3-30.15,41.89-37.97,17.59-7.82,36.79-11.18,55.85-13.91,22.63-3.24,45.62-5.69,71.31-1.42Z"/><path class="cls-1" d="m65.01,164.12c4.07-35.8,12.47-70.94,20.85-105.98,1.3-5.43,2.65-10.98,5.66-15.69,4.65-7.26,12.81-11.69,21.21-13.63,8.4-1.95,17.13-1.7,25.74-1.43,19.88.6,39.77,1.2,59.65,1.8,8.4.25,16.82.51,25.15,1.68,6.01.85,12.13,2.24,17.12,5.71,11.44,7.94,13.53,23.84,13.48,37.76-.12,31.03-5.73,62.03-16.5,91.12-.62,1.67-1.28,3.37-2.48,4.68-2.27,2.48-5.9,3.02-9.24,3.37-49.82,5.29-100.2,1.44-149.84-5.33-4.08-.56-8.61-1.39-10.8-4.06Z"/><path class="cls-1" d="m200.42,24.29c-27.49-1.24-54.99-2.49-82.48-3.73-1.63-.07-3.35-.17-4.74-1.04-1.39-.87-2.27-2.77-1.46-4.19,5.19-1.67,10.75-1.63,16.2-1.52,11.1.22,22.19.67,33.28,1.13,13.01.53,26.34,1.12,38.37,6.09,1.45.6,3.14,1.68,2.94,3.24-.92.39-1.84.78-2.12.02Z"/><path class="cls-1" d="m194.04,13.03c-28.02-2.98-56.13-5.12-84.27-6.43-2.29-.11-5.15-.64-5.71-2.87,6.07-.49,12.16-.43,18.25-.38,21.57.19,43.28.38,64.47,4.45,3.45.66,7.27,1.7,9.01,4.75-.97.28-1.95.55-1.75.48Z"/><path class="cls-1" d="m50.54,44.43c-6.52,25.46-13.04,50.91-19.56,76.37-1.2,4.67-2.4,9.52-1.55,14.27.85,4.75,4.36,9.38,9.16,9.91,8.03-28.18,16.06-56.36,24.09-84.54,1.02-3.56,2.04-7.23,1.67-10.91-.37-3.69-2.46-7.45-5.95-8.68-3.49-1.24-7.26,1.22-7.86,3.6Z"/><path class="cls-1" d="m33.49,68.21c-1.89,5.33-3.43,10.78-4.6,16.32-.35,1.64-.66,3.36-.2,4.96.68,2.38,2.86,3.97,4.92,5.33,7.01,4.62,14.32,8.78,21.88,12.43.89.43,1.91.86,2.82.47.68-.29,1.11-.96,1.48-1.6,3.63-6.24,6.21-13.1,7.59-20.2.26-1.35.48-2.75.14-4.08-.4-1.58-1.53-2.88-2.75-3.97-3.56-3.2-8.03-5.15-12.42-7.06-3.68-1.6-7.37-3.2-11.05-4.8-1.53-.67-3.23-1.34-4.83-.86-2.23.67-3.22,3.22-2.99,3.04Z"/><path class="cls-1" d="m61.38,78.49c-2.1,7.51-4.2,15.01-6.3,22.52-.24.87-.51,1.78-1.15,2.43-.64.64-1.76.9-2.44.3-.75-.67-.53-1.87-.26-2.83,1.87-6.52,3.74-13.05,5.61-19.57.53-1.86,1.12-3.81,2.48-5.18.34-.34.88-.65,1.27-.37.43,1.65.45,3.4.78,2.71Z"/><path class="cls-1" d="m129.53,36.78c-.36-2.88-.86-7.42-2.8-9.58-.46-.51-7.58.18-7.9.55,6.87,46.29,13.81,93.1,20.68,139.39.13.88.3,1.83.93,2.46.59.58,1.47.75,2.29.89,2.57.44,5.14.88,7.71,1.32-7.67-44.9-15.33-89.82-20.91-135.02Z"/><path class="cls-1" d="m145.46,27.56c9.8,48.07,18.35,96.4,25.64,144.92.13.89.31,1.87,1,2.46.56.48,1.35.59,2.09.68,8.29.98,16.57,1.96,24.86,2.93.67.08,1.43.14,1.95-.3.57-.47.61-1.31.59-2.05-.13-5.36-.94-10.69-1.75-15.99-6.55-42.87-13.1-85.76-21.5-128.31-.2-.99-.45-2.08-1.28-2.68-.63-.45-1.45-.51-2.23-.55-10.22-.5-20.44-1.01-29.37-1.12Z"/><path class="cls-1" d="m228.22,34.39c-.26-.92-.53-1.86-.85-2.78-.82-.22-1.66-.4-2.49-.58-.99-.21-1.99-.41-2.99-.59-.43-.08-.85-.15-1.28-.22-.29-.04-.57-.09-.86-.13.41.05.3.04-.32-.04-.3-.04-.47-.06-.53-.07-.22-.03-.44-.05-.66-.08-.43-.05-.87-.09-1.3-.14-1.01-.1-2.03-.18-3.05-.23-.78-.04-1.56-.03-2.34-.01,10.17,35.6,20.33,71.19,30.5,106.79.94,3.3,1.16,4.76,2.31,7.99,2.09-9.77,4.49-18.61,6.11-29.7-7.58-27.5-14.55-52.75-22.26-80.21Z"/><path class="cls-1" d="m238.02,161.81c.63,2.25-.96,4.64-3.03,5.73-2.07,1.08-4.5,1.17-6.84,1.22-45.64,1.09-91.33.14-136.89-2.84-11.12-.73-22.51-1.64-32.65-6.27-8.92-4.07-16.34-10.77-23.6-17.36-4.37-3.97-8.73-7.93-13.1-11.9-4.04-3.67-8.46-8.98-6.17-13.93-2-1.85-5.42-1.15-7.37.75-1.95,1.9-2.8,4.63-3.58,7.24-2.74,9.14-5.38,19.45-.8,27.82,2.02,3.68,5.23,6.53,8.4,9.28,17.33,15.03,36.03,29.86,58.36,35.11,10.42,2.45,21.22,2.69,31.92,2.92,42.03.91,84.05,1.82,126.08,2.73,1.83.04,3.8.04,5.32-.97,1.16-.77,1.89-2.02,2.55-3.25,4.24-7.92,6.93-16.66,7.88-25.58.27-2.52.37-5.2-.82-7.43-1.18-2.24-4.08-3.75-5.67-3.27Z"/><path class="cls-1" d="m242.22,168.04c0-.08-.02-.16-.05-.22-.09-.23.03-.05-.23-.41-.1-.14-.23-.26-.37-.38-.57-.02-1.15-.16-1.7-.45-.55-.3-1.15-.47-1.76-.58-.42-.01-.84,0-1.26.02-.53.62-1.17,1.14-1.87,1.51-1.45.76-3.08,1.02-4.73,1.13,3.01.74,6.35,1.28,9.12.89,1.12-.16,2.18-.5,2.67-1.09.23-.28-.2.18.17-.31-.19.25-.08-.03,0-.12Z"/><path class="cls-1" d="m19.71,129.34c5.2,7.48,12.11,13.92,19.79,18.79,2.09,1.32,4.25,2.53,6.47,3.62-3.8-2.96-7.4-6.22-10.97-9.46-4.37-3.97-8.73-7.93-13.1-11.9-4.04-3.67-8.46-8.98-6.17-13.93-.9-.83-2.08-1.12-3.29-1.05,1.8,5,4.23,9.56,7.26,13.92Z"/><path class="cls-1" d="m31.78,176.78c-8.3-7.16-15.75-15.28-22.04-24.26-3.05-4.37-5.67-9.05-8.1-13.79-.42,4.74.07,9.38,2.35,13.55,2.02,3.68,5.23,6.53,8.4,9.28,7.6,6.59,15.47,13.13,23.79,18.85-1.49-1.18-2.97-2.38-4.41-3.62Z"/><path class="cls-1" d="m199.9,194.89c-25.57,1.54-51.08,1.86-76.69,1.52-12.8-.17-25.59-.45-38.38-.95-6.46-.25-12.91-.53-19.37-.9-.77-.04-1.56-.08-2.34-.12,2.5.85,5.04,1.6,7.63,2.21,10.42,2.45,21.22,2.69,31.92,2.92,42.03.91,84.05,1.82,126.08,2.73,1.83.04,3.8.04,5.32-.97,1.16-.77,1.89-2.02,2.55-3.25,1.02-1.9,1.93-3.85,2.77-5.83-13.16.98-26.33,1.84-39.5,2.63Z"/><path class="cls-1" d="m62.21,165.28c-1.18,6.26-2.36,12.51-3.53,18.77-.3,1.62-.6,3.32-.04,4.87.34.94.98,1.74,1.7,2.44,1.78,1.73,4.09,2.91,6.54,3.33.37.06.78.11,1.12-.06.48-.24.68-.82.82-1.34,1.35-4.96,2.31-10.02,2.86-15.12.39-3.53.56-7.21-.76-10.51-.8-2-2.29-3.89-4.38-4.43-2.09-.54-4.08.78-4.32,2.06Z"/><path class="cls-1" d="m239.02,174.03c-23.05,4.11-46.58,5.56-69.97,4.3-3.01-.16-6.42-.58-8.18-3.03,5.2-3.29,11.79-3.06,17.94-2.83,17.84.67,35.72.46,53.54-.63,2.79-.17,6-.2,7.85,1.89-.62.73-1.24,1.46-1.17.3Z"/><path class="cls-1" d="m11.36,117.98c.38,5.25,3.16,10.28,7.42,13.38.82.6,1.72,1.16,2.24,2.04.51.88.45,2.2-.43,2.71-.44.25-.97.25-1.47.17-2.81-.46-4.64-3.13-6.03-5.61-1.28-2.27-2.48-4.59-3.6-6.94-.63-1.32-1.25-2.79-.84-4.19.4-1.4,2.66-2.42,2.72-1.55Z"/><path class="cls-1" d="m52.42,12.19c2.73-4.3,8.72-5.53,13.64-4.21,4.92,1.32,9.03,4.62,12.97,7.84,4.41,3.6,8.82,7.2,13.23,10.79,1.89,1.54,3.98,3.7,3.28,6.03-.32,1.07-1.19,1.88-2.03,2.62-1.62,1.44-3.26,2.85-4.92,4.24-.41.34-.85.7-1.38.79-.61.11-1.21-.16-1.77-.43-5.75-2.87-10.29-7.63-14.99-12.02-4.85-4.53-9.98-8.73-15.37-12.6-1.35-.97-3.14-2.32-2.67-3.06Z"/></svg>