<?xml version="1.0" encoding="UTF-8"?><svg id="Layer_1" xmlns="http://www.w3.org/2000/svg" viewBox="0 0 333.18 224.59"><defs><style>.cls-1{fill:none;stroke:#1d1d1b;stroke-miterlimit:10;stroke-width:3px;}</style></defs><path class="cls-1" d="m20.89,164c-.56,4.63-1.12,9.25-1.68,13.88-.05.44-.1.91.12,1.29.26.47.82.66,1.34.81,3.31.95,6.69,1.6,10.07,2.25,7.08,1.36,14.16,2.71,21.24,4.07.81.16,1.7.3,2.42-.1.72-.4,1.07-1.22,1.35-2,.82-2.29,1.42-4.64,1.81-7.04.12-.71.2-1.48-.13-2.11-.28-.53-.8-.88-1.31-1.2-5.62-3.52-11.9-5.98-18.42-7.2-2.99-.56-6.01-.86-9.03-1.16-3.9-.39-7.79-.77-7.77-1.5Z"/><path class="cls-1" d="m228.91,205.15c-.57,2.79-1.14,5.59-1.71,8.38-.22,1.09-.43,2.3.12,3.27.79,1.39,2.67,1.6,4.27,1.67,9.22.42,18.39,1.68,27.38,3.76,3.68.85,8.02,1.69,10.85-.82,2.03-1.81,2.52-4.76,2.74-7.47.07-.82.12-1.66-.16-2.43-.66-1.85-2.84-2.58-4.75-3.03-13.11-3.09-26.67-4.28-38.73-3.34Z"/><path class="cls-1" d="m198.23,26.86c-30.38-5.77-60.76-11.54-91.15-17.31-17.71-3.37-35.81-6.74-53.67-4.22-2.69.38-5.48.94-7.63,2.62-2.97,2.33-4.07,6.27-4.98,9.93-11.08,44.92-19.18,87.63-24.21,133.63-.63,5.72-.87,12.37,3.38,16.24,2.22,2.02,5.22,2.92,8.15,3.56,77.07,16.74,130.28,27.58,196.06,36.03,20.9,2.68,41.79,5.37,62.69,8.05,5.08.65,10.57,1.23,15.03-1.29,5.56-3.15,7.64-9.99,9.14-16.2,9.31-38.56,14.58-77.95,19.83-117.27,1.33-9.99,1.92-21.95-6.01-28.16-3.6-2.82-8.28-3.78-12.77-4.64-39.69-7.64-79.54-14.44-113.88-20.96Z"/><path class="cls-1" d="m183.48,23.91c-30.38-5.77-60.76-11.54-91.15-17.31C74.62,3.23,56.52-.14,38.66,2.38c-2.69.38-5.48.94-7.63,2.62-2.97,2.33-4.07,6.27-4.98,9.93C14.98,59.86,6.89,102.57,1.85,148.56c-.63,5.72-.87,12.37,3.38,16.24,2.22,2.02,5.22,2.92,8.15,3.56,77.07,16.74,130.28,27.58,196.06,36.03,20.9,2.68,41.79,5.37,62.69,8.05,5.08.65,10.57,1.23,15.03-1.29,5.56-3.15,7.64-9.99,9.14-16.2,9.31-38.56,14.58-77.95,19.83-117.27,1.33-9.99,1.92-21.95-6.01-28.16-3.6-2.82-8.28-3.78-12.77-4.64-39.69-7.64-79.54-14.44-113.88-20.96Z"/><path class="cls-1" d="m298.99,66.38c-3.85,40.45-11.47,80.47-21.8,117.86-.84,3.02-1.74,6.14-3.79,8.51-4.53,5.25-12.61,4.97-19.5,4.21-31.59-3.48-63.1-7.75-94.47-12.82-44.06-7.12-87.85-15.79-131.63-24.46-2.4-.48-4.9-.99-6.85-2.47-3.98-3.02-4.32-8.8-4.15-13.8,1.27-37.07,10.8-73.31,20.28-109.17,1.76-6.65,4.36-14.26,10.86-16.53,3.52-1.23,7.38-.52,11.03.2,78.83,15.46,241.49,33.06,240.03,48.47Z"/><path class="cls-1" d="m223.02,125.64c2.32-16.95,4.65-33.9,6.97-50.86.58-4.24.75-9.46-2.85-11.79-1.22-.79-2.68-1.08-4.1-1.36-40.36-7.83-80.72-15.67-121.08-23.5-12.46-2.42-24.98-4.84-37.66-5.45-3.65-.17-7.56-.13-10.62,1.87-4.46,2.92-5.6,8.84-6.34,14.12-4.27,30.3-8.54,60.6-12.81,90.9-.23,1.67-.46,3.43.15,5,.52,1.34,1.6,2.4,2.75,3.26,3.85,2.86,8.71,3.9,13.4,4.88,49.94,10.39,100.06,20.8,150.93,24.53,2.72.2,5.62.34,8.01-.98,3.39-1.87,4.67-6.03,5.6-9.8,3.58-14.55,6.09-29.32,7.67-40.84Z"/><path class="cls-1" d="m43.48,91.28c19.01-17.84,38.13-35.57,57.16-53.4-5.16-1-10.34-1.99-15.53-2.84-7.91,8.05-15.76,16.15-23.59,24.27-5.11,5.3-10.21,10.61-15.34,15.89-1.01,1.03-2.01,2.07-3.02,3.1-.72,5.1-1.44,10.19-2.16,15.29.83-.77,1.66-1.54,2.48-2.32Z"/><path class="cls-1" d="m71.37,156.98c1.78-1.71,3.56-3.42,5.32-5.14,17.8-17.29,35.56-34.62,53.28-52,15.91-15.61,31.73-31.3,47.51-47.04l-33-6.41c-7.94,8.24-15.91,16.47-23.9,24.66-15.79,16.17-31.66,32.26-47.58,48.3-8.04,8.11-16.1,16.2-24.16,24.29-2.24,2.25-4.46,4.5-6.69,6.76,2.76,1.08,5.75,1.72,8.67,2.32,6.85,1.42,13.7,2.85,20.55,4.26Z"/><path class="cls-1" d="m208.83,152.83c-8.07,7.67-16.18,15.29-24.29,22.91,5.73.58,11.47,1.1,17.22,1.52,2.72.2,5.62.34,8.01-.98,3.39-1.87,4.67-6.03,5.6-9.8,2.07-8.43,3.78-16.91,5.16-24.81-3.9,3.72-7.79,7.45-11.69,11.16Z"/><path class="cls-1" d="m191.49,55.81c-36.05,32.34-68.02,68.91-99.72,105.53,2.43.52,4.85,1.04,7.28,1.56.58.12,1.2.25,1.77.07.57-.18,1.01-.64,1.41-1.08,32.27-34.87,64.53-69.74,96.8-104.62-2.63-.29-5.26-.58-7.54-1.46Z"/><path class="cls-1" d="m226.73,153.61c-2.02,6.86-3.36,13.91-4,21.03-.07.77-.1,1.62.41,2.2.44.5,1.15.63,1.81.73,11.35,1.8,22.71,3.6,34.06,5.39,3.08.49,6.78.75,8.73-1.68.87-1.09,1.18-2.52,1.47-3.88.9-4.36,1.81-8.73,2.71-13.09.32-1.53.54-3.39-.64-4.42-.49-.43-1.13-.62-1.76-.8-12.41-3.58-24.97-7.18-37.88-7.64-1.17-.04-2.4-.05-3.45.47-1.05.52-1.86,1.73-1.46,1.67Z"/><circle class="cls-1" cx="260.09" cy="87.81" r="15.12" transform="translate(114.87 320.76) rotate(-76.72)"/><circle class="cls-1" cx="254.92" cy="127.19" r="15.12" transform="translate(-29.27 107.24) rotate(-22.5)"/><path class="cls-1" d="m270.4,78.59c1.84,1.98,3.01,4.58,3.25,7.28.12,1.25.04,2.52-.07,3.77-.23,2.62-.74,5.45-2.69,7.21-.88.79-1.98,1.29-3.05,1.78-.43.19-.89.39-1.35.28-.62-.15-.99-.84-.98-1.48.01-.64.32-1.23.64-1.79,1.59-2.82,3.68-5.69,3.45-8.92-.15-2.14-1.33-4.15-1.23-6.29.04-.96.42-1.99,1.27-2.44.85-.45,2.15.07.76.59Z"/><path class="cls-1" d="m266.24,119.18c1.27,4.42,2.53,9.11,1.27,13.53-.53,1.85-1.5,3.58-2.8,4.99-1.4,1.52-3.43,2.73-5.46,2.33-.24-.05-.5-.13-.68-.3-.31-.31-.3-.81-.22-1.24.53-2.67,3.09-4.46,4.18-6.95,1.88-4.32-1.03-9.59.75-13.95.12-.3.29-.62.57-.78.64-.36,1.4.25,1.81.86.4.62.82,1.37.57,1.52Z"/><path class="cls-1" d="m243.05,155.23c7.8.67,15.51,2.26,22.95,4.7,1.41.46,2.96,1.09,3.55,2.45.3.69.3,1.47.27,2.23-.23,5.42-1.86,10.78-4.67,15.42-1.66-4.08,1.24-8.84-.04-13.06-1.21-3.97-5.63-5.97-9.7-6.78-4.07-.81-8.46-.99-11.89-3.33.07-.55.15-1.11-.47-1.64Z"/><path class="cls-1" d="m104.37,11.74c-12.39-1.65-24.79-3.31-37.18-4.96-11.77-1.57-24.42-3-34.95,2.5,27.36,4.34,54.72,8.69,82.24,11.83,10.33,1.18,20.82,2.18,31.06.41-15.24-6.25-31.5-10-41.17-9.77Z"/></svg>