<?xml version="1.0" encoding="UTF-8"?><svg id="Layer_1" xmlns="http://www.w3.org/2000/svg" viewBox="0 0 225.04 312.19"><defs><style>.cls-1{fill:none;stroke:#1d1d1b;stroke-miterlimit:10;stroke-width:3px;}</style></defs><path class="cls-1" d="m51.28,50.87c-4.78-2.01-9.91-3.2-15.08-3.49-3.74-.21-7.57.06-11.05,1.43-2.82,1.11-5.32,2.91-7.57,4.94-9.48,8.57-14.52,21.28-15.74,34-1.23,12.72,1.05,25.54,4.34,37.89,3.9,14.63,9.29,29,17.53,41.71,2.42,3.74,5.08,7.32,7.8,10.85,7.23,9.38,15.65,18.92,27.11,21.9.55.14,1.16.27,1.68.02.99-.47.98-1.85.82-2.92-.51-3.5-1.08-7-1.69-10.48-.54-3.1-1.15-6.28-2.81-8.96-1.4-2.27-3.47-4.03-5.4-5.86-15.13-14.35-23.34-34.75-26.8-55.32-1.03-6.12-1.67-12.29-2.32-18.46-.89-8.54-1.64-17.78,2.81-25.13,4.18-6.9,12.87-10.74,20.79-9.19,1.25.24,2.66.58,3.7-.16.8-.57,1.1-1.6,1.3-2.56.71-3.51.7-7.17.6-10.23Z"/><path class="cls-1" d="m61.11,197.2c-.51-3.5-1.08-7-1.69-10.48-.54-3.1-1.15-6.28-2.81-8.96-1.4-2.27-3.47-4.03-5.4-5.86-15.13-14.35-23.34-34.75-26.8-55.32-1.03-6.12-1.67-12.29-2.32-18.46-.89-8.54-1.64-17.78,2.81-25.13,4.18-6.9,12.87-10.74,20.79-9.19,1.25.24,2.66.58,3.7-.16.8-.57,1.1-1.6,1.3-2.56.71-3.51.7-7.17.6-10.23-1.98-.84-4.03-1.52-6.11-2.07-.08.12-.15.24-.24.35-6.93,8.72-18.7,11.82-25.07,21.06-13.51,19.59-3.69,44.15,4.83,63.56,9.79,22.28,20.38,44.17,31.77,65.68.71.24,1.43.46,2.16.65.55.14,1.16.27,1.68.02.98-.47.98-1.85.82-2.92Z"/><path class="cls-1" d="m23.76,52.2c-5.98,3.26-10.48,8.83-13.42,14.97-2.93,6.15-4.42,12.89-5.46,19.62-.79,5.13-.88,11.4,3.41,14.33,3.41-8.64,1-18.61,3.73-27.48,1.85-6,6.11-11.23,11.62-14.25,3-1.65,6.59-2.89,8.14-5.94.17-.32.31-.68.23-1.04-.14-.68-.93-.97-1.61-1.1-2.9-.53-5.63.33-6.65.89Z"/><path class="cls-1" d="m10.16,128.19c3.74,8.83,7.48,17.66,11.22,26.49,1.23,2.91,2.47,5.83,4.11,8.52,1.93,3.16,4.42,5.99,7.31,8.31.86-2.22.35-4.71-.26-7.01-3.52-13.44-9.71-26.17-18.1-37.25-1.13-1.5-2.43-3.05-4.24-3.54-.57,2.22-.13,4.67-.04,4.48Z"/><path class="cls-1" d="m203.51,58.68c1.78-2.5.64-6.21-1.68-8.22-2.32-2.01-5.46-2.74-8.47-3.34-33.99-6.78-69.03-6.02-103.37-10.7-11.31-1.54-22.62-3.67-34.04-3.47-3.09.05-6.68.57-8.26,3.23-.56.95-.78,2.06-.99,3.14-1.33,6.85-2.66,13.72-3.35,20.66-1.16,11.65-.51,23.41.21,35.09,2.52,41.27,5.93,83,19.29,122.13,1.01,2.96,2.18,6.06,4.6,8.05,2.03,1.67,4.67,2.35,7.22,2.98,15.95,3.95,32.15,7.93,48.57,7.37,4.59-.16,9.36-.73,13.22-3.23,2.67-1.73,4.72-4.25,6.64-6.79,15.07-19.95,25.1-43.16,34.98-66.12,6.47-15.03,12.98-30.2,16.2-46.25.71-3.57,1.28-7.22,2.78-10.54,2.09-4.61,5.83-8.23,9.26-11.95,5.82-6.31,10.97-13.24,15.35-20.63,1.34-2.26,2.59-5.22,1.06-7.36-1.13-1.58-3.29-1.94-5.23-2.17-4.91-.58-9.82-1.17-14-1.89Z"/><path class="cls-1" d="m195.66,107.17c2.66-12.08,6.05-25.27,8.71-37.35.15-.7.92-1.58,1.37-1.02.13.16.14.39.15.61.09,5.08.18,10.17.28,15.25.03,1.86.06,3.76-.52,5.53-.82,2.48-2.73,4.42-4.34,6.48-2.43,3.11-5.01,7.79-5.64,10.51Z"/><path class="cls-1" d="m65.74,71.23c-3.32,45.91-4.68,93.73,13.42,136.05.62,1.45,1.31,2.94,2.55,3.91,1.24.97,3.2,1.19,4.31.07,1.12-1.13.89-2.98.58-4.54-3.37-17.34-8.09-40.75-9.72-58.34-3.21-34.64,1.9-73.25-3.94-98.27-2.02-8.63-6.8,15.7-7.19,21.11Z"/><path class="cls-1" d="m98.34,60.29c-6.6,50.21-13.12,101.92-.31,150.91.52,2,1.38,4.3,3.37,4.84,2.02-2.42,1.86-5.92,1.62-9.05-3-39.08-2.35-78.43,1.91-117.39,1.02-9.28,2.24-18.63,1.43-27.93-.21-2.43-1.05-5.39-3.44-5.85-2.75-.52-4.34,2.71-4.58,4.48Z"/><path class="cls-1" d="m143.73,68.43c-4.9,34.97-11.95,69.65-21.12,103.75-3.51,13.06-7.35,26.14-9.02,39.54-.17,1.39,1.69,2,2.36.77,11.79-21.43,17.46-45.8,22.95-69.72,1.95-8.51,3.91-17.01,5.86-25.52,3.91-17.02,7.83-34.2,7.97-51.65.02-2.85-.78-6.55-3.61-6.87-2.41-.28-4.17,2.36-4.54,4.76-.38,2.4-.02,4.97-.86,4.95Z"/><path class="cls-1" d="m174.8,79.2c-12.96,39.52-20.76,80.83-37.61,118.86-2.75,6.21-5.78,12.45-6.63,19.19,2.81.8,5.2-2.08,6.66-4.61,19.01-32.85,30.54-69.4,41.92-105.61,3.56-11.32,7.16-22.91,6.75-34.77-.09-2.49-1.79-5.88-4.03-4.78-.68.34-1.1,1.03-1.48,1.69-2.57,4.53-5.24,8.98-5.59,10.04Z"/><path class="cls-1" d="m49.61,34.82c7.46-8.53,19.12-11.89,30.25-14.03,28.09-5.41,58-5.46,84.39,5.57,6.85,2.86,13.38,6.43,19.89,9.99,5.67,3.1,11.44,6.28,15.86,10.98,1.05,1.12,2.06,2.83,1.16,4.08-.68.95-2.05.99-3.22.93-28.58-1.45-56.56-9.19-85.15-10.45-6.16-.27-12.33-.24-18.49-.35-11.62-.21-23.24-.92-34.8-2.13-4.48-.47-9.79-1.63-9.88-4.58Z"/><path class="cls-1" d="m120.1,9.83c-.34,3.47-.29,6.99.13,10.45.11.88.29,1.84.98,2.39.55.44,1.3.52,2.01.57,4.61.34,9.23.54,13.85.59.34,0,.7,0,1.01-.14.43-.21.69-.66.89-1.09,1.42-2.96,2.02-6.31,1.7-9.58-3.47-.1-6.93-.63-10.27-1.58-1.19-.34-2.37-.73-3.6-.88-2.26-.27-4.33-.67-6.71-.73Z"/><path class="cls-1" d="m133.48,1.9c-5.33-.56-10.55-.99-15,2-1.45.97-3.37,3.02-2.93,4.71.2.76.75,1.39,1.37,1.88,2.03,1.63,4.72,2.11,7.28,2.55,4.97.83,9.97,1.67,15.01,1.67,1.4,0,2.96-.13,3.93-1.14,1.58-1.64.62-4.4-.83-6.16-2.58-3.14-6.35-5.25-8.83-5.51Z"/><path class="cls-1" d="m67.22,221.33c-16.24,15.73-26.39,37.59-27.93,60.15-.1,1.41-.09,3.01.91,4.01.6.59,1.45.85,2.26,1.08,4.82,1.36,9.68,2.56,14.58,3.6,24.06,5.13,48.74,6.46,73.3,7.77,3.99.21,7.98.43,11.97.64,1.37.07,2.87.11,3.94-.75.9-.72,1.26-1.89,1.55-3.01,4.77-18.42.43-38.02-6.31-55.82-1.01-2.68-2.25-5.53-4.76-6.92-1.12-.62-2.39-.88-3.65-1.13-21.8-4.36-43.86-7.43-65.88-9.6Z"/><path class="cls-1" d="m131.32,286.75c-10.83-3.21-22.02-5.53-33.24-6.88-5.58-.67-11.17-.96-16.77-1.34-4.79-.32-9.66-.57-14.32-1.81-9.96-2.65-16.67-10.65-17.37-20.96-.35-5.07.98-10.51,2.67-15.25.09-.25.2-.49.3-.74-7.62,12.6-12.3,27-13.3,41.7-.1,1.41-.09,3.01.91,4.01.6.59,1.45.85,2.26,1.08,4.82,1.36,9.68,2.56,14.58,3.6,24.06,5.13,48.74,6.46,73.3,7.77,3.99.21,7.98.43,11.97.64,1.37.07,2.87.11,3.94-.75.9-.72,1.26-1.89,1.55-3.01.18-.71.33-1.42.48-2.13-5.56-2.23-11.23-4.23-16.97-5.93Z"/><path class="cls-1" d="m149.95,309.79c2.52-2.99,2.6-7.77.17-10.84-2.45-3.1-6.63-4.11-10.49-4.94-31.58-6.74-63.46-13.42-95.75-13.46-2.71,0-5.57.08-7.85,1.55-2.69,1.73-3.94,4.96-5.01,7.98-.3.83-.59,1.74-.33,2.58.36,1.14,1.6,1.72,2.72,2.12,9.14,3.28,19.03,3.56,28.72,4.17,21.11,1.31,42.11,4.29,62.75,8.9,8.62,1.92,17.71,4.12,25.07,1.95Z"/><path class="cls-1" d="m133.27,236.37c7.97,9.27,9.43,22.31,10.55,34.49.38,4.19.75,8.5-.51,12.51-1.95-.32-3.47-1.95-4.26-3.76-.8-1.81-1.01-3.81-1.36-5.76-1.13-6.24-3.76-12.2-7.61-17.24-2.91-3.81-6.49-7.09-9.12-11.09-1.23-1.88-2.27-4.06-2.02-6.29.38-3.35,3.74-5.82,7.11-6,3.37-.18,6.08,1.81,7.24,3.15Z"/><path class="cls-1" d="m39.01,282.09c15.22.59,30.42,1.65,45.57,3.18,7.66.78,15.4,1.69,22.61,4.39-.43,1.21-2,1.46-3.28,1.5-20.48.51-41.59-5.31-61.11.89-2.65.84-5.95,1.76-7.89-.23-1.42-1.46-1.3-3.92-.27-5.68,1.03-1.76,2.75-2.98,4.38-4.05Z"/><path class="cls-1" d="m151.28,26.28c12.75,5.02,25.19,10.82,37.24,17.35,1.77.96,3.76,2.28,3.85,4.29-6.75.48-13.22-2.47-19.34-5.34-6.53-3.07-13.06-6.13-19.59-9.2-1.48-.7-3.01-1.42-4.1-2.64-1.1-1.22-1.67-3.06-.94-4.53.72-1.47,3.02-2.04,2.9.07Z"/><path class="cls-1" d="m137.72,11.71c.71.27,1.47.5,2.21.37.75-.13,1.47-.7,1.52-1.46.05-.72-.48-1.34-.98-1.86-2.58-2.72-5.48-5.6-9.2-6.08-1.09-.14-2.42.06-2.92,1.05-.37.73-.13,1.66.39,2.3.51.64,6.09,4.57,8.98,5.68Z"/><path class="cls-1" d="m186.32,76.76c.22,4.47-.87,8.89-2.01,13.22-5.54,20.95-12.65,41.44-19.92,61.86-7.83,21.98-15.97,44.15-29,63.5,2.46-.36,4.2-2.5,5.65-4.52,19.58-27.42,29.63-60.33,39.37-92.58,3.91-12.95,7.86-26.22,7.18-39.74-.05-.94-.44-2.18-1.27-1.74Z"/><path class="cls-1" d="m204.57,59.98c5.69,2.85,11.89,5.77,18.15,4.67.24-.04.49-.1.66-.28.46-.49-.15-1.23-.72-1.58-2.9-1.8-6.22-2.89-9.62-3.17-1.53-.13-3.06-.09-4.59-.05-1.38.03-2.76.07-3.87.41Z"/><path class="cls-1" d="m144.48,64.43c-3.42,20.24-6.84,40.48-10.86,60.61-5.7,28.55-12.6,56.86-20.68,84.83,4.44-29.09,10.97-57.82,17.49-86.52,1.28-5.65,2.57-11.3,3.85-16.95.92-4.04,1.84-8.07,2.8-12.1,2.42-10.1,5.14-20.13,7.39-29.88Z"/><path class="cls-1" d="m98.44,61.19c-7.01,49.46-11.91,100.27-1.33,149.04.1.45-.52.69-.74.27-2.37-4.57-3.78-9.62-5-14.64-10.87-44.87-8.02-92.97,7.04-134.69,0-.02.04-.01.04,0Z"/><path class="cls-1" d="m68.48,56.9c-3.66,6.76-3.27,13.73-3.7,21.4-2.45,43.86-2.25,89.11,13.64,130.05.03.07-.07.12-.11.06-10.39-14.97-13.84-33.6-16.37-51.66-2.37-16.92-4.18-33.99-3.57-51.06.61-17.07,2.72-33.25,10.12-48.79Z"/></svg>