<?xml version="1.0" encoding="UTF-8"?><svg id="Layer_1" xmlns="http://www.w3.org/2000/svg" viewBox="0 0 212.82 252.65"><defs><style>.cls-1,.cls-2{fill:none;stroke:#000;stroke-miterlimit:10;stroke-width:3px;}.cls-2{opacity:.23;}</style></defs><g id="cutting_board"><path class="cls-1" d="m41.89,216.52l51.97,27.74c23.43,12.5,50.03,7.49,58.18-10.98,7.85-17.79,16.74-36.16,26.84-54.93,9.19-17.07,18.65-33.13,28.2-48.18,10.81-17.05.18-41.95-23.25-54.45l-6.91-3.69c6.74-10.7,13.49-21.41,20.23-32.11,4.85-7.7.76-18.6-8.96-23.9l-8.89-4.85c-.87-.48-1.76-.89-2.65-1.24-9.24-3.64-19.16-.73-22.47,7.06-4.96,11.65-9.92,23.3-14.88,34.96l-7.45-3.98c-23.62-12.61-50.44-7.41-58.34,11.36-7.13,16.93-15.41,34.53-25.04,52.56-9.59,17.95-19.56,34.55-29.62,49.84-11.19,17.01-.59,42.19,23.03,54.79ZM154.45,23.13c2.93-5.48,8.24-8.36,11.88-6.42,3.63,1.94,4.2,7.96,1.27,13.44-2.93,5.48-8.25,8.36-11.88,6.42s-4.2-7.96-1.27-13.44Z"/><path class="cls-1" d="m29,209.64l51.97,27.74c23.43,12.5,50.03,7.49,58.18-10.98,1.06-2.4,2.13-4.81,3.23-7.22,7.04-15.53,14.87-31.47,23.61-47.71,9.19-17.07,18.65-33.13,28.2-48.18,10.81-17.05.18-41.95-23.25-54.45l-6.91-3.69c6.74-10.7,13.49-21.41,20.23-32.11,4.62-7.33,1.13-17.57-7.61-23.11-.44-.27-.89-.54-1.35-.79l-8.89-4.85c-9.91-5.4-21.49-2.72-25.12,5.82-4.96,11.65-9.92,23.3-14.88,34.96l-7.45-3.98c-23.62-12.61-50.44-7.41-58.34,11.36-1.18,2.81-2.4,5.64-3.65,8.49-1.53,3.49-3.1,7-4.73,10.53,0,0,0,.01,0,.02-5.05,10.96-10.58,22.15-16.64,33.52-9.59,17.95-19.56,34.55-29.62,49.84-11.19,17.01-.59,42.19,23.03,54.79ZM154.45,23.13c2.93-5.48,8.24-8.36,11.88-6.42,3.63,1.94,4.2,7.96,1.27,13.44-2.93,5.48-8.25,8.36-11.88,6.42s-4.2-7.96-1.27-13.44Z"/><path class="cls-2" d="m29,209.64l51.97,27.74c23.43,12.5,50.03,7.49,58.18-10.98,1.06-2.4,2.13-4.81,3.23-7.22-31.94,8.06-93-15.9-102.6-60.69-7.03-32.81,5.22-69.42,12.46-87-5.05,10.96-10.58,22.15-16.64,33.52-9.59,17.95-19.56,34.55-29.62,49.84-11.19,17.01-.59,42.19,23.03,54.79Z"/><path class="cls-1" d="m106.62,61.06c-3.06-4.02-8.95-4.07-9.56-4.07-11.88.07-19.09,16.59-33.12,42.67-25.54,47.47-38.53,61.23-31.7,71.02,3.17,4.55,9.56,6.72,14.88,6.22,14.57-1.38,16.68-22.48,39.37-65.2,14.41-27.14,26.27-42.57,20.13-50.64Z"/><path class="cls-1" d="m122.28,78.14c-.26-2.25-2.69-.81-2.94-.66-4.94,3.03-12.05,17.2-24.39,40.26-22.45,41.95-31.27,55.51-30.89,61.14.18,2.62,2.28,2.64,4.61.94,6.38-4.68,12.53-21.01,32.61-58.7,12.76-23.94,21.53-38.47,21-42.98Z"/><path class="cls-1" d="m179.45,108.65c-.26-2.25-2.69-.81-2.94-.66-4.94,3.03-12.05,17.2-24.39,40.26-22.45,41.95-31.27,55.51-30.89,61.14.18,2.62,2.28,2.64,4.61.94,6.38-4.68,12.53-21.01,32.61-58.7,12.76-23.94,21.53-38.47,21-42.98Z"/></g></svg>