<?xml version="1.0" encoding="UTF-8"?><svg id="Layer_1" xmlns="http://www.w3.org/2000/svg" viewBox="0 0 392.65 301.79"><defs><style>.cls-1{opacity:.55;}.cls-1,.cls-2{fill:none;stroke:#000;stroke-miterlimit:10;stroke-width:3px;}</style></defs><g id="pan_3"><path class="cls-2" d="m80.49,57.31l-36.26,148.08c-.38,1.56-.68,3.12-.91,4.68-1.58,10.98.69,21.77,5.9,30.87,6.36,11.14,17.11,19.74,30.54,23.03l142.6,34.92c25.99,6.36,52.21-9.54,58.57-35.53l36.26-148.08L80.49,57.31Z"/><path class="cls-2" d="m49.22,240.94c6.36,11.14,17.11,19.74,30.54,23.03l142.6,34.92c25.99,6.36,52.21-9.54,58.57-35.53l36.26-148.08-17.7-4.33c-2.44,11.3-19.12,88.09-35.74,134.62-2.38,6.65-6.91,18.75-18.52,26.83-13.62,9.48-29.87,8.49-40.6,7.23-40.74-4.77-116.41-26.78-155.42-38.67Z"/><rect class="cls-2" x="184.68" y="24.14" width="48" height="36.4" transform="translate(401.3 133.09) rotate(-166.24)"/><path class="cls-2" d="m74.41,64.03l245.3,60.07c1.12.28,2.26-.41,2.54-1.54h0c5.35-21.83-8.02-43.86-29.85-49.21L122.08,31.65c-21.83-5.35-43.86,8.02-49.21,29.85h0c-.28,1.12.41,2.26,1.54,2.54Z"/><path class="cls-2" d="m74.05,71.41l242.33,59.34c4.09,1,8.21-1.5,9.21-5.59h0c1-4.09-1.5-8.21-5.59-9.21L77.68,56.62c-4.09-1-8.21,1.5-9.21,5.59h0c-1,4.09,1.5,8.21,5.59,9.21Z"/><path class="cls-2" d="m171.77,15.1c-2.91,11.88,13.42,26.1,36.49,31.74,23.06,5.65,44.11.59,47.02-11.29,2.91-11.88-13.42-26.1-36.49-31.74-23.06-5.65-44.11-.59-47.02,11.29Z"/><path class="cls-2" d="m103.73,109.29c5.77,13.08.82,26.81-1.42,33.25-18.06,51.83-16.61,78.92-29.86,80.22-.25.02-4.87.73-7.8-2.45-4.62-5-.05-19.24,9.19-56.82,10.64-43.27,15.84-63.21,22.55-63.01,3.49.1,5.99,5.76,7.33,8.81Z"/><path class="cls-2" d="m123.73,129.94s-17.59,95.18-24.34,89.59c-6.75-5.59,17.95-113.12,24.34-89.59Z"/><path class="cls-2" d="m92.01,44.3s95.18,17.59,89.59,24.34c-5.59,6.75-113.12-17.95-89.59-24.34Z"/><path class="cls-2" d="m195.01,68.92c11.28,0,22.67,4.67,22.29,6.97-.29,1.75-7.47,1.95-10.99,1.78-10.02-.49-19.51-5.4-19.06-7.42.3-1.33,4.88-1.32,7.76-1.32Z"/><path class="cls-2" d="m259.49,157.96s-17.59,95.18-24.34,89.59c-6.75-5.59,17.95-113.12,24.34-89.59Z"/><path class="cls-2" d="m303,140.17s71.64-27.26,86.16-7.28c14.52,19.98-54.22,6.95-85.61,38.06-9.3,1-17.94-.96-20.13-5.71-2.75-5.95,3.86-18,19.58-25.07Z"/><path class="cls-2" d="m283.42,165.25c2.19,4.74,10.83,6.71,20.13,5.71,31.39-31.1,100.13-18.07,85.61-38.05-.03-.05-.07-.09-.11-.14-14.76-19.71-86.05,7.41-86.05,7.41-5.72,2.58-10.24,5.81-13.54,9.17-5.75,5.87-7.79,12.12-6.04,15.9Z"/><path class="cls-2" d="m289.47,149.34c1.94,1.61,4.41,2.63,5.33,3.01,13.51,5.58,24.69-3.51,45.86-10.42,20.9-6.82,38.32-7.24,48.4-9.17-14.76-19.71-86.05,7.41-86.05,7.41-5.72,2.58-10.24,5.81-13.54,9.17Z"/><path class="cls-2" d="m294.21,157.81c-.53,2.16.53,4.35,2.43,5.31.32.17.66.3,1.03.39.37.09.73.13,1.09.13,2.14.02,4.08-1.43,4.61-3.59s-.53-4.35-2.43-5.31c-.32-.17-.66-.3-1.03-.39-.37-.09-.73-.13-1.09-.13-2.14-.02-4.08,1.43-4.61,3.59Z"/><path class="cls-2" d="m298.82,154.22l-2.18,8.9c.32.17.66.3,1.03.39.37.09.73.13,1.09.13l2.18-8.9c-.32-.17-.66-.3-1.03-.39-.37-.09-.73-.13-1.09-.13Z"/><path class="cls-2" d="m78.99,85.31S28.05,28.04,5.94,39.05c-22.11,11.01,44.87,31.21,58.34,73.31,7.78,5.19,16.36,7.43,20.49,4.24,5.19-4.01,4.89-17.74-5.78-31.28Z"/><path class="cls-2" d="m84.77,116.6c-4.13,3.19-12.71.95-20.49-4.24C50.81,70.27-16.17,50.06,5.94,39.05c.05-.02.1-.05.16-.07,22.2-10.66,72.89,46.34,72.89,46.34,3.88,4.93,6.4,9.89,7.77,14.39,2.39,7.87,1.31,14.34-1.99,16.9Z"/><path class="cls-2" d="m86.75,99.7c-2.47.53-5.13.29-6.11.21-14.56-1.29-20.27-14.51-35.86-30.44-15.38-15.71-30.64-24.13-38.69-30.49,22.2-10.66,72.89,46.34,72.89,46.34,3.88,4.93,6.4,9.89,7.77,14.39Z"/><path class="cls-2" d="m78.64,105.02c-.53,2.16-2.48,3.61-4.61,3.59-.36,0-.72-.04-1.09-.13-.37-.09-.71-.22-1.03-.39-1.91-.97-2.96-3.15-2.43-5.31.53-2.16,2.48-3.61,4.61-3.59.36,0,.72.04,1.09.13.37.09.71.22,1.03.39,1.91.97,2.96,3.15,2.43,5.31Z"/><path class="cls-2" d="m76.21,99.7l-2.18,8.9c-.36,0-.72-.04-1.09-.13-.37-.09-.71-.22-1.03-.39l2.18-8.9c.36,0,.72.04,1.09.13.37.09.71.22,1.03.39Z"/><path class="cls-2" d="m204.97,19.09s13.57,5.56,32.4,7.94c2.97.37,10.97-.23,12.08,2.91.55,1.56-.81,3.34-.97,3.55-6.65,8.72-47.55-5.24-46.79-11.75.14-1.24,1.8-2.1,3.27-2.64Z"/><path class="cls-2" d="m185.79,18.13c-.48,1.95,1.82,4.18,5.13,4.99,3.31.81,6.37-.11,6.85-2.06.48-1.95-1.82-4.18-5.13-4.99-3.31-.81-6.37.11-6.85,2.06Z"/><path class="cls-1" d="m174.23,10.27c.58,11.06,15.94,23.19,36.8,28.3,19.63,4.81,37.8,1.85,44.57-6.46.06,1.16-.04,2.32-.32,3.45-2.91,11.88-23.96,16.94-47.02,11.29s-39.4-19.86-36.49-31.74c.43-1.77,1.28-3.38,2.46-4.83Z"/><path class="cls-2" d="m253.35,37.32c2.82-11.51-13-25.27-35.32-30.73-22.33-5.47-42.71-.57-45.53,10.93-.46,1.88-.41,3.82.07,5.77-1.13-2.77-1.45-5.54-.8-8.19,2.91-11.88,23.96-16.94,47.02-11.29,23.06,5.65,39.4,19.86,36.49,31.74-.72,2.94-2.55,5.46-5.25,7.5,1.65-1.66,2.79-3.58,3.32-5.74Z"/></g></svg>