<?xml version="1.0" encoding="UTF-8"?><svg id="Layer_1" xmlns="http://www.w3.org/2000/svg" viewBox="0 0 154.36 304.07"><defs><style>.cls-1{fill:none;stroke:#1d1d1b;stroke-miterlimit:10;stroke-width:3px;}</style></defs><path class="cls-1" d="m62.13,130.41c-7.85-5.84-13.02-14.64-16.6-23.75-3.57-9.11-5.75-18.7-8.86-27.98-4.39-13.07-10.74-25.61-19.69-36.1-4.67-5.48-10.11-10.49-13.25-16.97C.58,19.13.39,10.47,5.61,5.51,9.67,1.65,15.86,1.03,21.41,1.78c4.74.64,9.46,2.18,13.23,5.13,3.88,3.04,6.52,7.35,8.9,11.67,11.37,20.62,18.57,43.23,25.7,65.67,3.51,11.04,7.02,22.08,10.53,33.12.6,1.88,1.19,3.93.52,5.78-.47,1.29-1.5,2.29-2.58,3.13-4.36,3.41-11.16,7.42-15.57,4.13Z"/><path class="cls-1" d="m51.66,99.61c-6.31-19.31-14.36-38.01-23.84-55.97-4.71-8.93-10.28-17.41-14.19-26.74-1.77-4.23-3.33-9.07-3.99-13.95-1.47.62-2.85,1.44-4.03,2.56C.39,10.47.58,19.13,3.73,25.61c3.14,6.48,8.58,11.49,13.25,16.97,8.95,10.49,15.3,23.03,19.69,36.1,3.12,9.28,5.29,18.87,8.86,27.98,3.16,8.05,7.57,15.84,13.97,21.59-2.21-9.65-4.78-19.23-7.85-28.63Z"/><path class="cls-1" d="m79.83,119.73c9.51,14.6,16.38,30.73,23.21,46.76,18.53,43.5,37.11,87.18,49.56,132.79.23.84.44,1.8-.05,2.53-.68,1.01-2.2.86-3.35.47-4.48-1.56-7.96-5.06-11.27-8.45-16.6-17.01-33.24-34.07-47.7-52.93-17.09-22.3-31.01-47.01-41.22-73.18-1.61-4.12-3.12-8.78-1.39-12.85,1.58-3.72,5.4-5.85,8.66-8.25s6.41-6.03,5.61-9.99c-.53-2.6-2.7-5.31-1.32-7.59.53-.88,1.48-1.4,2.38-1.88,5.92-3.15,12.5-6.4,16.88-7.43Z"/><path class="cls-1" d="m74.18,217.44c-7.4-16.51-13.92-34.19-14.19-52.51-.13-9.08,1.42-17.87,5.53-26.02,3.5-6.95,8.92-13.06,16.08-16.34-.59-.95-1.16-1.91-1.77-2.85-4.38,1.02-10.95,4.28-16.88,7.43-.9.48-1.85,1-2.38,1.88-1.38,2.27.79,4.98,1.32,7.59.8,3.96-2.35,7.6-5.61,9.99s-7.08,4.53-8.66,8.25c-1.73,4.07-.21,8.73,1.39,12.85,6.91,17.7,15.51,34.73,25.65,50.79-.16-.36-.33-.71-.49-1.06Z"/><path class="cls-1" d="m96.85,151.52c-4.23,17.06-8.46,34.12-12.69,51.18-1.55,6.23-3.09,12.47-4.14,18.81-.19,1.14-.36,2.31-.19,3.46.23,1.49,1.02,2.82,1.82,4.1,3.12,5.01,6.55,9.83,10.24,14.43-.78-9.99,1.18-19.97,3.13-29.79,2.56-12.93,5.12-25.86,7.69-38.78.46-2.3.91-4.64.7-6.97-.16-1.78-.71-3.5-1.34-5.18-1.51-4.04-3.48-7.91-5.22-11.25Z"/><path class="cls-1" d="m109.15,181.14c-3.61,19.83-7.22,39.66-10.83,59.49-.45,2.5-.91,5.04-.6,7.55.31,2.52,1.5,5.06,3.66,6.37,3.12-20.96,6.24-41.91,9.36-62.87.6-3.99,1.05-8.52-1.59-10.55Z"/><circle class="cls-1" cx="23.83" cy="19.38" r="5.16"/><circle class="cls-1" cx="46.86" cy="62.9" r="5.16"/><circle class="cls-1" cx="62.72" cy="105.68" r="5.16"/><path class="cls-1" d="m19.61,4c2.65-.88,5.62-.28,8.07,1.05,2.45,1.34,4.46,3.35,6.32,5.42,10.08,11.2,17.14,25.11,20.22,39.87.17.82.08,2-.75,2.07-.49.04-.88-.39-1.17-.78-2.6-3.53-4.13-7.71-5.78-11.78-1.66-4.1-3.46-8.13-5.39-12.11-4.13-8.48-9.69-17.32-18.68-20.18-.81-.26-1.66-.47-2.33-.98-.67-.51-1.13-1.43-.83-2.22.31-.79,1.58-1.07.31-.36Z"/><path class="cls-1" d="m59.59,66.41c3.23,9.29,6.28,18.65,9.15,28.06.16.53.23,1.28-.29,1.48-.34.13-.71-.08-1-.3-1.86-1.38-3.41-3.19-4.48-5.24-1.12-2.14-1.72-4.5-2.3-6.85-1.49-6.04-2.87-12.11-4.15-18.2-.17-.83-.03-2.07.82-2.03.4.02.7.36.94.69.92,1.28,1.65,2.71,1.31,2.39Z"/></svg>