<?xml version="1.0" encoding="UTF-8"?><svg id="Layer_1" xmlns="http://www.w3.org/2000/svg" viewBox="0 0 279.65 235.26"><defs><style>.cls-1{opacity:.38;}.cls-1,.cls-2{fill:none;stroke:#000;stroke-miterlimit:10;stroke-width:3px;}</style></defs><g id="cookies"><path class="cls-2" d="m50.05,122.44c-2.96,28.78,6.25,56.15,23.67,77.47,9.36,11.47,21.09,21.19,34.58,28.44.48.26.96.52,1.44.76,7.35,1.17,14.85,2.15,22.32,2.88,5.67.56,11.41.97,17.12,1.26,10.43.53,20.72.64,30.25.4,16.92-.42,31.39-1.95,39.77-4.16.14-.03.26-.07.39-.1,0,0,0,0,.01,0,2.49-1.3,4.93-2.68,7.31-4.16,27.71-17.1,47.22-45.56,50.7-79.35,4.53-43.99-19.41-84.7-57.59-105.55-13.47-7.35-28.7-12.24-45.09-13.93-8.14-.84-16.16-.85-23.97-.1-.11.01-.21.02-.32.03-17.1,1.69-33.19,7.01-47.29,15.21-29.08,16.91-49.7,46.07-53.29,80.9Z"/><path class="cls-2" d="m1.76,121.23c-.17,2.31-.26,4.61-.26,6.9-.04,29.57,13.37,56.89,35.33,76.94,2.02,1.8,4.08,3.57,6.19,5.28.56.42,1.1.85,1.66,1.27,0,.02.02.02.02.02.99.64,2.26,1.33,3.76,2.03t.04.03c5.28,2.42,13.49,5.06,23.57,7.56.04,0,.06,0,.1.03,10.42,2.58,22.85,5.05,36.12,7.06,4,.61,8.08,1.16,12.22,1.67,7.84.98,15.88,1.76,23.85,2.31,6.04.41,12.15.67,18.22.8,8.89-2.06,24.32-6.86,39.13-18.87,1.43-1.15,2.83-2.36,4.24-3.64,30.89-28.33,31.26-67.81,31.14-75.85-.25-16.6-4.67-31.82-11.67-45.3-8.14-15.69-19.84-29.04-32.66-39.58-9.97-8.19-20.63-14.66-30.85-19.19-2.97-1.32-6.61-2.9-10.97-4.39-5.5-1.88-12.15-3.6-20.01-4.39-18.59-1.85-38.95,2.01-57.91,10.31C36.18,48.33,4.63,81.14,1.76,121.23Z"/><path class="cls-2" d="m61.89,83.31c1.67,15.78-8.26,28.85-10.4,46.22-2.82,22.86,10.44,32.2,1.92,48.79-1.07,2.08-5.01,9.75-11.02,10.15-6.32.42-11.48-7.42-13.51-10.5-19.26-29.28-2.79-111.19,15.71-112.06,3.54-.17,9.84,2.51,13.58,7.36,2.76,3.59,3.47,7.53,3.73,10.04Z"/><path class="cls-2" d="m187.57,197.95c16.91-10.06,24.25-44.32,20.3-71.59-.92-6.36-4.02-27.76-16.84-35-2.2-1.24-4.55-2.57-6.23-1.29-6.24,4.78,12.18,33.94,6.87,67.44-3.54,22.28-16.18,37.72-12.4,41.93,2.01,2.24,6.92-.68,8.3-1.49Z"/><path class="cls-2" d="m82.77,79.06c-5.99,4.91-10.31,15.14-12.61,49.47-2.85,42.51,1.59,59.32,6.28,62.7.53.38,2.03,1.46,3.19.73,2.71-1.7,1.25-11.74.87-14.82-3.3-26.79,7.61-74.98,10.81-89.14.63-2.76,2.29-9.87-.01-11.9-2.37-2.1-7.71,2.28-8.54,2.96Z"/><path class="cls-2" d="m73.01,32.23c10.8,3.72,20.9,6.79,30.33,9.32,41.69,11.17,70.3,11.57,89.42,8.34,13.25-2.23,21.94-6.22,27.25-9.56-13.47-7.35-28.7-12.24-45.09-13.93-8.14-.84-16.16-.85-23.97-.1-5.5-1.89-12.15-3.6-20.02-4.39-18.59-1.85-38.96,2.02-57.92,10.32Z"/><ellipse class="cls-2" cx="145.08" cy="29.61" rx="13.16" ry="67.32" transform="translate(100.76 170.9) rotate(-84.12)"/><path class="cls-2" d="m212.03,36.72l1.37-13.31L79.46,9.62l-1.37,13.31s93.48,24.81,133.94,13.79Z"/><path class="cls-2" d="m79.48,9.41c-.74,7.23,28.63,16.18,65.62,19.99,36.98,3.81,67.57,1.03,68.32-6.2.42-4.08-8.77-8.72-23.53-12.66-11.36-3.04-26.01-5.67-42.09-7.33-23.21-2.39-43.91-2.19-56.29.09-7.34,1.34-11.75,3.42-12.03,6.11Z"/><path class="cls-2" d="m91.51,3.3c14.81,12.37,41.73,17.92,47.71,14.89,8.13-4.13,23.69,2.64,36.43,1.13,5.57-.66,10.47-4.57,14.24-8.77-11.36-3.04-26.01-5.67-42.09-7.33-23.21-2.39-43.91-2.19-56.29.09Z"/><path class="cls-2" d="m221.47,68.28c-4.18,5.98,13.15,16.94,19.17,36.92,5.88,19.54-2.64,35.81,6.53,41.6.95.6,2.19,1.38,3.51,1.02,7.58-2.08,10.04-39.87-7.43-64.73-2.3-3.27-11.35-18.44-18.74-16.72-.36.08-2.05.48-3.04,1.9Z"/><path class="cls-2" d="m239.81,160.06s-5.62,28.23-18.93,42.5c-13.31,14.28,4.22,12.8,14.23-4.04,11.3-19.02,17.47-41.42,12.6-44-1.37-.73-4.24-.15-5.96,1.44-1.43,1.32-1.82,3.12-1.95,4.1Z"/><path class="cls-1" d="m1.5,128.13c-.04,29.57,13.37,56.89,35.33,76.94,2.02,1.8,4.08,3.57,6.19,5.28.56.42,1.1.85,1.66,1.27,0,.02.02.02.02.02.99.64,2.26,1.33,3.76,2.03t.04.03c5.28,2.42,13.49,5.06,23.57,7.56.04,0,.06,0,.1.03,10.42,2.58,22.85,5.05,36.12,7.06,4,.61,8.08,1.16,12.22,1.67,7.84.98,15.88,1.76,23.85,2.31,6.04.41,12.15.67,18.22.8,8.89-2.06,24.32-6.86,39.13-18.87,1.43-1.15,2.83-2.36,4.24-3.64,30.89-28.33,31.26-67.81,31.14-75.85-.25-16.6-4.67-31.82-11.67-45.3-.35,25.37-7.31,87.96-66.94,102.34-56.57,13.64-126.01-37.47-156.98-63.67Z"/></g></svg>