<?xml version="1.0" encoding="UTF-8"?><svg id="Layer_1" xmlns="http://www.w3.org/2000/svg" viewBox="0 0 466.63 160.85"><defs><style>.cls-1{opacity:.55;}.cls-1,.cls-2{fill:none;stroke:#000;stroke-miterlimit:10;stroke-width:3px;}</style></defs><g id="pan"><path class="cls-2" d="m212.33,89.8s-61.33-34.22-77.6-18.58c-16.27,15.63,48.48,13.79,72.47,45.74,8.34,2.2,16.53,1.68,19.25-2.21,3.41-4.88-.82-16.47-14.11-24.94Z"/><path class="cls-2" d="m226.44,114.74c-2.72,3.88-10.91,4.41-19.25,2.21-23.99-31.94-88.74-30.1-72.47-45.74.04-.04.08-.07.12-.11,16.45-15.36,77.48,18.69,77.48,18.69,4.84,3.09,8.48,6.58,10.98,10.02,4.37,6.01,5.29,11.82,3.13,14.92Z"/><path class="cls-2" d="m223.31,99.82c-2.02,1.15-4.43,1.7-5.32,1.91-13.18,3.03-22.02-6.58-40.32-15.69-18.06-8.98-33.92-11.81-42.83-14.93,16.45-15.36,77.48,18.69,77.48,18.69,4.84,3.09,8.48,6.58,10.98,10.02Z"/><path class="cls-2" d="m217.71,106.64c.16,1.99-1.13,3.77-3.02,4.36-.32.1-.65.17-.99.2s-.69.02-1.01-.04c-1.96-.28-3.51-1.84-3.67-3.83-.16-1.99,1.13-3.77,3.02-4.36.32-.1.65-.17.99-.2.35-.03.69-.02,1.01.04,1.96.28,3.51,1.84,3.67,3.83Z"/><path class="cls-2" d="m214.04,102.81l.65,8.18c-.32.1-.65.17-.99.2s-.69.02-1.01-.04l-.65-8.18c.32-.1.65-.17.99-.2.35-.03.69-.02,1.01.04Z"/><path class="cls-2" d="m3.24,69.77c12.23,18.91,120.01,17.5,149.11,16.9.99-6.3,1.98-12.6,2.97-18.9-38.38-9.86-70.16-12.77-92.69-13.5-16.79-.54-58.15-1.88-60.99,9.42-.65,2.62.96,5.12,1.59,6.09Zm10.16-8.31c0-2.41,6.31-4.38,14.1-4.38,7.79,0,14.11,1.94,14.11,4.35,0,2.41-6.31,4.38-14.1,4.38-7.79,0-14.11-1.94-14.11-4.35Z"/><path class="cls-2" d="m1.65,63.68c.43-1.71,1.74-3.13,3.72-4.31.18.31.35.56.47.76,12.08,18.68,117.43,17.53,148.03,16.92-.5,3.2-1.01,6.41-1.51,9.62-29.11.6-136.88,2.01-149.11-16.9-.63-.97-2.24-3.47-1.59-6.09Z"/><path class="cls-2" d="m97.5,60.44s-49.6-6.56-51.15-.66c-1.55,5.9,24.01,5.97,42.88,6.57,18.87.6,19.25-3.11,8.27-5.91Z"/><path class="cls-2" d="m113.19,63.04s18.96,1.19,18.5,3.92c-.46,2.73-33.02-.07-18.5-3.92Z"/><path class="cls-2" d="m464.94,67.42c-1.52,12.34-5.66,30.39-18.04,47.31-29.48,40.31-82.47,42.9-112.85,44.37-51.23,2.48-105.51-13.39-124.82-39.03-16.62-22.07-20.92-47.05-20.92-47.05-.41-2.37-.66-4.33-.8-5.6h277.43Z"/><path class="cls-2" d="m313.79,148.05c30.38-1.47,83.37-4.06,112.85-44.37,9.06-12.38,13.7-25.36,16.14-36.27h22.15c-1.52,12.34-5.66,30.39-18.04,47.31-29.48,40.31-82.47,42.9-112.85,44.37-41.78,2.02-85.58-8.16-110.8-25.89,25.14,10.75,58.44,16.4,90.55,14.84Z"/><path class="cls-2" d="m187.77,70.25s0,0,0,0c4.51,23.59,64.77,42.26,138.44,42.26,60.53,0,137.35-19.93,138.72-45.1.24-4.42-1.81-9.73-13.81-20.07-5.95-5.12-31.2-26-78.17-35.21-14.78-2.9-31.72-4.64-50.88-4.37,0,0-79.87,1.12-123.34,41.79-.48.45-1.08,1.01-1.75,1.66-4.06,3.98-10.72,11.48-9.21,19.03Z"/><ellipse class="cls-2" cx="326.31" cy="35.75" rx="24.85" ry="8.65"/><path class="cls-2" d="m311.59,34.71c.93.9,7.05,6.65,16.01,5.83,6.22-.57,10.32-3.98,11.7-5.25.15-7,.3-14.01.44-21.01l-27.71-.58-.44,21.01Z"/><path class="cls-2" d="m301.45,13.78c-.15,7.06,10.84,13.02,24.55,13.31,13.71.29,24.94-5.2,25.09-12.27.15-7.06-10.84-13.02-24.55-13.31-13.71-.29-24.94,5.2-25.09,12.27Z"/><path class="cls-2" d="m320.66,11.86s8.35,1.43,19.26.41c1.72-.16,6.15-1.51,7.17.12.51.81-.04,1.99-.1,2.12-2.65,5.75-27.46,3.01-27.85-.75-.07-.72.75-1.41,1.51-1.9Z"/><path class="cls-2" d="m256.91,111.78s15.71,5.04,37.03,6.03c3.37.16,12.28-1.23,13.8,2.19.76,1.7-.61,3.82-.77,4.06-6.68,10.36-53.77-1.67-53.49-9.03.05-1.41,1.83-2.51,3.44-3.25Z"/><path class="cls-2" d="m309.73,13.72c-.02,1.16,1.55,2.13,3.51,2.17,1.97.04,3.58-.86,3.6-2.02.02-1.16-1.55-2.13-3.51-2.17-1.97-.04-3.58.86-3.6,2.02Z"/><path class="cls-2" d="m231.64,109.21c-.43,1.96,3.25,4.43,8.23,5.53,4.98,1.09,9.36.39,9.79-1.56.43-1.96-3.25-4.43-8.23-5.53-4.98-1.09-9.36-.39-9.79,1.56Z"/><path class="cls-1" d="m302.23,10.74c1.72,6.16,11.89,11.07,24.29,11.33,11.67.25,21.54-3.7,24.31-9.23.18.65.27,1.31.25,1.98-.15,7.06-11.38,12.56-25.09,12.27-13.71-.29-24.7-6.25-24.55-13.31.02-1.05.29-2.07.78-3.03Z"/><path class="cls-2" d="m350.22,16.06c.14-6.84-10.5-12.61-23.77-12.89-13.27-.28-24.15,5.04-24.29,11.88-.02,1.12.25,2.2.76,3.25-.98-1.42-1.51-2.94-1.48-4.52.15-7.06,11.38-12.56,25.09-12.27,13.71.29,24.7,6.25,24.55,13.31-.04,1.75-.75,3.4-2.02,4.89.72-1.15,1.13-2.37,1.15-3.65Z"/><path class="cls-2" d="m187.77,70.25s0,0,0,0c4.51,23.59,64.77,42.26,138.44,42.26,60.53,0,137.35-19.93,138.72-45.1.24-4.42-1.81-9.73-13.81-20.07-5.95-5.12-31.2-26-78.17-35.21h0s78.72,38.34,15.58,65.21c-63.14,26.88-172.5,7-189.99-23.38-.54-.94-1.06-1.86-1.56-2.76-4.06,3.98-10.72,11.48-9.21,19.03Z"/><path class="cls-2" d="m444.69,51.22c.32-5.24-5.33-9.65-16.2-16.38-31.37-19.42-42.14-18.43-46.94-17.49-2.63.51-6.04,1.22-6.63,3.31-.88,3.1,4.97,7.34,28.72,20.99,25.98,14.93,33.93,18.44,38.29,15.1,2.49-1.91,2.74-5.24,2.76-5.52Z"/><path class="cls-2" d="m268.48,27.26c-4.66-.47-12.31-.34-27.05,7.03-13.88,6.94-27.77,13.88-27.96,23.96-.06,3.45,1.48,7.7,4.61,9.38,5.09,2.72,12.26-2.44,20.61-7.94,29.02-19.1,43.3-23.11,41.94-28.03-.9-3.26-7.86-3.97-12.16-4.4Z"/><path class="cls-2" d="m286.42,42.51c-3.46-.52-8,.3-15.09,6.07-11.37,9.24-22.27,25.49-19.08,28.63,4.97,4.9,44.28-22.23,40.97-31.07-1.04-2.77-6.2-3.54-6.8-3.63Z"/></g></svg>