<?xml version="1.0" encoding="UTF-8"?><svg id="Layer_1" xmlns="http://www.w3.org/2000/svg" viewBox="0 0 140.28 335.8"><defs><style>.cls-1{fill:none;stroke:#000;stroke-miterlimit:10;stroke-width:3px;}</style></defs><g id="scapula2"><path class="cls-1" d="m1.56,302.66c-.77,4.62,6.2,10.08,18.1,15.18,8.25,3.53,18.87,6.88,30.92,9.65,3.04.7,6.18,1.37,9.39,1.99,2.42.47,4.89.91,7.4,1.33,3.74.62,7.41,1.16,11.01,1.61,3.78.48,7.46.86,11.03,1.15,10.85.9,20.63.97,28.57.27,12.17-1.07,20.01-3.94,20.75-8.41.91-5.48-9.05-12.14-25.2-17.96-8.49-3.06-18.68-5.89-29.9-8.2-3.48-.72-7.05-1.38-10.7-1.99l-.48-.08c-6.31-1.04-12.46-1.83-18.32-2.39-3.14-.3-6.21-.54-9.17-.71-11.55-.66-21.61-.31-29.13.95-8.42,1.42-13.66,3.99-14.26,7.6Zm105.57,17.52c.27-1.6,3.79-2.38,8.21-1.94.58.06,1.17.13,1.77.23,5.21.87,9.2,3.03,8.9,4.84-.29,1.75-4.5,2.53-9.51,1.78-.16-.02-.32-.05-.47-.07-5.21-.87-9.2-3.03-8.9-4.84Zm-24.65,3.03c.19-1.16,2.11-1.89,4.84-2.04,1.51-.08,3.28.02,5.14.33,5.21.87,9.2,3.03,8.9,4.84-.3,1.81-4.77,2.57-9.98,1.71-1.06-.18-2.07-.41-3.01-.68-3.65-1.06-6.13-2.73-5.89-4.16Zm2.56-15.41s0-.05.02-.08c.42-1.75,4.83-2.48,9.97-1.63,5.21.87,9.2,3.03,8.9,4.84-.3,1.81-4.77,2.57-9.98,1.71-4.36-.72-7.86-2.36-8.71-3.93-.17-.31-.23-.61-.19-.91Zm-10.32,2.9c-1.28,0-2.69-.11-4.16-.35-5.21-.87-9.2-3.03-8.9-4.84.3-1.81,4.77-2.57,9.98-1.71.68.11,1.34.25,1.98.4,4.21,1.02,7.18,2.87,6.92,4.44-.22,1.3-2.58,2.06-5.83,2.06Zm-18.31,5.02c.08-.47.45-.88,1.04-1.2,1.67-.9,5.1-1.15,8.94-.51,5.21.87,9.2,3.03,8.9,4.84-.3,1.81-4.77,2.57-9.98,1.71-3.04-.5-5.66-1.45-7.26-2.52-1.15-.76-1.76-1.58-1.64-2.33Zm-9.65-10.94c-4.54-.98-7.84-2.94-7.57-4.59.23-1.38,2.89-2.15,6.45-2.05,1.11.03,2.3.14,3.53.35,2.27.38,4.32,1,5.87,1.74,2.01.95,3.2,2.09,3.03,3.1-.12.74-.94,1.3-2.23,1.65-1.85.51-4.67.57-7.76.05-.45-.07-.9-.16-1.33-.26Zm-17.06,9.67c.3-1.81,4.77-2.57,9.98-1.71,5.21.87,9.2,3.03,8.9,4.84-.3,1.81-4.77,2.57-9.98,1.71-5.21-.87-9.2-3.03-8.9-4.84Zm-17.15-13.54c.17-1.03,1.7-1.72,3.94-1.97,1.69-.19,3.8-.11,6.04.26,5.21.87,9.2,3.03,8.9,4.84-.3,1.81-4.77,2.57-9.98,1.71-1.44-.24-2.79-.58-3.97-.98-3.11-1.06-5.14-2.56-4.92-3.86Z"/><path class="cls-1" d="m7.93,304.64c11.07-26.75,27.19-50.39,47.9-70.27,8.23-7.9,17.23-15.22,26.8-21.8,8.4,10.09,15.84,20.87,22.15,32.09,13.47,23.96,21.91,49.96,25.09,77.28l6.32-.73c-3.27-28.16-11.98-54.96-25.86-79.66-6.96-12.39-15.27-24.26-24.69-35.28l-1.84-2.15-2.35,1.57c-10.75,7.19-20.85,15.3-30.02,24.1-21.36,20.49-37.97,44.86-49.38,72.43l5.88,2.43Z"/><path class="cls-1" d="m101.1,10c-3.7,27.04-7.4,54.09-11.09,81.13-5.3,38.76-10.6,77.53-15.91,116.29-.72,5.28,2.89,10.17,8.14,11.04,5.26.87,10.25-2.6,11.27-7.83l22.48-116.12,15.41-79.63c1.06-5.49-2.65-10.75-8.17-11.59-3.63-.56-7.26-1.11-10.9-1.67-5.43-.83-10.49,2.95-11.23,8.39Zm17.36,22.45c-1.48,8.94-4.84,15.82-7.5,15.38-2.66-.44-3.61-8.04-2.13-16.98,1.48-8.94,4.84-15.82,7.5-15.38,2.66.44,3.61,8.04,2.13,16.98Z"/><path class="cls-1" d="m107.3,43.66c-2.66-.44-3.61-8.04-2.13-16.98,1.48-8.94,4.84-15.82,7.5-15.38,1.2.2,2.05,1.85,2.49,4.42-2.41,1.33-5.05,7.47-6.33,15.13-.82,4.91-.89,9.42-.36,12.56-.4.22-.8.31-1.18.25Z"/><path class="cls-1" d="m78.57,214.29c5.26.87,10.25-2.6,11.27-7.83l22.48-116.12,15.41-79.63c.41-2.12.1-4.21-.74-6.02,3.31,2.1,5.2,6.08,4.4,10.19l-15.41,79.63-22.48,116.12c-1.01,5.23-6.01,8.71-11.27,7.83-3.32-.55-5.98-2.71-7.31-5.56,1.08.68,2.31,1.17,3.65,1.39Z"/><path class="cls-1" d="m101.1,10c-3.7,27.04-7.4,54.09-11.09,81.13,2.56.44,5.17.85,7.82,1.24,6.26.92,12.32,1.62,18.15,2.13l15.41-79.63c1.06-5.49-2.65-10.75-8.17-11.59-3.63-.56-7.26-1.11-10.9-1.67-5.43-.83-10.49,2.95-11.23,8.39Zm7.73,20.85c1.48-8.94,4.84-15.82,7.5-15.38,2.66.44,3.61,8.04,2.13,16.98-1.48,8.94-4.84,15.82-7.5,15.38-2.66-.44-3.61-8.04-2.13-16.98Z"/><path class="cls-1" d="m95.8,126.08c-2.05,13.05-2.9,20.87-7.19,22.23-.44.14-1.03.32-1.61.06-2.77-1.21-.54-9.94,1.86-25.82,2.38-15.72,2.72-23.88,6.91-24.99.36-.09,1.19-.32,2,.07,3.08,1.48,1.01,9.46-1.97,28.44Z"/><path class="cls-1" d="m103.35,73.26c-1.56,9.92-2.2,15.87-5.47,16.9-.33.11-.78.24-1.22.05-2.1-.92-.41-7.55,1.42-19.63,1.81-11.95,2.07-18.16,5.25-19,.27-.07.91-.24,1.52.06,2.34,1.13.77,7.19-1.5,21.62Z"/><path class="cls-1" d="m81.6,173.42c-1.68,10.11-2,18.47-.73,18.69,1.28.21,3.67-7.81,5.35-17.92,1.68-10.11,2-18.47.73-18.69-1.28-.21-3.67,7.81-5.35,17.92Z"/><path class="cls-1" d="m106.72,47.13c-2.66-.44-3.61-8.04-2.13-16.98,1.48-8.94,4.84-15.82,7.5-15.38.76.13,1.38.84,1.85,2-2.03,2.37-4.05,7.7-5.11,14.08-1.06,6.38-.87,12.08.28,14.98-.81.95-1.63,1.42-2.39,1.3Z"/><path class="cls-1" d="m93.59,91.67c6.26.92,12.32,1.62,18.15,2.13l15.41-79.63c.99-5.14-2.2-10.09-7.16-11.38,1.08.16,2.15.33,3.23.49,5.52.84,9.23,6.11,8.17,11.59l-15.41,79.63c-5.84-.52-11.89-1.22-18.15-2.13-2.65-.39-5.26-.8-7.82-1.24,0,0,0,0,0,0,1.19.19,2.38.37,3.58.55Z"/><path class="cls-1" d="m103.91,310.94c-.3,1.81-4.77,2.57-9.98,1.71-4.36-.72-7.86-2.36-8.71-3.93l2.1,12.46c1.51-.08,3.28.02,5.14.33,5.21.87,9.2,3.03,8.9,4.84-.3,1.81-4.77,2.57-9.98,1.71-1.06-.18-2.07-.41-3.01-.68l1.04,6.18c10.85.9,20.63.97,28.57.27l-1.47-8.74c-.16-.02-.32-.05-.47-.07-5.21-.87-9.2-3.03-8.9-4.84.27-1.6,3.79-2.38,8.21-1.94l-1.81-10.77c-8.49-3.06-18.68-5.89-29.9-8.2l1.42,8.46c.42-1.75,4.83-2.48,9.97-1.63,5.21.87,9.2,3.03,8.9,4.84Z"/><path class="cls-1" d="m58.06,303.33c-.12.74-.94,1.3-2.23,1.65l1.61,9.54c1.67-.9,5.1-1.15,8.94-.51,5.21.87,9.2,3.03,8.9,4.84-.3,1.81-4.77,2.57-9.98,1.71-3.04-.5-5.66-1.45-7.26-2.52l1.92,11.43c2.42.47,4.89.91,7.4,1.33,3.74.62,7.41,1.16,11.01,1.61l-3.66-21.71c-1.28,0-2.69-.11-4.16-.35-5.21-.87-9.2-3.03-8.9-4.84.3-1.81,4.77-2.57,9.98-1.71.68.11,1.34.25,1.98.4l-1.18-7c-6.31-1.04-12.46-1.83-18.32-2.39l.91,5.41c2.01.95,3.2,2.09,3.03,3.1Z"/><path class="cls-1" d="m31.42,304.05c-.3,1.81-4.77,2.57-9.98,1.71-1.44-.24-2.79-.58-3.97-.98l2.2,13.06c8.25,3.53,18.87,6.88,30.92,9.65l-3.82-22.71c-4.54-.98-7.84-2.94-7.57-4.59.23-1.38,2.89-2.15,6.45-2.05l-.68-4.04c-11.55-.66-21.61-.31-29.13.95l.66,3.89c1.69-.19,3.8-.11,6.04.26,5.21.87,9.2,3.03,8.9,4.84Zm-1.73,10.4c.3-1.81,4.77-2.57,9.98-1.71,5.21.87,9.2,3.03,8.9,4.84-.3,1.81-4.77,2.57-9.98,1.71-5.21-.87-9.2-3.03-8.9-4.84Z"/></g></svg>