<?xml version="1.0" encoding="UTF-8"?><svg id="Layer_1" xmlns="http://www.w3.org/2000/svg" viewBox="0 0 201.08 261.97"><defs><style>.cls-1{fill:none;stroke:#1d1d1b;stroke-miterlimit:10;stroke-width:3px;}</style></defs><path class="cls-1" d="m134.35,27.31c-.27-2.03-.32-4.09-.13-6.13.05-.57.13-1.17.48-1.63.39-.51,1.04-.74,1.66-.93,3.41-.99,7.04-1.22,10.55-.69.58.09,1.2.2,1.75,0,.48-.17.85-.55,1.22-.9,1.64-1.54,3.65-2.68,5.81-3.3,1.01-.29,2.22-.43,3,.29.62.57.73,1.49.81,2.33.37,4.03.74,8.06,1.11,12.08-2.54.1-5.09.19-7.63.29-6.53.25-13.2.48-18.63-1.41Z"/><path class="cls-1" d="m59.54,33.68c-15.08.6-30.11,2.48-44.88,5.6-5.62,1.19-12.3,3.7-13.09,9.39-.31,2.28.47,4.55,1.29,6.69,5.18,13.56,12.42,26.34,21.38,37.76.58.74,1.27,1.53,2.2,1.62,1.26.12,2.23-1.06,2.93-2.11,12.32-18.51,22.9-38.18,30.17-58.95Z"/><path class="cls-1" d="m48.68,34.34c-4.86,4.03-8.01,9.97-11.35,15.2-3.57,5.59-7.95,11.1-13.84,14.39-4.82,2.69-10.7,3.76-16,2.19,4.58,9.57,10.19,18.65,16.74,27,.58.74,1.27,1.53,2.2,1.62,1.26.12,2.23-1.06,2.93-2.11,12.32-18.51,22.9-38.18,30.17-58.95-3.62.15-7.25.37-10.86.66Z"/><path class="cls-1" d="m64.43,30.6c-1.84-2.8-3.72-5.69-4.44-8.96-.72-3.27-.05-7.08,2.52-9.23,1.48-1.24,3.41-1.8,5.29-2.22,16.18-3.6,34.01.98,49.07-5.96,3.18-1.47,6.61-3.47,9.96-2.44,3.83,1.18,5.48,6.02,4.53,9.91-.95,3.89-3.76,7.02-6.47,9.96-1.7,1.84-3.48,3.75-5.83,4.62-1.34.5-2.79.63-4.22.72-6.02.41-12.06.38-18.07-.08-5.88-.45-11.77-1.31-17.64-.78-4.81.44-9.53,1.83-14.69,4.46Z"/><path class="cls-1" d="m116.6,27.48c15.41-2.32,31.16-2.36,46.59-.11,7.12,1.04,14.84,2.97,19.04,8.81,2.45,3.4,3.33,7.67,3.97,11.81,3.89,25.35.95,51.22-2.88,76.57-.39,2.59-1.24,5.7-3.78,6.34-2.06.52-4.04-.95-5.67-2.32-6.01-5.09-12.36-10.72-14.15-18.39-.88-3.74-.57-7.64-.22-11.46,1.03-11.13,2.44-22.22,4.23-33.24.93-5.76,1.71-12.45-2.29-16.7-3.34-3.55-8.82-3.97-13.66-3.39-4.84.58-9.72,1.93-14.51,1.02-9.44-1.79-15.02-11.34-16.66-18.93Z"/><path class="cls-1" d="m176.72,90.37c-.78-4.58-1.33-9.23-1.69-13.87-.35-4.44-.73-7.59-1.49-11.78-.42-2.33-.93-4.64-1.62-6.91-.56-1.84-1.23-3.58-1.8-4.77-1.79-3.75-3.68-6.22-6.84-8.91-2.01-1.71-6-3.82-8.78-4.92-3.59-1.41-7.26-2.59-10.86-3.97-5.8-2.22-11.45-4.81-15.87-9.04-3.74.29-7.47.71-11.17,1.27,1.64,7.59,7.22,17.15,16.66,18.93,4.79.91,9.67-.44,14.51-1.02,4.84-.58,10.33-.16,13.66,3.39,3.99,4.25,3.22,10.94,2.29,16.7-1.79,11.03-3.2,22.12-4.23,33.24-.35,3.82-.66,7.72.22,11.46,1.8,7.67,8.14,13.3,14.15,18.39,1.62,1.37,3.6,2.84,5.67,2.32,2.54-.64,3.39-3.75,3.78-6.34.66-4.38,1.29-8.78,1.87-13.18-4.72-5.94-7.18-13.47-8.47-21.02Z"/><path class="cls-1" d="m190.23,237.09c9.83-66.25-4.85-141.43-46.78-193.66-5.45-6.79-11.44-13.43-19.12-17.55-11.84-6.35-26.07-5.91-39.42-4.4-7.3.83-14.7,1.97-21.35,5.1-8.7,4.11-15.52,11.37-21.15,19.16-13.62,18.83-21.4,41.39-25.31,64.3-3.91,22.9-4.12,46.27-3.76,69.5.37,23.56,1.32,47.11,2.97,70.63,12.08,6.62,26.81,4.94,40.5,3.39,18.25-2.07,36.57-3.58,54.91-4.52,24.52-1.27,45.05,3.59,68.83-2.52,4.89-1.26,8.92-4.4,9.67-9.44Z"/><path class="cls-1" d="m192.97,226.57c-56.83-2.38-113.59,4.5-170.06,11.36-3.02.37-6.12.76-8.83,2.14-5.6,2.87-8.44,10.18-6.25,16.08.46,1.23,1.16,2.45,2.3,3.1.93.53,2.04.63,3.12.7,9.27.63,18.57.59,27.86.33,8.89-.24,17.78-.68,26.66-1.12,37.49-1.85,75.02-3.69,112.31-7.98,6.34-.73,13.38-1.92,17.22-7.02,4.26-5.66,2.44-17.32-4.33-17.61Z"/><path class="cls-1" d="m126.13,1.88c-5.09-.19-9.79,2.44-14.61,4.09-14.11,4.85-29.82,1.43-44.36,4.82-1.78.41-3.6.96-5.02,2.11-.6.49-1.14,1.39-.62,1.97.2.22.5.31.8.37,1.56.3,3.16-.14,4.71-.5,9.55-2.25,19.49-1.9,29.3-2.24,9.81-.34,19.92-1.48,28.46-6.32.94-.53,1.92-1.19,2.25-2.22.33-1.03-.47-2.41-.9-2.08Z"/><path class="cls-1" d="m80.41,76c2.13,35.37,4.25,70.74,6.38,106.11.44,7.28.88,14.58,1.96,21.79.5,3.38,1.24,6.93,3.54,9.45,3.68,4.05,9.95,4.1,15.4,3.53,1.59-.17,3.35-.45,4.32-1.72.78-1.02.83-2.4.84-3.68.13-18.3-1.65-36.54-3.44-54.75-2.91-29.72-5.82-59.44-8.73-89.17-.3-3.07-.69-6.35-2.68-8.71-3.86-4.56-11.97-2.76-15.33,2.19-3.35,4.94-2.48,11.44-2.27,14.96Z"/><path class="cls-1" d="m171.18,31.45c3.22-.28,6.29,1.81,8.07,4.51,1.77,2.71,2.49,5.95,3.08,9.14,1.86,9.99,2.85,20.14,2.93,30.31.01,1.48-.06,3.12-1.1,4.18-1.9-.47-2.85-2.58-3.35-4.48-1.72-6.61-1.15-13.56-1.46-20.38-.3-6.82-1.72-14.05-6.49-18.93-.78-.8-1.69-1.62-1.82-2.73-.12-1.11,1.23-2.29.12-1.62Z"/><path class="cls-1" d="m4.74,49.44c1.78,5.26,4.57,10.17,8.17,14.39,2.06-5.44.23-12.12-4.32-15.74-.73-.58-1.64-1.11-2.53-.87-.9.23-1.5,1.68-1.31,2.22Z"/><path class="cls-1" d="m47.66,51.91c-16.82,27.5-26.51,59.31-27.88,91.52-.36,8.4-.16,16.81.11,25.21.35,10.82.81,21.65,1.88,32.42.51,5.15,1.18,10.36,3.16,15.14.82,1.97,1.92,3.93,3.69,5.12,1.77,1.19,4.35,1.39,5.95-.02,1.73-1.53,1.72-4.19,1.56-6.49-1.63-23.52-4.67-46.98-4.63-70.55.04-23.58,3.3-47.59,13.61-68.79,2.45-5.05,5.3-9.93,7.19-15.22.79-2.21,1.39-4.67.55-6.86-.85-2.19-3.81-3.73-5.19-1.47Z"/><path class="cls-1" d="m168.62,119.76c6.9,28.24,13.54,56.62,16.94,85.49.5,4.2.82,8.82-1.59,12.29-1.18,1.7-3.27,3.03-5.27,2.48-2.37-.65-3.36-3.42-3.88-5.83-2.37-11.01-2.58-22.34-3.4-33.57-1.17-16.03-3.62-31.96-7.31-47.6-1.27-5.38-2.68-11.1-.88-16.34.24-.69.56-1.4,1.16-1.81,1.1-.75,2.7-.16,3.5.91.79,1.07.36,2.48.73,3.98Z"/><path class="cls-1" d="m148.14,66.78c6.01,9.46,10.84,19.67,14.36,30.32.7,2.12,1.22,4.8-.43,6.32-1.14,1.05-2.98,1.04-4.35.32-1.38-.71-2.37-1.99-3.18-3.31-1.33-2.17-2.3-4.54-3.25-6.89-3.24-7.99-6.48-15.99-9.04-24.22-.68-2.2-1.06-5.13.91-6.32,1.26-.76,2.95-.32,4.07.64,1.11.95,1.78,2.32.93,3.15Z"/><path class="cls-1" d="m92.63,68.48c-3.55.29-7.08.74-10.63,1.01-.44.06-.99-.09-1.29.31-1.06,2.16,3.96.73,5.01.83,2.44-.29,4.95-.39,7.36-.78.7-.35.31-1.49-.45-1.37Z"/><path class="cls-1" d="m93.69,86.55c-3.55.29-7.08.74-10.63,1.01-.44.06-.99-.09-1.29.31-1.06,2.16,3.96.73,5.01.83,2.44-.29,4.95-.39,7.36-.78.7-.35.31-1.49-.45-1.37Z"/><path class="cls-1" d="m96.79,139.46c-3.55.29-7.08.74-10.63,1.01-.44.06-.99-.1-1.29.31-1.06,2.16,3.96.73,5.01.83,2.44-.29,4.95-.39,7.36-.78.7-.35.31-1.49-.45-1.37Z"/><path class="cls-1" d="m97.9,158.64c-3.55.29-7.08.74-10.63,1.01-.44.07-.99-.1-1.29.31-1.06,2.16,3.96.73,5.01.83,2.44-.29,4.95-.39,7.36-.78.7-.35.31-1.49-.45-1.37Z"/><path class="cls-1" d="m99.07,178.92c-3.55.29-7.08.74-10.63,1.01-.44.06-.99-.1-1.29.31-1.06,2.16,3.96.73,5.01.83,2.44-.29,4.95-.39,7.36-.78.7-.35.31-1.49-.45-1.37Z"/><path class="cls-1" d="m101.12,201.33c-3.51.58-6.99,1.32-10.51,1.88-.43.1-.99-.01-1.26.42-.88,2.24,4.01.4,5.06.41,2.41-.49,4.91-.8,7.27-1.39.67-.41.19-1.51-.56-1.32Z"/><path class="cls-1" d="m95.68,121.22c-3.55.29-7.08.74-10.63,1.01-.44.06-.99-.09-1.29.31-1.06,2.16,3.96.73,5.01.83,2.44-.29,4.95-.39,7.36-.78.7-.35.31-1.49-.45-1.37Z"/><path class="cls-1" d="m94.8,102.99c-3.55.29-7.08.74-10.63,1.01-.44.06-.99-.1-1.29.31-1.06,2.16,3.96.73,5.01.83,2.44-.29,4.95-.39,7.36-.78.7-.35.31-1.49-.45-1.37Z"/></svg>