<?xml version="1.0" encoding="UTF-8"?><svg id="Layer_1" xmlns="http://www.w3.org/2000/svg" viewBox="0 0 206.13 363.75"><defs><style>.cls-1{fill:none;stroke:#000;stroke-miterlimit:10;stroke-width:3px;}</style></defs><g id="whip"><path class="cls-1" d="m41.19,358.66c4.44-2.23,8.12-5,10.42-6.73,32.7-24.61,33.22-92.69,32.6-112.97l-2.23.07c.61,20.01.13,87.15-31.71,111.12-5.34,4.02-16.44,12.37-27.58,9.16-7.22-2.08-13.35-8.91-17.27-19.24-5.59-14.72,2.9-36.4,24.55-62.69,16.88-20.5,36.21-37.18,39.92-40.32l-1.44-1.7c-8.15,6.9-79.19,68.45-65.11,105.51,4.18,11,10.83,18.31,18.74,20.59,6.78,1.96,13.55,0,19.12-2.8Z"/><path class="cls-1" d="m28.37,361.33c-2.25,1.07-4.43,1.09-6.49.05-3.61-1.83-5.91-5.33-6.82-10.4-4.85-26.86,29.83-93.07,60.56-126.42l2.76-3-.85,3.99c-1.09,5.09-26.8,124.55-49,135.7-.06.03-.11.06-.17.08Zm5.42-69.75c-12.64,25.7-18.66,47.21-16.53,59,.79,4.35,2.68,7.31,5.63,8.81,1.43.72,2.91.7,4.52-.07.05-.02.09-.04.14-.07,6.09-3.06,16.51-17.87,31.79-70.67,7.29-25.19,12.98-49.84,15.1-59.37-14.3,16.31-29.31,39.29-40.66,62.37Z"/><path class="cls-1" d="m172.73,7.73c-13.19,27.49-26.38,54.97-39.57,82.45-18.91,39.39-37.82,78.79-56.73,118.18-2.57,5.36-.41,11.8,4.87,14.52,5.29,2.73,11.79.75,14.66-4.47l63.65-115.75,43.65-79.38c3.01-5.47.86-12.34-4.71-15.12-3.67-1.84-7.34-3.67-11.01-5.51-5.49-2.74-12.16-.46-14.82,5.07Zm10.77,29.81c-4.64,9-10.57,15.16-13.24,13.78-2.68-1.38-1.09-9.79,3.55-18.78,4.64-8.99,10.57-15.16,13.24-13.78,2.68,1.38,1.09,9.79-3.55,18.78Z"/><path class="cls-1" d="m167.8,45.64c-2.68-1.38-1.09-9.79,3.55-18.78,4.64-9,10.57-15.16,13.24-13.79,1.2.62,1.54,2.67,1.13,5.55-3.01.59-7.93,6.21-11.91,13.92-2.55,4.95-4.18,9.71-4.68,13.23-.5.1-.95.06-1.34-.14Z"/><path class="cls-1" d="m78.84,217.19c5.29,2.73,11.79.75,14.66-4.47l63.65-115.75,43.65-79.38c1.16-2.11,1.55-4.44,1.27-6.65,2.81,3.36,3.44,8.24,1.19,12.34l-43.65,79.38-63.65,115.75c-2.87,5.21-9.37,7.2-14.66,4.47-3.34-1.72-5.43-4.93-5.87-8.42.91,1.1,2.06,2.03,3.4,2.73Z"/><path class="cls-1" d="m172.73,7.73c-13.19,27.49-26.38,54.97-39.57,82.45,2.57,1.35,5.21,2.68,7.89,4,6.34,3.12,12.54,5.94,18.57,8.49l43.65-79.38c3.01-5.47.86-12.34-4.71-15.12-3.67-1.84-7.34-3.67-11.01-5.51-5.49-2.74-12.16-.46-14.82,5.07Zm1.08,24.81c4.64-8.99,10.57-15.16,13.24-13.78,2.68,1.38,1.09,9.79-3.55,18.78-4.64,9-10.57,15.16-13.24,13.78-2.68-1.38-1.09-9.79,3.55-18.78Z"/><path class="cls-1" d="m127.35,129.32c-6.65,13.18-10.23,21.2-15.26,21.17-.51,0-1.2-.02-1.73-.49-2.53-2.23,2.83-10.75,10.82-26.81,7.91-15.9,11.07-24.46,15.9-24.2.41.02,1.38.07,2.1.77,2.76,2.63-2.16,10.4-11.84,29.56Z"/><path class="cls-1" d="m153.47,75.75c-5.06,10.02-7.77,16.12-11.6,16.09-.39,0-.91-.01-1.32-.37-1.92-1.7,2.15-8.17,8.23-20.38,6.02-12.09,8.42-18.6,12.09-18.4.31.02,1.05.06,1.6.58,2.1,2-1.64,7.91-9,22.48Z"/><path class="cls-1" d="m96.05,174.78c-5.24,10.17-8.45,18.95-7.17,19.62,1.28.66,6.58-7.05,11.82-17.22,5.24-10.17,8.45-18.95,7.17-19.62-1.28-.66-6.58,7.05-11.82,17.22Z"/><path class="cls-1" d="m166,49.13c-2.68-1.38-1.09-9.79,3.55-18.78,4.64-8.99,10.57-15.16,13.24-13.78.77.39,1.18,1.37,1.28,2.76-2.97,1.82-6.94,6.8-10.25,13.22-3.31,6.42-5.07,12.54-4.83,16.02-1.19.73-2.22.96-2.99.56Z"/><path class="cls-1" d="m136.79,91.98c6.34,3.12,12.54,5.94,18.57,8.49l43.65-79.38c2.82-5.13,1.11-11.48-3.71-14.55,1.09.54,2.17,1.09,3.26,1.63,5.58,2.79,7.72,9.65,4.71,15.12l-43.65,79.38c-6.03-2.55-12.23-5.37-18.57-8.49-2.69-1.32-5.32-2.65-7.89-4,0,0,0,0,0,0,1.2.6,2.4,1.21,3.62,1.81Z"/><path class="cls-1" d="m97.29,215.6c-4.36,3.17-9.99,3.66-14.37,1.22-4.71-2.61-5.99-7.47-6.2-8.37-5.3,11.99-10.6,23.98-15.91,35.97,1,1.3,3.51,4.19,7.8,5.58,7.29,2.35,13.51-1.65,14.37-2.22,4.77-10.72,9.54-21.45,14.32-32.17Z"/></g></svg>