<?xml version="1.0" encoding="UTF-8"?><svg id="Layer_1" xmlns="http://www.w3.org/2000/svg" viewBox="0 0 162.41 360.12"><defs><style>.cls-1{fill:none;stroke:#000;stroke-miterlimit:10;stroke-width:3px;}</style></defs><g id="knives"><path class="cls-1" d="m55.42,149.23l15.23,53.95c-5.12,10.71-10.24,21.43-15.36,32.14-4.47-8.39-9.08-18.39-13.24-30.03-7.84-21.97-11.38-42.33-13.02-58.2,8.8.71,17.59,1.42,26.39,2.14Z"/><path class="cls-1" d="m1.67,65.78l29.11,101.9c.33,1.15,1.36,1.72,2.3,1.28l6-2.82,13.52-6.36,3.44-1.61c.94-.45,1.45-1.74,1.11-2.89l-.11-.39L28.04,53.38c-.33-1.14-1.36-1.72-2.3-1.27l-15.99,7.52-6.96,3.28c-.94.44-1.45,1.74-1.12,2.88Z"/><path class="cls-1" d="m33.42,89.72s18.96,62.77,15.67,59.41c-3.29-3.36-25.71-73.54-15.67-59.41Z"/><path class="cls-1" d="m31.48,81.66s-5.97-23.98-8.48-21.1c-2.51,2.88,6.79,27.76,8.48,21.1Z"/><path class="cls-1" d="m1.67,65.78l29.11,101.9c.33,1.15,1.36,1.72,2.3,1.28l6-2.82,13.52-6.36,3.44-1.61c.94-.45,1.45-1.74,1.11-2.89l-.11-.39c-6.21,1.82-16.57,4.58-20.01,3.88-5.03-1.03-23.77-76.77-26.65-89.99-.85-3.92-.94-6.9-.63-9.16l-6.96,3.28c-.94.44-1.45,1.74-1.12,2.88Z"/><path class="cls-1" d="m98.08,130.36l18.15,57.93c-5.88,11.44-11.76,22.88-17.63,34.32-5.27-9.03-10.72-19.78-15.64-32.28-9.3-23.6-13.58-45.45-15.61-62.46,10.25.83,20.49,1.66,30.74,2.49Z"/><path class="cls-1" d="m34.85,40.53l34.68,109.42c.39,1.23,1.6,1.85,2.69,1.39l6.97-2.98,15.69-6.71,3.99-1.7c1.09-.47,1.67-1.85,1.27-3.09l-.13-.42L65.47,27.44c-.39-1.22-1.6-1.85-2.69-1.38l-18.56,7.93-8.08,3.46c-1.09.47-1.67,1.85-1.28,3.08Z"/><path class="cls-1" d="m72.02,66.42s22.56,67.41,18.7,63.79c-3.86-3.62-30.5-79-18.7-63.79Z"/><path class="cls-1" d="m69.69,57.77s-7.14-25.75-10.04-22.68c-2.9,3.07,8.13,29.8,10.04,22.68Z"/><path class="cls-1" d="m34.85,40.53l34.68,109.42c.39,1.23,1.6,1.85,2.69,1.39l6.97-2.98,15.69-6.71,3.99-1.7c1.09-.47,1.67-1.85,1.27-3.09l-.13-.42c-7.22,1.9-19.26,4.78-23.26,4-5.86-1.15-28.26-82.44-31.72-96.63-1.02-4.2-1.14-7.4-.81-9.82l-8.08,3.46c-1.09.47-1.67,1.85-1.28,3.08Z"/><path class="cls-1" d="m139.16,105.95l18.15,57.93c-5.88,11.44-11.76,22.88-17.63,34.32-5.27-9.03-10.72-19.78-15.64-32.28-9.3-23.6-13.58-45.45-15.61-62.46,10.25.83,20.49,1.66,30.74,2.49Z"/><path class="cls-1" d="m75.93,16.12l34.68,109.42c.39,1.23,1.6,1.85,2.69,1.39l6.97-2.98,15.69-6.71,3.99-1.7c1.09-.47,1.67-1.85,1.27-3.09l-.13-.42L106.55,3.04c-.39-1.22-1.6-1.85-2.69-1.38l-18.56,7.93-8.08,3.46c-1.09.47-1.67,1.85-1.28,3.08Z"/><path class="cls-1" d="m113.1,42.01s22.56,67.41,18.7,63.79c-3.86-3.62-30.5-79-18.7-63.79Z"/><path class="cls-1" d="m110.76,33.36s-7.14-25.75-10.04-22.68c-2.9,3.07,8.13,29.8,10.04,22.68Z"/><path class="cls-1" d="m75.93,16.12l34.68,109.42c.39,1.23,1.6,1.85,2.69,1.39l6.97-2.98,15.69-6.71,3.99-1.7c1.09-.47,1.67-1.85,1.27-3.09l-.13-.42c-7.22,1.9-19.26,4.78-23.26,4-5.86-1.15-28.26-82.44-31.72-96.63-1.02-4.2-1.14-7.4-.81-9.82l-8.08,3.46c-1.09.47-1.67,1.85-1.28,3.08Z"/><path class="cls-1" d="m4.99,347.01l140.23,11.6c2.17.18,4.07-1.72,4.2-4.19,1.53-30.14,3.06-60.28,4.59-90.42,1.44-28.23,2.87-56.45,4.3-84.68.73-14.38,1.46-28.76,2.19-43.14.01-.22.02-.43.03-.65.12-2.36.24-4.72.36-7.08.16-3.23-2.72-5.46-5.34-4.14l-37.58,18.96-92.31,46.57c-1.21.61-2.07,1.87-2.29,3.35l-14.79,100.85-4.55,31.04-2.49,16.95c-.37,2.5,1.21,4.79,3.43,4.97Z"/><path class="cls-1" d="m4.99,347.01l140.23,11.6c2.17.18,4.07-1.72,4.2-4.19,1.53-30.14,3.06-60.28,4.59-90.42-20.51,38.73-64.37,87.61-149.98,61.08l-2.49,16.95c-.37,2.5,1.21,4.79,3.43,4.97Z"/><path class="cls-1" d="m26.74,264.73c-2.74,28.18-10.06,45.26-1.17,54.19,1.38,1.39,2.21,1.62,2.85,1.56,5.97-.6,3.34-27.65,9.49-70.71,2.43-17.03,5.84-33.75-.57-37.12-1.2-.63-2.83-.84-4.27-.35-7.74,2.59-3.44,22.76-6.33,52.44Z"/><path class="cls-1" d="m109.98,162.4s-71.34,30.5-66.46,35.54c4.88,5.04,89.76-37.57,66.46-35.54Z"/><path class="cls-1" d="m118,160.03c.8,1.69,5.59,1.11,10.7-1.3,5.11-2.41,8.6-5.74,7.8-7.43-.8-1.69-5.59-1.11-10.7,1.3-5.11,2.41-8.6,5.74-7.8,7.43Z"/></g></svg>