<?xml version="1.0" encoding="UTF-8"?><svg id="Layer_1" xmlns="http://www.w3.org/2000/svg" viewBox="0 0 195.94 259.27"><defs><style>.cls-1{fill:none;stroke:#1d1d1b;stroke-miterlimit:10;stroke-width:3px;}</style></defs><path class="cls-1" d="m40.28,54.12c-8.13,16.18-10.91,34.43-13.59,52.34-6.61,44.2-13.22,88.39-19.83,132.59,43.55,11.22,89.65,7.72,133.7,16.76.22-21.93-1.51-43.83-3.25-65.7-3.16-39.87-6.32-79.74-9.47-119.62-.06-.8-.14-1.64-.57-2.32-.73-1.15-2.22-1.49-3.56-1.74-28.44-5.17-57.08-9.3-83.43-12.32Z"/><path class="cls-1" d="m125.27,68.75c9.92-6.3,20.45-11.62,31.39-15.88,14.47,52.88,15.95,108.95,33.78,160.79.51,1.49,1.04,3.1.57,4.6-.34,1.07-1.14,1.93-1.93,2.73-13.75,14.03-30.19,25.4-48.16,33.33-3.5-63.28-8.71-126.47-15.65-185.57Z"/><path class="cls-1" d="m17.36,231.85c-3.49-1.01-7.22-2-10.7-.93-3.47,1.07-6.28,5.07-4.73,8.36,12.64,4.99,26.28,6.75,39.75,8.47,10.01,1.28,20.01,2.56,30.01,3.84,21.07,2.69,42.17,5.39,63.39,6.16,2.35.09,5.09-.03,6.48-1.94,1.42-1.95.51-4.88-1.32-6.45-1.83-1.57-4.31-2.12-6.67-2.61-39.91-8.27-81.86-4.93-116.21-14.89Z"/><path class="cls-1" d="m126.42,71.63c-1.64-6.84-5.6-12.93-10.26-18.19-3.22-3.63-6.98-7.29-7.65-12.09-.44-3.15.56-6.29,1.08-9.43,1.73-10.35-7.9-21.82-15.54-29.01,8.16-1.94,23.24,2.03,27.91,8.99,4.82,7.19,4.68,16.51,3.9,25.13,3.68.07,22.18,10.73,30.85,15.83-3.83,4.84-9.7,9.11-15.45,11.37-5.74,2.26-11.74,4.34-14.86,7.4Z"/><path class="cls-1" d="m40.53,54.76c7.39.31,39.22,7.43,47.17,9.21,11.72,2.63,23.45,5.26,35.17,7.88,1.32.3,3.13.34,3.56-.94.21-.63-.05-1.31-.31-1.92-2.26-5.2-5.26-10.07-8.87-14.44-3.67-4.44-8.23-8.98-8.25-14.74,0-1.99.56-3.94,1.07-5.87,1.43-5.43,3.15-11.11,2.09-16.62-1.1-5.74-2.73-9.81-7-12.4-10.65-6.47-20.2-2.34-24.42.7-3.79,2.73-5.84,7.4-6.24,12.05-.39,4.65.71,9.3,2.24,13.71.56,1.64,1.14,3.62.04,4.96-.36.44-.85.74-1.33,1.03-4.98,3-9.97,6.01-14.95,9.01-3.27,1.97-16.6,6.54-19.97,8.38Z"/><path class="cls-1" d="m43.01,85.05c.94-5.42,4.43-9.34,7.78-8.75,3.36.58,5.32,5.45,4.37,10.87-.94,5.42-4.43,9.34-7.78,8.75-3.36-.58-5.31-5.45-4.37-10.87Z"/><path class="cls-1" d="m43.01,85.05c.94-5.42,4.43-9.34,7.78-8.75,3.36.58,5.32,5.45,4.37,10.87-.94,5.42-4.43,9.34-7.78,8.75-3.36-.58-5.31-5.45-4.37-10.87Z"/><path class="cls-1" d="m101.29,96.25c0-5.5,2.76-9.96,6.17-9.96s6.17,4.46,6.17,9.96-2.76,9.96-6.17,9.96-6.17-4.46-6.17-9.96Z"/><path class="cls-1" d="m71.13,91.21c.94-5.42,4.43-9.34,7.78-8.75,3.36.58,5.32,5.45,4.37,10.87-.94,5.42-4.43,9.34-7.78,8.75-3.36-.58-5.31-5.45-4.37-10.87Z"/><path class="cls-1" d="m38.28,126.16c.72-6.08,4.21-10.62,7.79-10.16,3.58.47,5.91,5.77,5.19,11.85-.72,6.08-4.21,10.62-7.79,10.16-3.58-.47-5.91-5.77-5.19-11.85Z"/><path class="cls-1" d="m100.55,135.47c-.28-6.12,2.41-11.22,6.02-11.41,3.61-.18,6.76,4.62,7.04,10.74.28,6.12-2.41,11.22-6.02,11.41-3.61.18-6.76-4.62-7.04-10.74Z"/><path class="cls-1" d="m68.36,131.49c.72-6.08,4.2-10.62,7.79-10.16,3.58.47,5.91,5.77,5.19,11.85-.72,6.08-4.21,10.62-7.79,10.16-3.58-.47-5.91-5.77-5.19-11.85Z"/><path class="cls-1" d="m31.82,165.9c.8-6.52,4.69-11.4,8.68-10.9,3.99.5,6.58,6.19,5.78,12.72-.8,6.52-4.69,11.4-8.68,10.9-3.99-.5-6.58-6.2-5.78-12.72Z"/><path class="cls-1" d="m101.19,175.89c-.32-6.56,2.69-12.05,6.7-12.24,4.02-.2,7.53,4.96,7.85,11.53.32,6.56-2.69,12.05-6.7,12.24-4.02.2-7.53-4.96-7.85-11.53Z"/><path class="cls-1" d="m65.33,171.61c.8-6.52,4.69-11.4,8.68-10.9,3.99.5,6.58,6.19,5.78,12.72-.8,6.52-4.69,11.4-8.68,10.9-3.99-.5-6.58-6.19-5.78-12.72Z"/><path class="cls-1" d="m29.99,209.6c.8-6.32,4.68-11.06,8.68-10.57,3.99.49,6.58,6.01,5.78,12.33-.8,6.32-4.68,11.06-8.68,10.57-3.99-.49-6.58-6.01-5.78-12.33Z"/><path class="cls-1" d="m99.35,219.28c-.32-6.36,2.69-11.68,6.7-11.87,4.02-.19,7.53,4.81,7.85,11.18.32,6.36-2.69,11.68-6.7,11.87-4.02.19-7.53-4.81-7.85-11.18Z"/><path class="cls-1" d="m63.49,215.14c.8-6.32,4.69-11.06,8.68-10.57,3.99.49,6.58,6.01,5.78,12.33-.8,6.32-4.69,11.06-8.68,10.57-3.99-.49-6.58-6.01-5.78-12.33Z"/><path class="cls-1" d="m132.83,85.54c0-1.37,1.12-2.49,2.49-2.49s2.49,1.11,2.49,2.49-1.11,2.49-2.49,2.49-2.49-1.11-2.49-2.49Z"/><path class="cls-1" d="m143.29,82.05c0-1.38,1.11-2.49,2.49-2.49s2.49,1.11,2.49,2.49-1.12,2.49-2.49,2.49-2.49-1.11-2.49-2.49Z"/><path class="cls-1" d="m153.25,78.73c0-1.38,1.11-2.49,2.49-2.49s2.49,1.11,2.49,2.49-1.12,2.49-2.49,2.49-2.49-1.11-2.49-2.49Z"/><path class="cls-1" d="m135.41,103.72c0-1.37,1.12-2.49,2.49-2.49s2.49,1.12,2.49,2.49-1.11,2.49-2.49,2.49-2.49-1.11-2.49-2.49Z"/><path class="cls-1" d="m145.88,100.23c0-1.37,1.11-2.49,2.49-2.49s2.49,1.12,2.49,2.49-1.12,2.49-2.49,2.49-2.49-1.11-2.49-2.49Z"/><path class="cls-1" d="m155.83,96.91c0-1.37,1.11-2.49,2.49-2.49s2.49,1.12,2.49,2.49-1.12,2.49-2.49,2.49-2.49-1.11-2.49-2.49Z"/><path class="cls-1" d="m138.14,125.4c-.05-1.37,1.02-2.53,2.39-2.59,1.37-.05,2.53,1.01,2.59,2.39.05,1.37-1.02,2.53-2.39,2.59-1.37.05-2.53-1.01-2.59-2.39Z"/><path class="cls-1" d="m148.46,121.5c-.05-1.37,1.02-2.53,2.39-2.59,1.37-.05,2.53,1.02,2.59,2.39.05,1.37-1.02,2.53-2.39,2.59-1.37.05-2.53-1.02-2.59-2.39Z"/><path class="cls-1" d="m158.27,117.79c-.05-1.37,1.02-2.53,2.39-2.59,1.37-.05,2.53,1.02,2.58,2.39.05,1.37-1.01,2.53-2.39,2.59-1.37.05-2.53-1.02-2.59-2.39Z"/><path class="cls-1" d="m140.59,146.67c-.05-1.37,1.02-2.53,2.39-2.59,1.37-.05,2.53,1.02,2.59,2.39.05,1.37-1.02,2.53-2.39,2.59-1.37.05-2.53-1.02-2.59-2.39Z"/><path class="cls-1" d="m150.91,142.77c-.05-1.37,1.02-2.53,2.39-2.59,1.37-.05,2.53,1.01,2.59,2.39.05,1.37-1.02,2.53-2.39,2.59-1.37.05-2.53-1.01-2.59-2.39Z"/><path class="cls-1" d="m160.73,139.06c-.05-1.37,1.02-2.53,2.39-2.59,1.37-.05,2.53,1.01,2.59,2.39.05,1.37-1.02,2.53-2.39,2.59-1.37.05-2.53-1.01-2.59-2.39Z"/><path class="cls-1" d="m149.91,220.76c-.08-2.02,1.26-3.71,3-3.78,1.74-.07,3.21,1.51,3.29,3.53.08,2.02-1.26,3.71-3,3.78-1.74.07-3.21-1.51-3.29-3.53Z"/><path class="cls-1" d="m162.92,215.11c-.08-2.02,1.26-3.71,3-3.78,1.74-.07,3.21,1.51,3.29,3.53.08,2.02-1.26,3.71-3,3.78-1.74.07-3.21-1.51-3.29-3.53Z"/><path class="cls-1" d="m175.29,209.74c-.08-2.02,1.26-3.71,3-3.78,1.73-.07,3.21,1.51,3.29,3.53.08,2.02-1.26,3.71-3,3.78-1.73.07-3.21-1.51-3.29-3.53Z"/><path class="cls-1" d="m147.38,201.39c-.07-1.68,1.13-3.08,2.66-3.15,1.54-.06,2.84,1.25,2.9,2.93.07,1.68-1.13,3.09-2.66,3.15-1.54.06-2.84-1.25-2.9-2.93Z"/><path class="cls-1" d="m158.9,196.68c-.07-1.68,1.13-3.08,2.66-3.14s2.84,1.25,2.9,2.93c.07,1.68-1.13,3.09-2.66,3.15s-2.84-1.25-2.9-2.93Z"/><path class="cls-1" d="m169.86,192.19c-.07-1.68,1.13-3.08,2.66-3.15,1.54-.06,2.83,1.25,2.9,2.93.07,1.68-1.13,3.08-2.66,3.14-1.54.06-2.83-1.25-2.9-2.93Z"/><path class="cls-1" d="m145.53,183.82c-.06-1.63,1.08-3,2.56-3.06,1.48-.06,2.73,1.22,2.79,2.85.06,1.63-1.08,3.01-2.56,3.06-1.48.06-2.72-1.22-2.79-2.85Z"/><path class="cls-1" d="m156.6,179.23c-.06-1.63,1.08-3.01,2.56-3.06,1.48-.06,2.73,1.22,2.79,2.85.06,1.63-1.08,3-2.56,3.06-1.48.06-2.72-1.22-2.79-2.85Z"/><path class="cls-1" d="m167.14,174.87c-.06-1.63,1.08-3.01,2.56-3.06,1.48-.06,2.72,1.22,2.79,2.85.06,1.63-1.08,3-2.56,3.06-1.48.06-2.73-1.22-2.79-2.85Z"/><path class="cls-1" d="m144.17,165.16c-.05-1.37,1.02-2.53,2.39-2.59,1.37-.05,2.53,1.01,2.58,2.39.05,1.37-1.02,2.53-2.39,2.59-1.37.05-2.53-1.02-2.59-2.39Z"/><path class="cls-1" d="m154.49,161.26c-.05-1.37,1.02-2.53,2.39-2.59,1.37-.05,2.53,1.02,2.58,2.39.05,1.37-1.01,2.53-2.39,2.59-1.37.05-2.53-1.02-2.59-2.39Z"/><path class="cls-1" d="m164.31,157.55c-.05-1.37,1.02-2.53,2.39-2.59,1.37-.05,2.53,1.02,2.59,2.39.05,1.37-1.02,2.53-2.39,2.59-1.37.05-2.53-1.02-2.59-2.39Z"/><path class="cls-1" d="m90.2,5.49c-3.84,1.04-7.6,2.85-10.12,5.92-2.52,3.07-3.55,7.57-1.77,11.13.75,1.51,1.94,2.76,3.2,3.88.74.66,1.55,1.29,2.49,1.6.94.31,2.06.26,2.83-.36.63-.51.95-1.3,1.17-2.08.75-2.64.66-5.47,1.45-8.1.61-2.02,1.73-3.89,3.23-5.37,1.06-1.04,2.42-2.17,2.26-3.65-.08-.74-.56-1.39-1.14-1.87-1.55-1.29-3.91-1.51-3.59-1.1Z"/><path class="cls-1" d="m77.46,33.02c2.97,3.07,7.13,4.68,11.27,5.71,4.14,1.04,8.41,1.59,12.44,3-.1.71-.78,1.23-1.49,1.37-.7.14-1.43-.02-2.13-.18-8.14-1.79-16.37-3.13-24.66-4.01.99-.94,2.26-1.54,3.25-2.49.98-.95,1.64-2.49,1.31-3.41Z"/><path class="cls-1" d="m40.24,55.04c28.16,4.36,55.22,14.57,83.49,18.14.69.09,1.42.17,2.07-.08.65-.25,1.19-.94,1.03-1.62-12.67-2.63-25.35-5.25-38.02-7.88-7.12-1.48-14.25-2.95-21.28-4.8-8.55-2.25-17.12-5.06-25.96-4.97-.46,0-.99.04-1.29.39-.3.35-.07,1.07-.04.81Z"/><path class="cls-1" d="m124.62,71.74c6.01,58.69,10.92,117.5,14.73,176.38.09,1.35,1.14,2.43,2.45,2.11-4.54-59-9.44-117.26-13.98-176.27-.08-1.06-.21-2.22-.96-2.96-.75-.75-2.38-.63-2.24.74Z"/><path class="cls-1" d="m190.61,210.4c-14.62,10.44-29.24,20.89-43.86,31.33-2.24,1.6-4.53,3.25-6.08,5.52-1.55,2.27-2.24,5.34-1.03,7.81.44.91,1.25,1.76,2.26,1.78.58.01,1.14-.25,1.66-.51,16.41-8.21,31.03-19.59,45.09-31.38,2.69-2.26,5.58-4.93,5.78-8.44.15-2.61-1.42-5.23-3.82-6.1Z"/><path class="cls-1" d="m35.77,65.42c-3.06,6.14-4.7,12.88-5.95,19.62-1.39,7.51-2.33,15.1-3.26,22.68-2.44,19.82-4.88,39.64-7.32,59.45-.71,5.78-1.42,11.55-1.87,17.35-.19,2.48-.33,5,.2,7.43,3.4-13.92,6.81-27.87,8.78-42.06,1.9-13.68,2.45-27.51,4.13-41.22,1.32-10.78,3.34-21.47,6.05-31.99,1.09-4.23,2.28-8.75.88-12.89-.78.42-1.28.92-1.64,1.63Z"/></svg>