<?xml version="1.0" encoding="UTF-8"?><svg id="Layer_1" xmlns="http://www.w3.org/2000/svg" viewBox="0 0 446.47 239.84"><defs><style>.cls-1{opacity:.24;}.cls-1,.cls-2,.cls-3{fill:none;stroke:#000;stroke-miterlimit:10;stroke-width:3px;}.cls-3{opacity:.4;}</style></defs><g id="microwave"><path class="cls-2" d="m296.18,58.25l-16.21,179.41c.53.04,1.07.09,1.63.14,10.3.82,22.97.9,37.26-1.02,10.87-1.46,20.42-3.79,28.46-6.27,0,0,0-.01,0-.01l60.3-13.44c13.27-2.95,23.17-14.04,24.63-27.55l12.72-118.33c-.03-9.84-2.74-23.91-15.85-33.88l-5.16,1.15-69.12,15.4c-1.16-.68-2.34-1.27-3.56-1.72-11.28-4.21-32.01-.87-33.1-.63-11.93,2.76-22,6.75-22,6.75Z"/><path class="cls-3" d="m281.6,237.79c10.3.82,22.97.9,37.26-1.02,10.87-1.46,20.42-3.79,28.46-6.27,0,0,0-.01,0-.01l60.3-13.44c13.27-2.95,23.17-14.04,24.63-27.55l12.72-118.33c-.03-9.84-2.74-23.91-15.85-33.88l-5.16,1.15c.37,29.81-5.21,129.5-35.21,154.66-34.84,29.22-93.8,11.47-93.8,11.47l-13.34,33.22Z"/><path class="cls-2" d="m19.41,47.85c.04.08.09.14.12.2,4.6,6.43,43.07-14.6,43.07-14.6.09-.1.18-.19.27-.29l185.91,19.99s5.37.58,21.47,2.31l3.63.39c40.15,4.32,63.14,1.61,72.38-.1l4.73-1.05s.07-.02.07-.02l3.77-.84,40.13-8.94,34.15-7.61c4.42,3.36,7.65,7.18,10.01,11.15-.44-.88-7.77-15.21-26.16-19.22-.26-.08-.52-.16-.79-.24-.36-.11-.74-.18-1.11-.22L165.44,2.34c-15.96-1.72-32.11-.81-47.78,2.68l-50.85,11.33s0,0-.01,0l-16.09,3.58c-.25.06-.5.13-.74.21-.06.03-.11.05-.17.06-.55.2-1.04.45-1.47.75-.14.05-.27.09-.41.13-.71.24-1.41.5-2.09.75-1.66.63-3.24,1.3-4.73,2,0,0-15.09,7.12-21.1,19.29-.41.84-1.48,3.06-.59,4.72Z"/><path class="cls-2" d="m11.24,59.79L2.1,144.74c-3.71,34.52,20.41,65.42,53.88,69.02l226.65,24.37c14.79,1.59,28.1-9.48,29.74-24.74l14.35-133.44c1.64-15.25-9.02-28.9-23.8-30.49L46.23,21.86c-9.81-1.05-19.46,3.48-25.07,11.89-4.21,6.3-7.6,14.03-9.53,23.52-.17.83-.29,1.67-.38,2.52Z"/><path class="cls-2" d="m10.66,65.18L1.86,147.02c-3.58,33.26,20.11,63.08,52.92,66.61l222.13,23.88c14.49,1.56,27.52-9.09,29.1-23.78l13.82-128.56c1.58-14.69-8.89-27.87-23.38-29.43L44.87,28.69c-9.61-1.03-19.06,3.32-24.55,11.41-4.11,6.06-7.42,13.51-9.3,22.65-.16.8-.28,1.61-.37,2.43Z"/><path class="cls-2" d="m55.42,73.48l-10.26,95.46c-1.56,14.49,8.93,27.49,23.41,29.05l186.97,20.1c13.79,1.48,26.24-7.95,28.75-21.35.13-.68.23-1.37.3-2.07l10.26-95.46c1.56-14.49-8.93-27.49-23.41-29.05l-186.97-20.1c-10.1-1.09-19.49,3.68-24.77,11.58-2.3,3.43-3.81,7.45-4.28,11.83Z"/><path class="cls-2" d="m25.83,136.33c-4.85-.52-9.2,2.99-9.72,7.83-.52,4.85,2.99,9.2,7.83,9.72,4.85.52,9.2-2.99,9.72-7.83.52-4.85-2.99-9.2-7.83-9.72Z"/><path class="cls-2" d="m30.13,96.37c-6.58-.71-12.48,4.05-13.19,10.63-.71,6.58,4.05,12.48,10.63,13.19,6.58.71,12.48-4.05,13.19-10.63.71-6.58-4.05-12.48-10.63-13.19Z"/><rect class="cls-2" x="12.87" y="62.62" width="39.34" height="22.69" rx="3.62" ry="3.62" transform="translate(56.98 150.99) rotate(-173.86)"/><rect class="cls-2" x="26.96" y="93.47" width="3.78" height="29.63" transform="translate(45.95 219.03) rotate(-173.86)"/><rect class="cls-2" x="16.15" y="64.51" width="32.78" height="18.91" rx="3.02" ry="3.02" transform="translate(56.98 150.99) rotate(-173.86)"/><path class="cls-2" d="m222.78,64.94l30.33,152.9,2.42.26c13.79,1.48,26.24-7.95,28.75-21.35l-25.38-127.93-36.12-3.88Z"/><polygon class="cls-2" points="119.11 53.79 149.44 206.69 173.55 209.28 143.22 56.38 119.11 53.79"/><polygon class="cls-2" points="162.63 58.47 192.96 211.37 238.43 216.26 208.09 63.36 162.63 58.47"/><path class="cls-2" d="m59.7,61.65l27.45,138.34,45.47,4.89-30.33-152.9-17.81-1.92c-10.1-1.09-19.49,3.68-24.77,11.58Z"/><path class="cls-2" d="m295.84,107.69s-73.55,30.97-8.53,79.38l8.53-79.38Z"/><path class="cls-2" d="m424.88,45.81c2.24,2.12,2.31,5.79,1.67,8.15-2.1,7.73-14.36,10.22-29.98,13.2-13.73,2.62-30.41,5.81-35.06-1.28-.3-.46-1.61-2.45-1.04-4.59,1.47-5.48,13.29-4.32,30.46-8.17,20.05-4.5,29.22-11.77,33.94-7.3Z"/><path class="cls-2" d="m334.07,68.62c.62,3.78,6.28,6,12.63,4.95s11.01-4.95,10.38-8.73c-.62-3.78-6.28-6-12.63-4.95-6.36,1.04-11.01,4.95-10.38,8.73Z"/><path class="cls-2" d="m284.07,122.89c-4.37-1.62-14.94,8.84-16.84,21.01-1.35,8.67,1.76,17.83,7.02,21.73,1.36,1.01,2.05,1.06,2.5.88,2.68-1.09-2.64-10.96,1-20.21,2.78-7.06,8.3-7.47,9.14-14.23.42-3.38-.34-8.26-2.82-9.18Z"/><path class="cls-1" d="m45.83,21.85c39.87-2.36,105.03-3.5,157.5,8.66,57.41,13.31,130.34,1.95,168.58-5.97L165.44,2.34c-15.96-1.72-32.11-.81-47.78,2.68l-50.85,11.33s0,0-.01,0l-16.09,3.58c-.25.06-.5.13-.74.21-.06.03-.11.05-.17.06-.55.2-1.04.45-1.47.75-.14.05-.27.09-.41.13-.71.24-1.41.5-2.09.75Z"/><path class="cls-2" d="m273.54,61.52c.28-1.84-16.02-4.97-24.2-6.54-16.43-3.16-21.02-1.94-23.33.12-.7.63-1.42,1.27-1.28,2.05,1.07,5.82,48.34,7.46,48.8,4.37Z"/><path class="cls-2" d="m215.25,55.26c.24-1.84-7.81-4.09-11.86-5.22-8.12-2.27-10.5-.81-11.77,1.36-.39.66-.79,1.34-.75,2.11.23,5.73,23.98,4.84,24.38,1.75Z"/><path class="cls-2" d="m40.76,109.56c.67-6.25-3.59-11.88-9.66-13.04.72-.05,1.45-.05,2.18.03,6.58.71,11.34,6.61,10.63,13.19-.71,6.58-6.61,11.34-13.19,10.63-.33-.04-.65-.09-.97-.15,5.65-.42,10.38-4.82,11-10.66Z"/><path class="cls-2" d="m33.66,146.05c.49-4.53-2.54-8.62-6.9-9.57.31,0,.63.02.95.05,4.85.52,8.35,4.87,7.83,9.72-.52,4.85-4.87,8.35-9.72,7.83-.32-.03-.63-.09-.93-.15,4.45,0,8.29-3.35,8.77-7.88Z"/></g></svg>