<?xml version="1.0" encoding="UTF-8"?><svg id="Layer_1" xmlns="http://www.w3.org/2000/svg" viewBox="0 0 113.57 251.03"><defs><style>.cls-1,.cls-2{fill:none;stroke:#000;stroke-miterlimit:10;stroke-width:3px;}.cls-2{opacity:.23;}</style></defs><g id="wineglass"><rect class="cls-1" x="55.42" y="129.36" width="10.24" height="105.04" transform="translate(146.53 353.2) rotate(171.76)"/><path class="cls-1" d="m1.52,16.31l12.84,88.66c.69,4.78,2.64,9.11,5.51,12.78,1.15,1.47,2.44,2.84,3.87,4.09,3.14,2.75,6.9,4.93,11.07,6.38,1.43.5,2.9.92,4.41,1.24,4.35.93,9.01,1.12,13.79.43,2.14-.31,4.2-.78,6.19-1.4,15.59-4.88,25.92-18.82,23.8-33.47L70.16,6.37c-.02-.17-.07-.34-.13-.49-.47-1.19-2-2.15-4.35-2.87-4.18-1.28-10.97-1.78-19.05-1.35-3.77.19-7.82.59-12.02,1.2C15.66,5.59.84,11.63,1.52,16.31Z"/><rect class="cls-1" x="60.38" y="129" width="5.25" height="105.04" transform="translate(-25.37 10.91) rotate(-8.24)"/><path class="cls-1" d="m9.16,9.51l10.5,72.5c2.39,16.51,19.69,27.67,38.65,24.92,10.33-1.5,19-6.81,24.38-14.01l.31,2.11c2.39,16.51-11.03,32.12-29.99,34.87-18.95,2.74-36.25-8.41-38.65-24.92L1.52,16.31c-.31-2.13,2.6-4.55,7.64-6.8Z"/><path class="cls-1" d="m1.52,16.31c.68,4.69,16.59,6.27,35.55,3.52,18.95-2.75,33.76-8.78,33.09-13.46-.68-4.69-16.59-6.27-35.55-3.52C15.66,5.59.84,11.62,1.52,16.31Z"/><path class="cls-1" d="m72.38,227.88l36.61,9.06c-8.83,3.97-22.44,8.99-39.77,11.31-15.79,2.11-29.06,1.23-38.22-.01,10.41-6.3,20.83-12.59,31.24-18.89l10.14-1.47Z"/><path class="cls-1" d="m62.83,26.45s8.72,50.07,5.36,50.43c-3.36.36-16.69-67.56-5.36-50.43Z"/><path class="cls-1" d="m67.32,89.93c.56,3.89,2.16,6.88,3.56,6.68s2.08-3.52,1.52-7.42c-.56-3.89-2.16-6.88-3.56-6.68s-2.08,3.52-1.52,7.42Z"/><path class="cls-1" d="m61.03,5.73c-2.48,1.67-8.83-.16-17.36,1.77-1.87.42-4.39,1.15-6.38.8-.71-.12-1.57-.42-1.49-.83.03-.15.26-.78,4.86-1.83,7.97-1.82,19.97-2.8,20.97-1.09.22.37-.1.84-.61,1.18Z"/><path class="cls-1" d="m22.37,10.08c.11.78,2.48,1.08,5.28.67s4.98-1.37,4.87-2.14c-.11-.78-2.48-1.08-5.28-.67-2.8.41-4.98,1.37-4.87,2.14Z"/><path class="cls-1" d="m93.12,240.19s-9.5,5.49-25.86,4.32c-.97-.07-2.6-.24-2.79-.96-.17-.64.89-1.43,1.25-1.7,3.92-2.92,10.87.04,18.04-2.61,4.03-1.49,6.23-4.05,10.95-3.89.71.02,2.58.1,2.82.89.36,1.18-3.18,3.23-4.42,3.95Z"/><path class="cls-1" d="m40.88,137.89c.68,4.72,7.05,7.71,14.21,6.67,7.16-1.04,12.41-5.71,11.73-10.43-.22-1.53-1.04-2.87-2.28-3.95-1.04-.91-2.39-1.65-3.94-2.15-2.31-.75-5.08-.99-7.98-.57-2.89.42-5.46,1.43-7.47,2.79-1.23.83-2.25,1.81-2.98,2.86-1.03,1.48-1.52,3.12-1.28,4.77Z"/><path class="cls-1" d="m45.36,148.95c.43,2.96,5.32,4.7,10.93,3.89s9.8-3.87,9.37-6.83c-.43-2.96-5.32-4.7-10.93-3.89-5.61.81-9.8,3.87-9.37,6.83Z"/><path class="cls-1" d="m50.63,138.39c2.26-.33,3.99-1.25,3.87-2.06-.12-.81-2.04-1.21-4.3-.88-2.26.33-3.99,1.25-3.87,2.06s2.04,1.21,4.3.88Z"/><path class="cls-1" d="m52.32,150.77c2-.29,3.54-1.15,3.43-1.92s-1.83-1.16-3.83-.87c-2,.29-3.54,1.15-3.43,1.92.11.77,1.83,1.16,3.83.87Z"/><path class="cls-1" d="m19.66,82.01L9.68,13.06c.18-.08.35-.17.54-.25l10.5,72.5c.13.91.31,1.79.53,2.66-.75-1.89-1.29-3.89-1.59-5.97Z"/><path class="cls-1" d="m42.16,133.12c3.8.62,7.82.68,11.91.08,3.73-.54,7.24-1.58,10.47-3.02-1.04-.91-2.39-1.65-3.94-2.15-2.4.85-4.93,1.49-7.58,1.87-2.67.39-5.31.5-7.87.36-1.23.83-2.25,1.81-2.98,2.86Z"/><path class="cls-2" d="m39.23,129.47c4.35.93,9.01,1.12,13.79.43,2.14-.31,4.2-.78,6.19-1.4l21.02-52.66-5.22-36.01-35.78,89.64Z"/><path class="cls-2" d="m23.74,121.84c3.14,2.75,6.9,4.93,11.07,6.38L73.7,30.8l-3.54-24.43c-.02-.17-.07-.34-.13-.49L23.74,121.84Z"/><path class="cls-2" d="m11.98,88.47l2.39,16.5c.69,4.78,2.64,9.11,5.51,12.78L61.43,13.64c-5.5,2.3-13.19,4.4-21.91,5.82L11.98,88.47Z"/></g></svg>