<?xml version="1.0" encoding="UTF-8"?><svg id="Layer_1" xmlns="http://www.w3.org/2000/svg" viewBox="0 0 441.89 225.98"><defs><style>.cls-1{opacity:.55;}.cls-1,.cls-2{fill:none;stroke:#000;stroke-miterlimit:10;stroke-width:3px;}</style></defs><g id="pan_2"><path class="cls-2" d="m226.13,68.08l16.58,95.03c.17,1,.28,2,.31,3,.25,7.05-2.91,13.98-8.5,19.84-6.83,7.17-17.28,12.71-29.57,14.86l-130.38,22.74c-23.76,4.14-45.38-6.01-48.29-22.69L9.7,105.83l216.42-37.75Z"/><path class="cls-2" d="m234.51,185.96c-6.83,7.17-17.28,12.71-29.57,14.86l-130.38,22.74c-23.76,4.14-45.38-6.01-48.29-22.69L9.7,105.83l16.18-2.82c.97,7.26,7.68,56.54,17.53,86.38,1.41,4.27,4.16,12.03,13.62,17.19,11.1,6.06,25.64,5.38,35.31,4.56,36.7-3.15,106.25-17.46,142.17-25.18Z"/><rect class="cls-2" x="86.72" y="23.8" width="48.35" height="36.66" transform="translate(-5.59 19.68) rotate(-9.89)"/><path class="cls-2" d="m231.86,75.24L6.51,114.54c-.74.13-1.44-.36-1.57-1.1l-2.66-15.23c-2.49-14.3,7.08-27.92,21.38-30.41l176.23-30.74c14.3-2.49,27.92,7.08,30.41,21.38l2.66,15.23c.13.74-.36,1.44-1.1,1.57Z"/><path class="cls-2" d="m230.95,82.81L10.15,121.33c-3.95.69-7.71-1.95-8.4-5.9l-.14-.82c-.69-3.95,1.95-7.71,5.9-8.4l220.8-38.51c3.95-.69,7.71,1.95,8.4,5.9l.14.82c.69,3.95-1.95,7.71-5.9,8.4Z"/><path class="cls-2" d="m149.84,17.27c2.12,12.14-15.26,25.31-38.82,29.42-23.56,4.11-44.37-2.4-46.49-14.54-2.12-12.14,15.26-25.31,38.82-29.42,23.56-4.11,44.37,2.4,46.49,14.54Z"/><path class="cls-2" d="m188.47,103.53c-6.51,8.41-3.56,17.22-2.25,21.35,10.57,33.25,6.42,50.65,18.05,51.46.22.02,4.25.46,7.19-1.59,4.63-3.22,2.08-12.36-2.16-36.48-4.88-27.77-7.4-40.56-13.38-40.42-3.11.07-5.93,3.71-7.45,5.68Z"/><path class="cls-2" d="m168.52,116.84s5.57,61.09,12.16,57.49c6.59-3.61-4-72.61-12.16-57.49Z"/><path class="cls-2" d="m216.27,54.08s-86.78,9.46-82.02,16.69c4.76,7.23,103.01-8.29,82.02-16.69Z"/><path class="cls-2" d="m122.13,69.91c-10.19-.96-20.69,2.74-20.44,5.06.19,1.78,6.67,2.59,9.85,2.72,9.08.37,17.87-3.74,17.55-5.79-.21-1.35-4.35-1.74-6.96-1.99Z"/><path class="cls-2" d="m56.46,133.12s5.57,61.09,12.16,57.49c6.59-3.61-4-72.61-12.16-57.49Z"/><path class="cls-2" d="m224.82,97.56s55.33-52.69,76.71-40.64c21.38,12.05-47.33,27.68-63.93,67.85-8.19,4.58-16.96,6.25-20.88,2.89-4.91-4.21-3.61-17.57,8.1-30.11Z"/><path class="cls-2" d="m216.72,127.67c3.92,3.36,12.69,1.69,20.88-2.89,16.61-40.16,85.32-55.8,63.93-67.85-.05-.03-.1-.05-.15-.08-21.5-11.72-76.56,40.72-76.56,40.72-4.26,4.57-7.15,9.24-8.85,13.54-2.98,7.51-2.37,13.88.75,16.57Z"/><path class="cls-2" d="m215.97,111.1c2.44.67,5.12.59,6.12.57,14.71-.38,21.41-12.91,38.22-27.47,16.59-14.36,32.53-21.64,41.07-27.36-21.5-11.72-76.56,40.72-76.56,40.72-4.26,4.57-7.15,9.24-8.85,13.54Z"/><path class="cls-2" d="m223.72,116.77c.37,2.14,2.22,3.67,4.37,3.77.36.02.73,0,1.1-.06.37-.07.73-.17,1.06-.31,1.98-.83,3.2-2.89,2.83-5.03-.37-2.14-2.22-3.67-4.37-3.77-.36-.02-.73,0-1.1.06-.37.07-.73.17-1.06.31-1.98.83-3.2,2.89-2.83,5.03Z"/><path class="cls-2" d="m226.55,111.74l1.53,8.8c.36.02.73,0,1.1-.06.37-.07.73-.17,1.06-.31l-1.53-8.8c-.36-.02-.73,0-1.1.06-.37.07-.73.17-1.06.31Z"/><path class="cls-2" d="m116.2,19.03s-14.02,4.67-33.11,5.77c-3.01.17-11.01-.98-12.34,2.1-.66,1.53.59,3.42.73,3.63,6.09,9.21,48.14-2.04,47.82-8.63-.06-1.26-1.66-2.23-3.11-2.88Z"/><path class="cls-2" d="m135.54,19.36c.35,1.99-2.11,4.08-5.49,4.67-3.38.59-6.4-.54-6.75-2.53-.35-1.99,2.11-4.08,5.49-4.67,3.38-.59,6.4.54,6.75,2.53Z"/><path class="cls-1" d="m147.7,12.25c-1.33,11.08-17.59,22.22-38.91,25.94-20.06,3.5-38.11-.7-44.35-9.52-.14,1.17-.12,2.33.08,3.49,2.12,12.14,22.93,18.65,46.49,14.54,23.56-4.11,40.94-17.28,38.82-29.42-.31-1.81-1.05-3.48-2.14-5.02Z"/><path class="cls-2" d="m66.34,34.06c-2.05-11.75,14.78-24.51,37.59-28.49,22.81-3.98,42.96,2.33,45.01,14.08.33,1.92.16,3.87-.46,5.8,1.32-2.7,1.83-5.47,1.36-8.18-2.12-12.14-22.93-18.65-46.49-14.54-23.56,4.11-40.94,17.28-38.82,29.42.52,3,2.19,5.66,4.76,7.9-1.55-1.78-2.57-3.79-2.95-5.99Z"/><path class="cls-2" d="m439.67,12.87c-6.05-11.14-49.26,1.5-66.8,6.63-23.55,6.89-56.23,18.58-93.99,39.38,2.76,6.37,5.51,12.74,8.26,19.11,30.83-7.27,144.75-35.04,152.5-58.27.4-1.2,1.42-4.27.02-6.85Zm-26.66,9.26c-8.21,2.11-15.39,1.75-16.05-.79-.65-2.54,5.48-6.3,13.68-8.41,8.21-2.11,15.39-1.75,16.05.79.65,2.54-5.48,6.3-13.68,8.41Z"/><path class="cls-2" d="m439.67,12.87c-.92-1.69-2.69-2.82-5.09-3.53-.11.37-.21.69-.29.93-7.66,22.96-118.96,50.34-151.35,58,1.4,3.24,2.81,6.48,4.2,9.72,30.83-7.27,144.75-35.04,152.5-58.27.4-1.2,1.42-4.27.02-6.85Z"/><path class="cls-2" d="m337.82,35.47s50.48-20.37,53.71-14.57c3.23,5.8-23.67,12.8-43.39,18.56-19.72,5.75-21.12,1.95-10.32-3.98Z"/><path class="cls-2" d="m322,42.46s-19.65,6.39-18.43,9.15c1.22,2.75,34.76-9.03,18.43-9.15Z"/></g></svg>