<?xml version="1.0" encoding="UTF-8"?><svg id="Layer_1" xmlns="http://www.w3.org/2000/svg" viewBox="0 0 264.58 315.22"><defs><style>.cls-1{fill:none;stroke:#1d1d1b;stroke-miterlimit:10;stroke-width:3px;}</style></defs><path class="cls-1" d="m70.6,142.75c-28.97,33.61-41.64,80.67-33.44,124.29,1.4,7.44,3.48,15.01,8.23,20.91,3.35,4.16,7.84,7.26,12.46,9.94,35.51,20.59,80.12,18.87,119.55,7.48,31.57-9.12,63.01-25.4,80.03-53.5,2.44-4.02,4.57-8.33,5.33-12.97,1.26-7.7-1.37-15.47-4.32-22.7-14.02-34.36-36.21-65.34-64.23-89.68-1.19-1.04-2.51-2.11-4.08-2.26-1.72-.16-3.31.82-4.76,1.76-8.51,5.48-17.22,10.7-26.5,14.74-27.88,12.12-60.57,12.71-88.25,1.98Z"/><path class="cls-1" d="m258.43,216.2c-5.63-13.8-12.6-27.05-20.72-39.55,1.4,3.18,2.69,6.42,3.81,9.75,4.12,12.27,5.96,25.24,3.9,38.08-3.91,24.4-23.34,42.14-43.48,54.42-19.31,11.78-41.16,19.23-63.53,22.36-22.58,3.17-45.68,2.23-67.96-2.66-6.78-1.49-13.53-3.43-20.14-5.81,2.35,1.9,4.91,3.56,7.53,5.08,35.51,20.59,80.12,18.87,119.55,7.48,31.57-9.12,63.01-25.4,80.03-53.5,2.44-4.02,4.57-8.33,5.33-12.97,1.26-7.7-1.37-15.47-4.32-22.7Z"/><path class="cls-1" d="m191.08,84.69c-.93-6.62-2-13.24-3.89-19.65-3.83-13.01-11.16-25.02-21.02-34.28-2.21,4.04-4.41,8.08-6.64,12.12,4.11,3.86,7.81,8.14,10.88,12.87,13.41,20.66,13.72,47.45,8.05,71.42-.9,3.82-1.41,8.9,2.1,10.67,2.08,1.04,4.72.19,6.37-1.45,1.65-1.64,2.5-3.91,3.17-6.14,4.43-14.66,3.1-30.38.98-45.54Z"/><path class="cls-1" d="m187.68,116.45c-1.44-7.02-1.86-14.24-2.25-21.38-.18-3.28-.29-6.6-.65-9.86-.43-3.87-1.37-7.77-2.38-11.53-2.01-7.49-4.8-14.66-8.58-21.43-1.29-2.31-2.61-4.6-3.99-6.86-2.38-2.74-4.81-5.43-7.24-8.13-1.02,1.87-2.05,3.75-3.08,5.61,4.11,3.86,7.81,8.14,10.88,12.87,13.41,20.66,13.72,47.45,8.05,71.42-.9,3.82-1.41,8.9,2.1,10.67,2.08,1.04,4.72.19,6.37-1.45,1.65-1.64,2.5-3.91,3.17-6.14.36-1.21.68-2.42.97-3.64-1.56-3.28-2.69-6.78-3.38-10.15Z"/><path class="cls-1" d="m36.02,234.48c6.64,5.61,16.82,6.33,24.66,2.98,6.79-2.9,12.34-9.25,14.97-16.01,2.89-7.44,2.84-14.85.58-22.26-1.05-3.44-2.56-6.76-5-9.86-2.09-2.65-4.93-4.71-7.98-6.48-3.49-2.02-5.83-3.06-9.74-4.02-.95-.23-1.92-.42-2.88-.57-.12,0-1.03-.11-1.04-.11-.36-.03-.71-.05-1.07-.07-.11,0-.21,0-.32-.01-7.9,17.52-12.47,36.57-13.33,55.77.4.12.79.33,1.16.64Z"/><path class="cls-1" d="m115.48,159.32c7.75-.47,15.51-1.99,22.83-4.59,8.23-2.92,15.95-7.33,24.03-10.66,7.98-3.29,16.41-5.11,25.06-4.38,7.96.67,15.56,3.46,22.28,7.74,8.84,5.64,16.19,13.26,22.78,21.46-11.01-15.58-23.86-29.86-38.26-42.37-1.19-1.04-2.51-2.11-4.08-2.26-1.72-.16-3.31.82-4.76,1.76-8.51,5.48-17.22,10.7-26.5,14.74-27.88,12.12-60.57,12.71-88.25,1.98-1.4,1.62-2.75,3.29-4.07,4.97,14.67,8.79,31.88,12.64,48.95,11.6Z"/><path class="cls-1" d="m111.17,109.17c-1.85,3.46-4.75,6.35-8.22,8.19-2.05,1.08-4.26,1.8-6.41,2.66-10.6,4.21-19.77,11.96-25.69,21.71-.36.59-.71,1.23-.66,1.92.07.86.77,1.53,1.45,2.07,2.69,2.13,5.85,3.63,9.12,4.69,8.76,2.84,18.18,2.55,27.39,2.23,9.79-.34,19.63-.68,29.22-2.67,18.28-3.79,34.76-13.37,50.88-22.79.97-.57,2.03-1.26,2.26-2.36.33-1.56-1.17-2.85-2.52-3.7-11.47-7.22-24.84-11.39-38.38-11.97-3.02-.13-6.32-.18-8.66-2.1-.65-.54-1.23-1.22-2.05-1.44-.56-.15-1.15-.07-1.72.02-8.86,1.37-17.73,2.74-26.01,3.54Z"/><path class="cls-1" d="m130.99,112.51c3.93-.85,7.03-2,10.42-4.02.34-.2.64-.38.93-.56-.49-.24-.96-.51-1.39-.87-.65-.54-1.23-1.22-2.05-1.44-.56-.15-1.15-.07-1.72.02-8.86,1.37-17.73,2.74-26.01,3.54-.12.22-.25.42-.37.63,6.13,3.26,13.56,4.14,20.19,2.7Z"/><path class="cls-1" d="m64.24,77.16c-5.11-1.79-9.8-4.89-13.45-8.87-3.75,12.27-5.23,25.29-4.95,38.14.37,17.24,3.78,34.4,10.01,50.47,1.53,3.95,4.48,8.75,7.14,8.07,4.48-1.14,7.13-6.04,7.33-10.65.2-4.62-1.47-9.08-2.87-13.48-6.53-20.48-7.61-42.65-3.21-63.68Z"/><path class="cls-1" d="m50.17,78.75c1.76,7.02,3.66,13.98,5.28,21.04,2.87,12.49,6.34,24.87,9.64,37.26,1.63,6.11,3.32,12.19,4.89,18.32.05.22.11.43.16.65.1-.56.16-1.13.18-1.69.2-4.62-1.47-9.08-2.87-13.48-6.53-20.48-7.61-42.65-3.21-63.68-5.11-1.79-9.8-4.89-13.45-8.87-.84,2.74-1.55,5.52-2.16,8.32.71.4,1.29,1.09,1.55,2.13Z"/><path class="cls-1" d="m125.92,91.38c-4.74-1.31-10.08-.25-13.96,2.77-2.38,1.85-4.25,4.5-4.71,7.48-.46,2.98.67,6.27,3.16,7.98,2.41,1.65,5.55,1.62,8.46,1.4,5.32-.4,10.62-1.24,15.8-2.5,2.13-.52,4.56-1.39,5.23-3.48.51-1.59-.23-3.3-1.11-4.71-3.08-4.9-8.39-7.7-12.88-8.94Z"/><path class="cls-1" d="m26.8,224.04c7.12,3.29,14.45,6.1,21.94,8.42,2.06.64,4.19,1.24,6.34,1.09,3.37-.24,6.34-2.32,8.7-4.74,7.44-7.63,10.19-18.86,9.87-29.51-.11-3.63-.64-7.49-3.01-10.24-2.49-2.89-6.46-3.94-10.17-4.83-7.73-1.86-15.46-3.73-23.19-5.59,3.02,7.59,2.64,16.22.33,24.06-2.31,7.84-6.44,15.01-10.81,21.35Z"/><path class="cls-1" d="m42.98,180.22c5.5,1.32,11,2.65,16.51,3.97,3.06.74,6.16,1.49,8.95,2.94,1.23.64,2.54,1.67,2.51,3.06-8.17-1.84-16.35-3.68-24.52-5.51-2.11-.47-4.41-1.08-5.64-2.85-.32-.46-.52-1.16-.1-1.54.18-.16.43-.21.67-.24,1.09-.15,2.22.03,1.63.17Z"/><path class="cls-1" d="m42.69,187.85c9.39,2.3,18.78,4.6,28.18,6.89.58.14,1.19.3,1.63.7.49.45.69,1.13.83,1.78.56,2.49.74,5.06.51,7.6-.04.5-.12,1.03-.44,1.42-.6.73-1.73.62-2.66.44-7.7-1.46-15.41-2.93-23.11-4.39-1.93-.37-3.99-.8-5.36-2.22-1.15-1.19-1.6-2.89-1.81-4.53-.36-2.76.24-6.16,2.23-7.7Z"/><path class="cls-1" d="m40.54,203.12c9.48,3.2,19.12,5.94,28.87,8.2.77.18,1.57.37,2.17.89.6.52.9,1.47.44,2.11-.54.76-1.69.64-2.6.44-9.15-2.04-18.22-4.47-27.06-7.58-.94-.33-1.96-.73-2.48-1.58-.52-.85-.17-2.27.66-2.47Z"/><path class="cls-1" d="m6.48,219.48c5.53,5.02,12.92,9.67,20.04,7.41,3.46-1.1,6.25-3.7,8.47-6.57,3.74-4.83,6.18-10.54,8.04-16.36,1.41-4.4,2.52-8.97,2.35-13.59-.17-4.62-1.73-9.32-5.03-12.56-5.68-5.57-15.07-5.45-22.35-2.26,2.41,5.87,1.38,12.54-.01,18.73-1.36,6.05-3.12,12.19-6.87,17.14-2.25,2.97-5.31,5.76-4.64,8.05Z"/><path class="cls-1" d="m23.86,174.04c2.09,7.14-.1,14.75-2.35,21.84-2.22,7-4.57,14.07-8.68,20.15-.81,1.2-1.71,2.37-2.93,3.15-1.22.77-2.82,1.08-4.12.46-1.33-.63-2.07-2.06-2.59-3.43-1.76-4.66-1.98-9.8-1.37-14.74.88-7.07,3.43-13.92,7.39-19.84,2.37-3.54,5.45-6.9,9.52-8.16,2.02-.63,4.82-.51,5.14.58Z"/><path class="cls-1" d="m11.37,188.18c-2.21,4.29-3.46,9.07-3.63,13.9-.03.82-.02,1.68.38,2.39.39.72,1.29,1.22,2.05.9.39-.17.68-.51.93-.85,2.54-3.33,4.55-7.05,5.93-11.01.55-1.57,1-3.2.98-4.87-.02-1.33-.45-2.8-1.62-3.43-1.12-.6-2.58-.18-3.51.69-.93.87-1.42,2.11-1.51,2.27Z"/><path class="cls-1" d="m27.22,176.41c5.44.06,10.8,2.63,14.24,6.84,1.04,1.28,1.94,2.76,2.07,4.41.13,1.64-.7,3.45-2.24,4.03-1.69.64-3.55-.32-5.02-1.37-3.78-2.71-6.92-6.29-9.11-10.39-.38-.71-.74-1.49-.6-2.28.14-.79,1-1.49.66-1.25Z"/><path class="cls-1" d="m25.68,190.81c.76.63,1.54,1.23,2.35,1.79.45.32.95.64,1.51.61.67-.04,1.23-.62,1.4-1.27.17-.65.02-1.35-.22-1.98-.49-1.23-1.36-2.3-2.47-3.01-.29-.18-.6-.35-.94-.36-.49,0-.93.32-1.26.68-.57.61-.99,1.41-.96,2.24.03.83.62,1.67.61,1.3Z"/><path class="cls-1" d="m56.54,159.9c5.37-1.47,10.2-4.85,13.53-9.41-.19-.97-.37-1.94-.56-2.91,1.18-.07,2.19.82,2.99,1.69,1.95,2.11,4.72,5.82,3.58,8.45-2.23,5.12-6.12,8.34-13.54,9.85-3.35.68-6.5.64-8.12-2.12-1.62-2.76-1.09-6.79,1.57-8.58.39,1.05.78,2.1.55,3.04Z"/><path class="cls-1" d="m109.05,33.29c-10.07,2.9-17.04,11.93-22.55,20.85-5.51,8.92-10.61,18.62-19.27,24.52-1.75,1.19-3.75,2.24-5.86,2.09-1.74-.12-3.31-1.03-4.81-1.92-2.66-1.58-5.42-3.25-7.06-5.87-1.23-1.97-1.72-4.32-1.93-6.64-.78-8.55,1.88-17.17,6.28-24.56,4.39-7.38,10.44-13.64,16.81-19.4,10.25-9.24,22.03-17.59,35.61-20.07,7.23-1.32,14.71-.92,21.92.52,15.12,3.02,29.28,10.65,40.12,21.61,4.23,4.28,8.08,9.32,9.15,15.24,1.06,5.92-1.44,12.82-6.96,15.2-4.95,2.14-10.73.2-15.34-2.59-5.82-3.53-10.73-8.35-16.09-12.54-5.36-4.19-11.49-7.87-18.26-8.46-5.19-.45-10.11,1.53-11.74,2Z"/><path class="cls-1" d="m158.91,47.56c-10.78-6.43-15.2-20.24-25.97-26.23-4.28-2.38-9.33-3.38-14.38-3.35-5.24.03-10.56,1.32-15.51,3.43-23.44,10-32.18,36.64-39.39,59.08,1.27-.37,2.47-1.07,3.57-1.82,8.66-5.9,13.77-15.6,19.27-24.52,5.51-8.92,12.48-17.95,22.55-20.85,1.63-.47,6.55-2.46,11.74-2,6.78.59,12.9,4.27,18.26,8.46,5.36,4.19,10.27,9.01,16.09,12.54,4.61,2.79,10.39,4.73,15.34,2.59,1.85-.8,3.36-2.11,4.51-3.72-5.5.53-11.42-.81-16.09-3.6Z"/><path class="cls-1" d="m70.56,26.41c-10.35,11.52-18.57,26.07-18.09,41.55.04,1.31.16,2.69.88,3.79.71,1.1,2.2,1.82,3.38,1.25.71-.34,1.17-1.03,1.57-1.71,5.09-8.48,7.42-18.32,11.64-27.26,2.5-5.29,5.66-10.27,9.39-14.78.88-1.07,1.83-2.17,2.12-3.52.29-1.35-.36-3.02-1.71-3.33-.68-.15-1.38.06-2.04.3-3.52,1.28-6.8,3.34-7.14,3.71Z"/><path class="cls-1" d="m155.83,33.05c1.09,3.87,3.73,7.27,7.2,9.29,1.59.92,3.39,1.57,5.23,1.52,1.84-.05,3.71-.88,4.73-2.4.74-1.11.99-2.49.93-3.83-.2-4.57-3.73-8.38-7.68-10.7-2.89-1.7-6.13-2.84-9.46-3.18-1.36-.14-2.96-.04-3.76,1.07-.82,1.14-.35,2.74.25,4.01,1.08,2.25,2.51,4.34,2.56,4.22Z"/><path class="cls-1" d="m90.06,13.78c-1.71.66-3.34,1.54-4.82,2.62-1.06.77-2.15,2.07-1.55,3.23.55,1.06,2.05,1.06,3.22.81,3.58-.76,6.96-2.48,9.69-4.92.77-.69,1.55-1.6,1.42-2.63-.13-1.04-1.16-1.73-2.18-1.99-2.56-.65-5.48.87-5.78,2.88Z"/><path class="cls-1" d="m49.18,100.41c1.46,12.78,4.31,25.4,8.49,37.57,1.75,5.08,3.74,10.56,2.11,15.68-.83.03-1.41-.79-1.81-1.52-2.79-5.19-4.46-10.9-6.09-16.56-3.73-12.92-7.43-26.65-3.88-39.63.86,1.89,1.12,3.95,1.18,4.46Z"/><path class="cls-1" d="m187.73,72.2c2.23,13.59,4.47,27.28,4.03,41.04-.02.5-.04,1.02-.3,1.44-.26.42-.84.7-1.27.45-.23-.13-.37-.37-.49-.6-2.51-4.71-1.94-10.38-1.76-15.71.25-7.1-.32-14.22-1.68-21.19-.41-2.11-.89-4.28-.41-6.37.05-.23.13-.47.3-.63.37-.34,1.03-.11,1.29.33.26.43.23.98.28,1.25Z"/><path class="cls-1" d="m125.58,93.24c-3.13-1.2-6.74-1.04-9.76.41-3.02,1.45-5.39,4.19-6.4,7.38-.18.58-.32,1.2-.18,1.79.18.69.72,1.22,1.24,1.71.46.43.96.89,1.59.97.79.1,1.52-.43,2.08-1,1.79-1.81,2.91-4.27,4.96-5.79,1.55-1.15,3.5-1.63,5.42-1.83.72-.07,1.51-.13,2.04-.63.44-.41.6-1.1.39-1.67-.21-.57-.73-1.09-1.38-1.34Z"/><path class="cls-1" d="m144.29,111.14c14.12,2.24,27.85,6.89,40.42,13.69-3.06,3.16-6.93,5.54-11.14,6.84-2.97.92-6.32,1.26-9.07-.18-2.06-1.09-3.51-3.03-4.96-4.85-4.47-5.59-9.72-10.55-15.25-15.48Z"/><path class="cls-1" d="m141.69,112.04c6.32,6.57,11.83,13.92,16.37,21.83.22.39.45.79.48,1.24.06.91-.71,1.65-1.45,2.19-1.7,1.24-3.62,2.18-5.64,2.76-.62.18-1.28.32-1.9.16-1.39-.36-1.97-1.98-2.31-3.37-1.03-4.24-1.86-8.56-3.52-12.6-1.74-4.22-4.44-8.65-3.13-13.02.64.45,1.28.9,1.1.81Z"/><path class="cls-1" d="m103.07,121.45c-8.96,3.86-17.07,9.68-23.59,16.94-.86.96-1.75,2.11-1.61,3.39.1.94.75,1.73,1.43,2.4,1.43,1.4,3.13,2.52,4.98,3.28,1,.41,2.15.72,3.14.28.83-.37,1.36-1.18,1.84-1.95,5.01-8.02,10.02-16.03,15.03-24.05-.39-.34-.97-.38-1.21-.28Z"/><path class="cls-1" d="m161.75,156.54c5.59,21.61,11.5,43.13,17.72,64.56,2.3,7.93,4.65,15.87,7.95,23.43,2.23,5.12,4.97,10.15,9.12,13.88,4.15,3.73,9.94,5.99,15.39,4.8,2.96-.65,5.62-2.24,8.02-4.08,12.95-9.92,18.94-27.16,17.98-43.44-.96-16.29-8.07-31.68-17.27-45.15-5.68-8.32-12.38-16.23-21.07-21.32-8.69-5.09-19.68-7.03-28.98-3.14-4.78,2-9.83,6.71-8.86,10.47Z"/><path class="cls-1" d="m154.97,159.34c7.72,36.66,15.45,73.31,23.17,109.97.71,3.35,1.4,6.91.21,10.12-.8,2.15-2.36,3.92-3.99,5.54-2.89,2.87-6.76,5.63-10.71,4.63-4.72-1.2-6.53-6.82-7.52-11.6-5.6-27.09-10.06-54.44-12.65-81.98-1.02-10.86-1.74-21.91.45-32.6.66-3.22,2.04-6.86,5.2-7.77,3.41-.98,7.11,2.91,5.83,3.69Z"/><path class="cls-1" d="m51.65,249.67c-3.11,7.9-4.49,16.48-4.02,24.96.22,3.93.97,8.13,3.74,10.93,2.1,2.13,5.06,3.13,7.91,4.06,2.91.95,5.82,1.9,8.73,2.85,1.24.41,2.75.76,3.73-.09.62-.54.82-1.42.97-2.23,1.86-10.29,1.03-20.85.2-31.28-.24-3.05-.57-6.31-2.52-8.68-1.46-1.77-3.65-2.79-5.87-3.39-4.77-1.29-11.4-.88-12.87,2.85Z"/></svg>