<?xml version="1.0" encoding="UTF-8"?><svg id="Layer_1" xmlns="http://www.w3.org/2000/svg" viewBox="0 0 300.23 94.05"><defs><style>.cls-1{fill:none;stroke:#1d1d1b;stroke-miterlimit:10;stroke-width:3px;}</style></defs><path class="cls-1" d="m298.69,41.16c-.37-8.52-4.06-17.35-11.35-21.77-3.47-2.1-7.49-3.08-11.47-3.83-23.16-4.38-47.53-2.08-69.46,6.54,4.76,13.26,1.01,28.78-4.6,42.35-.54,1.31-1.11,2.77-.61,4.1.28.74.85,1.32,1.42,1.86,14.87,14.26,36.12,19.67,56.62,21.7,6.81.68,14.07.96,20.09-2.3,8.4-4.54,11.99-14.51,14.79-23.63,2.5-8.15,4.94-16.51,4.57-25.03Zm-64.39-16.02c7.68-.89,15.51-1.2,23.24-1.55,7.83-.36,15.66-.72,23.49-1.06,3.68-.16,3.67,5.56,0,5.72-7.84.33-15.66.8-23.49,1.36-7.71.55-15.5,1.25-23.24,1.37-1.58.02-2.92-1.35-2.92-2.92,0-1.71,1.35-2.74,2.92-2.92Zm40.67,61.24c-8.36-2.19-16.71-4.68-25.01-7.1-8.24-2.41-16.48-4.83-24.73-7.19-3.39-.97-1.94-6.26,1.46-5.29,8.26,2.35,16.5,4.76,24.75,7.16,8.32,2.42,16.68,4.77,24.97,7.25,3.31.99,1.92,6.06-1.43,5.18Zm2.92-17.04c-8.38-1.64-16.76-3.27-25.15-4.82-4.29-.79-8.58-1.55-12.86-2.39-4.03-.79-8.66-1.08-12.39-2.85-2.86-1.36-1.12-5.21,1.47-5.43,2.3-.2,4.68.48,6.95.88,2.03.36,4.06.72,6.09,1.09,4.17.75,8.31,1.63,12.46,2.48,8.35,1.72,16.7,3.48,25.04,5.25,3.8.81,2.17,6.54-1.6,5.8Zm6.47-21.96c-9.18-.29-18.36-.58-27.53-.91-9.15-.34-18.43-.4-27.54-1.38-3.78-.4-3.97-6.05,0-6.04,9.17.02,18.38.8,27.54,1.21,9.18.41,18.36.79,27.53,1.17,3.82.16,3.83,6.07,0,5.95Z"/><path class="cls-1" d="m278.98,87.88c-13.79-1.54-27.43-4.27-40.63-8.57-12.6-4.1-24.63-9.1-36.44-15.08-.03.07-.06.15-.09.22-.54,1.31-1.11,2.77-.61,4.1.28.74.85,1.32,1.42,1.86,14.87,14.26,36.12,19.67,56.62,21.7,6.81.68,14.07.96,20.09-2.3.89-.48,1.72-1.04,2.52-1.64-.96-.09-1.92-.19-2.88-.3Z"/><path class="cls-1" d="m42.48,15.35c-1.85-3.48-5.08-6.14-8.74-7.59-3.66-1.45-7.74-1.72-11.63-1.1-2.57.41-5.11,1.23-7.23,2.74-2.11,1.51-3.76,3.79-4.16,6.36-.15.95-.09,2.01.54,2.74.91,1.04,2.54.92,3.9.67,4.19-.75,8.33-1.86,12.57-2.16,4.24-.3,8.71.29,12.25,2.67.66.44,1.3.95,2.07,1.13.77.18,1.72-.09,2.01-.83.2-.52.03-1.11-.18-1.63-.71-1.81-1.77-3.47-1.41-3Z"/><path class="cls-1" d="m210.3,21.02c-7.8,2.18-15.21,5.74-21.79,10.48-1.35.97-2.72,2.02-4.35,2.41-1.51.36-3.08.12-4.61-.12-24.56-3.91-49.16-7.93-73.12-14.57C83.16,12.76,60.28,3.82,36.19,2.1c-8.31-.59-17.14-.18-24.21,4.24-4.89,3.06-8.78,8.77-7.45,14.39.87,3.67,3.8,6.57,7.15,8.29,3.35,1.72,7.11,2.44,10.82,3.11,51.73,9.4,104.19,14.74,156.75,15.94.97.02,1.96.05,2.86.42,1.3.54,2.21,1.71,3.08,2.82,5,6.37,11.26,14.25,17.88,19.2,4.23-8.24,8.17-18.97,8.99-28.2.65-7.34-.95-14.67-1.75-21.3Zm-173.23,3.64c-.51.42-1.03.84-1.63,1.14-.35.18-1.18.51-1.15.49-.24.1-.47.21-.71.3-1.03.37-2.16.5-3.25.54-2.03.06-4.07-.18-6.06-.59-2.03-.42-4.15-1.09-5.84-2.34-2.18-1.61-3.7-4-3.59-6.8.11-2.9,1.92-5.27,4.29-6.81,2.39-1.55,5.14-1.89,7.89-1.35.26.05.51.14.76.2,1.49-.15,2.99-.12,4.44.18,3.37.7,6.48,3.56,7.33,6.91.74,2.92-.14,6.19-2.49,8.15Z"/><path class="cls-1" d="m204.74,64.54c-5.02-14.24-19.65-21.33-33.62-23.74-7.78-1.34-15.73-1.4-23.61-1.35-8.31.05-16.62.19-24.92-.02-16.73-.43-33.45-1.3-50.12-2.68-16.88-1.4-33.69-3.14-50.46-5.52-2.69-.38-5.38-.8-8.06-1.22,2.74,1.03,5.66,1.59,8.54,2.12,51.73,9.4,104.19,14.74,156.75,15.94.97.02,1.96.05,2.86.42,1.3.54,2.21,1.71,3.08,2.82,5,6.37,11.26,14.25,17.88,19.2.79-1.54,1.57-3.19,2.32-4.89-.27-.29-.49-.65-.64-1.09Z"/><path class="cls-1" d="m50.02,3.66c-9.49-1.75-19.25-3.04-28.77-1.42-4.97.84-9.98,2.58-13.55,6.13-3.57,3.55-5.35,9.23-3.25,13.82,1.65,3.61,5.26,5.89,8.88,7.5,7.62,3.39,15.99,4.67,24.24,5.89,16.21,2.41,32.46,5.49,48.83,6.19,2.48-8.3,4.97-18.07,7.39-26.38-14.06-5.77-28.83-8.97-43.77-11.72Zm-12.95,21c-.51.42-1.03.84-1.63,1.14-.35.18-1.18.51-1.15.49-.24.1-.47.21-.71.3-1.03.37-2.16.5-3.25.54-2.03.06-4.07-.18-6.06-.59-2.03-.42-4.15-1.09-5.84-2.34-2.18-1.61-3.7-4-3.59-6.8.11-2.9,1.92-5.27,4.29-6.81,2.44-1.58,8.37-1.17,8.65-1.15,4.04.26,11.1,3.25,11.4,8.19.18,3.01.23,5.08-2.12,7.04Z"/><path class="cls-1" d="m67.47,33.37c-14.72-1.7-30.06-1.16-44.25-6-5.96-2.03-11.47-4.91-16.35-8.91-1.02-.84-2.07-1.77-3.09-2.78-.42,2.19-.26,4.46.67,6.5,1.65,3.61,5.26,5.89,8.88,7.5,7.62,3.39,15.99,4.67,24.24,5.89,16.21,2.41,32.46,5.49,48.83,6.19.38-1.27.76-2.58,1.14-3.9-6.42-2.46-13.26-3.71-20.07-4.49Z"/><path class="cls-1" d="m206.9,24.44c-7.44,2.89-14.57,6.58-21.21,11-.53.35-1.12.85-1.01,1.48.06.32.29.57.54.77,1.75,1.36,4.28.54,6.31-.35,6.54-2.87,13.34-6.31,16.98-12.46-.9-.21-1.89-.09-1.61-.44Z"/><path class="cls-1" d="m167.94,34.79c-23.94-3.78-47.63-9.12-70.87-15.97-.7.52-.62,1.67-.05,2.34s1.44.98,2.26,1.25c21.95,7.29,44.67,12.22,67.67,14.69,1.66.18,3.79.08,4.4-1.48-1.39-1.07-3.18-1.61-3.41-.83Z"/><path class="cls-1" d="m89.22,16.12c-17.14-4.82-34.59-8.58-52.2-11.25-3.1-.47-6.41-.88-9.26.42,3.82,3.12,9.02,3.77,13.9,4.46,15,2.11,29.79,5.66,44.11,10.57,1.12.38,2.29.78,3.46.64,1.18-.14,2.36-.99,2.46-2.17.14-1.71-1.83-2.73-2.47-2.67Z"/><path class="cls-1" d="m296.79,44.67c-.26-5.41-1.57-10.76-3.85-15.67-1-2.16-2.37-4.4-4.6-5.21-.91,1.02-.61,2.6-.21,3.91,1.52,5.02,3.54,9.94,4.22,15.14,1.25,9.66-2.24,19.23-5.68,28.34,1.08.5,2.4-.01,3.2-.89.8-.87,1.2-2.03,1.57-3.16.95-2.83,1.89-5.67,2.84-8.5,1.67-5,2.69-10.23,2.51-13.96Z"/><path class="cls-1" d="m262.09,16.01c-15.04-1.19-30.3.47-44.73,4.88-.82.25-1.67.53-2.28,1.13-.61.6-.88,1.64-.38,2.33.52.71,1.55.76,2.43.69,2.72-.24,5.35-1.04,7.99-1.73,6.74-1.77,13.66-2.86,20.62-3.25,5.51-.31,11.13-.2,16.4-1.83.5-.15,1.08-.42,1.15-.94-.74-.63-1.69-1.01-1.2-1.28Z"/></svg>