<?xml version="1.0" encoding="UTF-8"?><svg id="Layer_1" xmlns="http://www.w3.org/2000/svg" viewBox="0 0 408.97 651.52"><defs><style>.cls-1{fill:none;stroke:#1d1d1b;stroke-miterlimit:10;stroke-width:3px;}</style></defs><path class="cls-1" d="m313.81,263.89c15.49-.6,31.15-1.2,46.37,1.73,3.18.61,6.4,1.41,9.08,3.22,2.68,1.81,4.75,4.83,4.61,8.06-.15,3.52-2.9,6.52-6.11,7.96-3.22,1.44-6.84,1.6-10.37,1.6-10.68-.01-21.36-1.33-31.72-3.92-5.78-1.44-11.62-3.37-16.18-7.2-.75-.63-1.48-1.35-1.82-2.27-.48-1.33-.02-2.8.44-4.15.69-2.02,1.41-4.1,2.86-5.66,1.45-1.56,3.83-2.47,2.84.62Z"/><path class="cls-1" d="m241.88,60.56c-49.17-6.59-98.74-10.01-148.32-10.25-9.31-.05-19.18.18-27.04,5.36-13,8.57-11.33,18.51-12.59,34.45-4.26,54.04-8.51,108.09-12.77,162.13-.93,11.79-4.96,34.36,4.66,40.69,4.1,2.7,9.13,3.28,13.96,3.79,76.38,8.16,152.62,17.81,228.65,28.93,6.63.97,13.38,1.95,20,.88,6.62-1.07,13.21-4.51,16.59-10.52,2.21-3.92,2.03-22.02,2.64-26.52,4.24-30.87,9.32-48.27,13.56-79.13,3.92-28.57,7.85-57.23,8.31-86.08.23-14.81-1.2-31.39-11.88-41.21-4.7-4.32-10.7-6.79-16.66-8.83-26.56-9.08-54.86-10.45-79.11-13.7Z"/><path class="cls-1" d="m295.63,14.26c-51.07-6.59-102.55-10.01-154.05-10.25-9.67-.04-19.92.18-28.08,5.36-13.5,8.57-16.14,26.83-17.44,42.77-4.42,54.04-8.84,108.08-13.26,162.13-.96,11.79-.78,26.04,9.21,32.37,4.26,2.7,9.48,3.28,14.5,3.79,79.33,8.17,160.99,15.92,238.32,23.88,6.92.71,13.9,1.95,20.78.88,6.88-1.07,13.73-4.51,17.23-10.52,2.29-3.92,2.98-8.55,3.62-13.05,4.4-30.87,7.96-56.68,12.37-87.55,4.07-28.57,8.16-57.23,8.63-86.08.24-14.81-1.25-31.39-12.34-41.21-4.88-4.32-11.11-6.79-17.31-8.83-27.59-9.08-56.98-10.45-82.17-13.7Z"/><path class="cls-1" d="m111.6,254.77c-7.09-.09-14.64.03-20.59,3.89-8.63,5.6-11.01,16.95-12.57,27.12-10.62,69.16-17.68,138.8-24.73,208.42-3.13,30.92-6.27,61.9-6.38,92.98-.04,12.16,1.23,26.05,10.97,33.33,5.5,4.11,12.63,5.17,19.44,6.09,72.73,9.88,145.62,19.26,218.92,23.19,17.66.94,38.84-.2,47.93-15.37,3.77-6.28,4.57-13.84,5.3-21.13,5.62-56.77,11.24-113.53,16.87-170.3,4.17-42.07,6.31-65.62,10.47-107.69,1.15-11.58,5.04-35.71-2.14-47.69-3.56-5.94-16.07-8.57-22.97-9.22-38.96-3.72-196.83-23.02-240.52-23.6Z"/><path class="cls-1" d="m249.81,11.76C198.73,5.17,147.25,1.74,95.76,1.5c-9.67-.05-19.92.18-28.08,5.36-13.51,8.57-16.14,26.83-17.44,42.77-4.42,54.04-8.84,108.09-13.26,162.13-.96,11.79-.78,26.04,9.21,32.37,4.26,2.7,9.48,3.28,14.5,3.79,79.33,8.16,160.99,15.92,238.32,23.88,6.92.71,13.9,1.95,20.77.88,6.88-1.07,13.73-4.51,17.24-10.52,2.29-3.92,2.98-8.55,3.62-13.05,4.4-30.87,7.96-56.68,12.36-87.55,4.07-28.57,8.16-57.23,8.63-86.08.24-14.81-1.25-31.39-12.34-41.21-4.88-4.32-11.11-6.79-17.31-8.83-27.58-9.08-56.98-10.45-82.16-13.7Z"/><path class="cls-1" d="m65.77,252.27c-7.09-.09-14.64.03-20.59,3.89-8.63,5.6-11.01,16.95-12.57,27.12-10.62,69.16-17.68,138.8-24.73,208.42-3.13,30.92-6.27,61.9-6.38,92.98-.04,12.16,1.23,26.05,10.98,33.33,5.5,4.11,12.63,5.17,19.44,6.09,72.73,9.88,145.62,19.26,218.92,23.19,17.66.95,38.84-.2,47.93-15.37,3.77-6.28,4.57-13.84,5.3-21.12,5.62-56.77,11.25-113.54,16.87-170.3,4.17-42.07,6.3-65.62,10.47-107.69,1.15-11.57,5.04-35.71-2.14-47.69-3.56-5.94-16.07-8.57-22.97-9.22-38.96-3.72-196.83-23.02-240.52-23.6Z"/><path class="cls-1" d="m72.16,21.31c-5.66,63.54-11.33,127.08-16.99,190.63-.48,5.44-.94,11.09.97,16.2,1.91,5.11,6.93,9.5,12.35,8.81,4.92-5.32,5.88-13.07,6.61-20.27,4.5-44.42,9.01-88.83,13.51-133.25,1.93-18.99,3.85-38.07,2.94-57.14-.12-2.43-.3-4.92-1.31-7.14-2.17-4.75-8.41-7.14-13.2-5.06-4.79,2.08-7.3,8.27-4.88,7.22Z"/><path class="cls-1" d="m106.12,18.61c-3.35,26.59-5.07,53.39-5.15,80.19,0,1.9.84,4.54,2.7,4.12,5.29-8.25,7.61-18.03,9.26-27.7,3.07-18,4.06-36.35,2.96-54.58-.18-2.92-.98-6.55-3.84-7.2-2.38,1.57-3.89,4.37-5.93,5.16Z"/><path class="cls-1" d="m57.13,318.88c-13.49,84.08-24.2,168.6-32.12,253.39-1.41,15.07-.58,34.06,13.24,40.22,2.15.96,4.89,1.42,6.7-.1,1.05-.88,1.55-2.25,1.99-3.55,13.33-39.35,16.89-81.23,20.36-122.63,4.13-49.32,8.27-98.67,10.17-148.13.21-5.42.36-11.03-1.63-16.08-2-5.05-6.73-9.42-12.15-9.25-5.43.17-10.21,6.5-6.55,6.13Z"/><path class="cls-1" d="m281.57,288.96c6.91-1.25,13.98-2.49,20.91-1.36,6.93,1.14,13.81,5.15,16.44,11.65,1.28,3.16,1.48,6.64,1.54,10.05.48,23.83-4.48,47.39-9.41,70.71-.72,3.42-1.89,7.37-5.18,8.55-2.57.92-5.53-.39-7.24-2.52-1.71-2.13-2.38-4.89-2.76-7.59-1.38-9.98.75-20.07,2.83-29.93,2.08-9.86,4.12-19.99,2.58-29.94-1.54-9.96-7.44-19.87-16.91-23.32-.97-.35-2-.66-2.77-1.35-2.86-2.58.21-7.14-.04-4.96Z"/><path class="cls-1" d="m339.59,44.78c4.57,32.78.87,66.09-2.84,98.98-1.13,10.02-2.38,20.4-7.62,29.02-6.34-1.73-7.8-9.94-7.93-16.51-.73-37.1,2.35-74.27,9.17-110.74.67-3.56,2.56-8.06,6.16-7.66,2.75.3,4.2,3.45,4.58,6.19.38,2.74.34,5.79-1.53.72Z"/><path class="cls-1" d="m82.16,282.64c-5.36-.5-16.17-1.03-23.56-1.33-7.96-.32-8.88,16.33-1.41,16.93,10.65.85,21.71,3.14,33.42,4.08,21.61,1.73,43.24,3.09,64.89,4.08,22.27,1.02,18.11-15.65,10.07-17.54-11.46-2.7-55.07-3.59-83.41-6.22Z"/><path class="cls-1" d="m162.36,300.48c-2.51.46-5.03.86-7.6,1.15-6.31.69-12.64.74-18.97.71-8.13-.05-16.38-.85-24.39-2.57-6.47-.44-12.94-.98-19.39-1.68-7.99-.87-16.15-1.5-24.04-3.08-5.86-1.17-11.56-3.61-15.41-8.22-1.35,4.81.08,11.09,4.62,11.46,10.65.85,21.71,3.14,33.42,4.08,21.61,1.73,43.24,3.09,64.89,4.08,9.93.45,14.6-2.61,16.02-6.31-3.05.15-6.1.28-9.16.39Z"/><path class="cls-1" d="m159.18,290.9c-31.37-3.01-62.8-5.42-94.26-7.23-2.19-.13-4.92.06-5.8,2.08,1.22,1.54,3.39,1.85,5.34,2.04,25.26,2.5,50.55,4.62,75.87,6.37,6.93.48,13.93.92,20.78-.23.78-.13,1.75-.51,1.74-1.3-1.48-1.45-3.56-2.25-3.67-1.73Z"/><path class="cls-1" d="m92.26,204.38c-5.36-.5-16.17-1.03-23.56-1.33-7.96-.32-8.88,16.33-1.41,16.93,10.65.85,21.71,3.14,33.42,4.08,21.61,1.73,43.24,3.09,64.89,4.08,22.27,1.02,18.11-15.65,10.07-17.54-11.46-2.7-55.07-3.59-83.41-6.22Z"/><path class="cls-1" d="m172.46,222.22c-2.51.46-5.03.86-7.6,1.15-6.31.69-12.64.74-18.97.71-8.13-.05-16.38-.85-24.39-2.57-6.47-.44-12.94-.98-19.39-1.68-7.99-.87-16.15-1.5-24.04-3.08-5.86-1.17-11.56-3.61-15.41-8.22-1.35,4.81.08,11.09,4.62,11.46,10.65.85,21.71,3.14,33.42,4.08,21.61,1.73,43.24,3.09,64.89,4.08,9.93.45,14.6-2.61,16.02-6.31-3.05.15-6.1.28-9.16.39Z"/><path class="cls-1" d="m169.28,212.64c-31.37-3.01-62.8-5.42-94.26-7.23-2.19-.13-4.92.06-5.8,2.08,1.22,1.54,3.39,1.85,5.34,2.04,25.26,2.5,50.55,4.62,75.87,6.37,6.93.48,13.93.92,20.78-.23.78-.13,1.75-.51,1.74-1.3-1.48-1.45-3.56-2.25-3.67-1.73Z"/></svg>