<?xml version="1.0" encoding="UTF-8"?><svg id="Layer_1" xmlns="http://www.w3.org/2000/svg" viewBox="0 0 369.35 173.81"><defs><style>.cls-1,.cls-2{fill:none;stroke:#000;stroke-miterlimit:10;stroke-width:3px;}.cls-2{opacity:.52;}</style></defs><g id="scapula"><path class="cls-1" d="m20.83,171.67c29.3-10.36,58.61-20.71,87.91-31.07,42-14.85,84.01-29.69,126.01-44.54,5.72-2.02,8.79-8.22,6.93-13.99-1.86-5.78-7.98-9.02-13.81-7.32l-129.26,37.79-88.64,25.92c-6.11,1.79-9.5,8.29-7.48,14.31,1.33,3.97,2.66,7.93,3.99,11.9,1.99,5.93,8.45,9.08,14.35,7Zm13.67-29.28c9.82-3.16,18.54-3.35,19.48-.43.94,2.92-6.26,7.85-16.08,11.01-9.82,3.16-18.54,3.35-19.48.43-.94-2.92,6.26-7.85,16.08-11.01Z"/><path class="cls-1" d="m51.67,147.84c.94,2.92-6.26,7.85-16.08,11.01-9.82,3.16-18.54,3.35-19.48.43-.42-1.32.81-3.04,3.18-4.82,2.6,1.74,10.2,1.22,18.62-1.49,5.4-1.74,10-4.01,12.9-6.19.43.29.73.64.87,1.06Z"/><path class="cls-1" d="m239.36,87.95c-1.86-5.78-7.98-9.02-13.81-7.32l-129.26,37.79L7.65,144.34c-2.36.69-4.31,2.09-5.71,3.89.39-4.45,3.44-8.43,8.02-9.77l88.64-25.92,129.26-37.79c5.83-1.7,11.95,1.54,13.81,7.32,1.17,3.65.37,7.47-1.82,10.3.13-1.45-.02-2.95-.5-4.42Z"/><path class="cls-1" d="m279.37,115.86l-6.07-13.11h0s-2.65-5.76-2.65-5.76l-7.98-17.26-4.99-10.79-12.06-26.08-.53-1.15h0s-4.47,5.55-4.47,5.55l-25.33,31.42c1.69,1.72,4.89,5.44,6.54,11.17,1.14,3.96,1.12,7.45.88,9.86-.05.54-.12,1.03-.19,1.46,4.07,1.05,8.13,2.1,12.2,3.15,7.11,1.84,14.22,3.67,21.33,5.51,2.37.61,4.74,1.22,7.11,1.84,1.41.37,2.82.73,4.22,1.09h0c3.99,1.04,7.99,2.07,11.98,3.1Z"/><path class="cls-1" d="m20.83,171.67c29.3-10.36,58.61-20.71,87.91-31.07-.89-2.83-1.83-5.68-2.82-8.57-2.34-6.82-4.79-13.31-7.31-19.49l-88.64,25.92c-6.11,1.79-9.5,8.29-7.48,14.31,1.33,3.97,2.66,7.93,3.99,11.9,1.99,5.93,8.45,9.08,14.35,7Zm17.07-18.7c-9.82,3.16-18.54,3.35-19.48.43-.94-2.92,6.26-7.85,16.08-11.01,9.82-3.16,18.54-3.35,19.48-.43.94,2.92-6.26,7.85-16.08,11.01Z"/><path class="cls-1" d="m141.1,116.51c14.28-4.73,22.64-7.95,26.25-4.31.37.37.85.87.9,1.6.22,3.43-9.78,5.73-27.1,11.58-17.16,5.79-25.6,9.7-28.9,6.04-.28-.31-.94-1.04-.97-2.07-.1-3.89,9.05-5.96,29.82-12.84Z"/><path class="cls-1" d="m83.68,136.41c10.86-3.6,17.21-6.05,19.96-3.28.28.28.65.66.68,1.21.17,2.61-7.43,4.35-20.61,8.8-13.04,4.4-19.46,7.37-21.97,4.59-.22-.24-.72-.79-.74-1.57-.08-2.96,6.88-4.53,22.67-9.76Z"/><path class="cls-1" d="m196.41,106.2c11.11-3.57,19.74-7.61,19.29-9.01-.45-1.4-9.82.36-20.93,3.93-11.11,3.57-19.74,7.61-19.29,9.01.45,1.4,9.82-.36,20.93-3.93Z"/><path class="cls-1" d="m55.48,146.62c.94,2.92-6.26,7.85-16.08,11.01-9.82,3.16-18.54,3.35-19.48.43-.27-.84.13-1.84,1.06-2.91,3.46.82,9.91.08,16.92-2.17,7.01-2.26,12.69-5.41,15.02-8.1,1.39.33,2.29.91,2.56,1.75Z"/><path class="cls-1" d="m107.41,136.69c-2.34-6.82-4.79-13.31-7.31-19.49l-88.64,25.92c-5.72,1.67-9.06,7.49-7.79,13.18-.39-1.17-.79-2.35-1.18-3.52-2.02-6.03,1.37-12.53,7.48-14.31l88.64-25.92c2.52,6.18,4.97,12.67,7.31,19.49.99,2.89,1.93,5.74,2.82,8.57,0,0,0,0,0,0-.43-1.3-.87-2.6-1.32-3.91Z"/><path class="cls-1" d="m366.3,67.07c-1.06-3.14-2.11-6.28-3.17-9.41-2.93-8.73-5.87-17.47-8.81-26.2-.7-2.09-1.4-4.16-2.1-6.25-.42-1.27-.85-2.53-1.28-3.8-1.65-4.91-4.46-9.08-8-12.32-3-2.74-6.52-4.81-10.32-6.1-6.33-2.13-13.43-2.08-20.08.72l-42.92,18.03-8.9,3.74c-7.45,3.13-12.92,9.11-15.63,16.23h0c-.28.75-.54,1.52-.76,2.29-1.57,5.42-1.58,11.36.28,17.12l11.78,36.62c.97,3,2.37,5.75,4.12,8.18,1.19,1.66,2.55,3.18,4.04,4.53.91.83,1.86,1.59,2.85,2.29h0c6.47,4.56,14.71,6.42,22.89,4.54,2.29-.53,4.57-1.05,6.86-1.58,16.18-3.72,32.35-7.44,48.53-11.15,16.53-3.8,26.11-21.21,20.62-37.51Zm-38.18-52.78c1.14,2.63-.08,5.69-2.72,6.83l-26.18,11.28-35.94,15.49c-.16.07-.31.12-.47.18-2.52.81-5.29-.41-6.37-2.9-1.14-2.63.08-5.69,2.72-6.83l62.12-26.76c.68-.3,1.39-.43,2.09-.42,2,.01,3.9,1.19,4.75,3.14Zm8.07,25.04c.22,2.29-1.1,4.52-3.35,5.36l-4.76,1.78-48,17.96-10.59,3.96c-.08.03-.15.06-.23.08-2.63.85-5.49-.51-6.46-3.13-.09-.23-.15-.46-.21-.69-.56-2.5.79-5.09,3.25-6l6.2-2.32,29.99-11.22h.01s27.15-10.16,27.15-10.16c2.69-1.01,5.69.36,6.7,3.05.16.44.26.89.31,1.34Zm8.05,24.63c.75,2.77-.89,5.63-3.66,6.39l-43.95,11.9h0s-13.28,3.6-13.28,3.6h0s-8.05,2.18-8.05,2.18c-2.77.75-5.63-.89-6.38-3.66-.73-2.69.79-5.47,3.43-6.32.08-.02.16-.05.24-.07l28.47-7.7h0s13.28-3.6,13.28-3.6h0s23.53-6.37,23.53-6.37c2.77-.75,5.63.89,6.38,3.66Zm3.54,29.99l-34.43,7.54-31.64,6.93c-2.81.61-5.58-1.16-6.2-3.97-.58-2.64.97-5.25,3.48-6.06.16-.05.32-.1.49-.13l49.98-10.95h0s16.09-3.52,16.09-3.52c2.81-.61,5.58,1.16,6.2,3.97.61,2.81-1.16,5.58-3.97,6.2Z"/><path class="cls-2" d="m262.57,64.65l9.46-8.33,27.18-23.92-35.94,15.49c-.16.07-.31.12-.47.18-2.52.81-5.29-.41-6.37-2.9-1.14-2.63.08-5.69,2.72-6.83l62.12-26.76c.68-.3,1.39-.43,2.09-.42l9.26-8.15c-6.33-2.13-13.43-2.08-20.08.72l-42.92,18.03-24,21.12-1.3,1.15-3.71,3.26-25.33,31.42c1.69,1.72,4.89,5.44,6.54,11.17,1.14,3.96,1.12,7.45.88,9.86l26.74-23.52,8.24-7.26"/><path class="cls-1" d="m335.88,37.99c.16.44.26.89.31,1.34l16.04-14.11c-.42-1.27-.85-2.53-1.28-3.8-1.65-4.91-4.46-9.08-8-12.32l-40.91,36,27.15-10.16c2.69-1.01,5.69.36,6.7,3.05Z"/><path class="cls-1" d="m256.05,109.84l4.44-3.9,10.16-8.94,12.67-11.15-8.05,2.17c-2.77.75-5.63-.89-6.38-3.66-.73-2.69.79-5.47,3.43-6.32.08-.02.16-.05.24-.07l28.47-7.7h0s27.04-23.8,27.04-23.8l-48,17.96-17.4,15.31-9.43,8.29-18.52,16.3c7.11,1.84,14.22,3.67,21.33,5.51Z"/><path class="cls-1" d="m297.14,115.73l16.19-14.25-31.64,6.93c-2.81.61-5.58-1.16-6.2-3.97-.58-2.64.97-5.25,3.48-6.06.16-.05.32-.1.49-.13l49.98-10.95h0s33.67-29.63,33.67-29.63c-2.93-8.73-5.87-17.47-8.81-26.2l-40,35.2,23.53-6.37c2.77-.75,5.63.89,6.38,3.66.75,2.77-.89,5.63-3.66,6.39l-43.95,11.9h0s-23.3,20.51-23.3,20.51h0s-8.78,7.73-8.78,7.73l-1.37,1.21c1.41.37,2.82.73,4.22,1.09h0c6.47,4.56,14.71,6.42,22.89,4.54,2.29-.53,4.57-1.05,6.86-1.58Z"/></g></svg>