<?xml version="1.0" encoding="UTF-8"?><svg id="Layer_1" xmlns="http://www.w3.org/2000/svg" viewBox="0 0 255.11 159.63"><defs><style>.cls-1{fill:none;stroke:#1d1d1b;stroke-miterlimit:10;stroke-width:3px;}</style></defs><path class="cls-1" d="m131.14,60.43c29.05-9.85,58.09-19.71,87.14-29.57,5.17-1.75,10.42-3.52,15.87-3.8,5.45-.28,11.23,1.13,15.11,4.97,6.63,6.55,5.27,18.59-1.48,25.02-6.41,6.1-15.79,7.59-24.57,8.66-28.85,3.54-57.86,5.73-86.91,6.57-1.44.04-2.94.07-4.24-.54-3.6-1.69-3.55-6.75-.93-11.31Z"/><path class="cls-1" d="m239,31.25c-18.75,4.07-37.01,10.34-54.3,18.65-.48,1.57,1.94,2.25,3.57,2.07,16.2-1.79,32.37-4.04,48.32-7.39,2.33-.49,4.72-1.03,6.7-2.35,1.99-1.32,3.5-3.61,3.23-5.98-.45-3.84-4.87-5.58-7.52-5.01Z"/><path class="cls-1" d="m109.74,60.82c6.02-2.47,12.22-4.49,18.54-6.06,2.65-.66,5.47-1.23,8.07-.37,3.14,1.04,5.33,4.04,6.24,7.22.91,3.18.76,6.57.55,9.87-.11,1.65-.27,3.41-1.31,4.68-.84,1.02-2.11,1.57-3.33,2.07-2.14.87-4.29,1.7-6.46,2.49-2.22.81-4.54,1.6-6.9,1.46-4.09-.25-7.46-3.18-10.48-5.96-1.77-1.64-3.6-3.33-4.61-5.52-1.72-3.74-.76-8.11-.31-9.88Z"/><path class="cls-1" d="m30.59,5.2c-3.92,11.26,7.09,22.82,5.82,34.67-.82,7.69-6.59,13.78-11.77,19.52-7.77,8.61-14.97,17.96-19.27,28.73-4.3,10.77-5.46,23.16-1.16,33.92,4.07,10.19,12.66,18.09,22.36,23.22,9.7,5.13,20.5,7.77,31.27,9.9,14.22,2.81,29.43,4.74,42.83-.78,9.2-3.79,16.93-11.06,21.27-20.02,5.56-11.46,5.47-24.94,2.94-37.43-2.54-12.49-7.36-24.37-11.01-36.58-.56-1.88-1.1-3.81-.91-5.76.23-2.31,1.47-4.39,2.74-6.33,4.52-6.89,10.03-13.4,12.32-21.32.22-.77.41-1.59.19-2.35-.46-1.58-2.34-2.17-3.95-2.51-18.44-3.95-36.89-7.9-55.33-11.85-13.12-2.81-26.47-5.63-38.33-5.02Z"/><path class="cls-1" d="m95.17,11.7C78.03,6.49,60.35,3.1,42.51,1.62c-4.44-.37-9.85-.13-12.03,3.75-.24.42-.43.93-.25,1.39.18.47.68.72,1.15.91,2.38.96,4.92,1.43,7.45,1.88,26.2,4.73,52.4,9.47,78.69,13.61,3.4.54,7.25.96,9.95-1.17-10.63-5.82-22.77-7.4-32.3-10.3Z"/><path class="cls-1" d="m31.99,20.45c3.85,7.36,6.73,16.12,3.68,23.84-1.27,3.21-3.47,5.95-5.55,8.7-.83,1.1-1.69,2.39-1.44,3.74.23,1.21,1.34,2.11,2.53,2.44,1.19.33,2.45.21,3.68.05,14.1-1.74,28.24-6.46,42.2-3.86,1.71.32,3.46.75,5.18.46,1.72-.29,3.43-1.55,3.58-3.29.14-1.53-.93-2.9-2.04-3.96-8.74-8.33-22.58-8.11-33.02-14.16-1.93-1.12-3.72-2.44-5.51-3.76-4.51-3.32-9.02-6.65-13.28-10.21Z"/><path class="cls-1" d="m85.92,157.89c-11.51-.32-22.99-1.69-34.26-4.09-11.49-2.45-22.98-6.08-32.46-13.01-9.48-6.93-16.76-17.62-17.31-29.35,3.63,3.44,7.25,6.87,10.88,10.31,3.32,3.15,6.66,6.31,10.3,9.08,9.98,7.57,21.94,11.97,33.7,16.26,9.7,3.54,19.41,7.08,29.14,10.8Z"/><path class="cls-1" d="m31.65,7.77c18.17,4.26,36.49,7.89,54.92,10.89,4.28.7,8.63,1.38,12.57,3.19-15.33-2.05-30.65-4.11-45.98-6.16-6.02-.81-12.09-1.63-17.8-3.69-1.99-.72-4.21-1.98-4.34-4.09.71-.24,1.41-.47.64-.14Z"/><path class="cls-1" d="m125.93,26.96c-1.48,4.67-3.77,9.07-6.73,12.97-1.41,1.86-3.18,3.72-5.49,4.04-.2.03-.42.04-.61-.04-.36-.17-.47-.63-.49-1.02-.17-2.71,1.28-5.26,2.96-7.39,1.68-2.13,3.68-4.06,4.93-6.46.55-1.06.97-2.21,1.74-3.13.77-.91,2.04-1.55,3.17-1.15,1.12.41,1.59,2.18.53,2.18Z"/><path class="cls-1" d="m112.73,76.38c9.22,16.96,10.35,38.1,2.98,55.95-.92,2.24-1.98,4.44-3.34,6.45-3.41,5.02-8.76,8.7-14.67,10.07-3.29.77-6.82.83-10.01-.3-3.19-1.13-5.99-3.55-7.16-6.73-1.21-3.32-.54-7.06.82-10.31,1.36-3.26,3.38-6.19,4.99-9.33,5.18-10.08,6.01-21.75,7.1-33.03.28-2.89.59-5.81,1.61-8.52,1.02-2.71,2.85-5.24,5.47-6.49,4.38-2.1,10.61-.69,12.21,2.25Z"/><path class="cls-1" d="m22.32,71.49c-9.07,8.86-13.81,21.98-12.49,34.59.24,2.27.68,4.59,1.9,6.52.65,1.03,1.58,1.98,2.78,2.23,1.75.37,3.52-.89,4.34-2.48.82-1.59.94-3.44,1.09-5.23.82-9.81,3.27-19.48,7.21-28.5.66-1.52,1.38-3.07,1.41-4.72.03-1.65-.83-3.45-2.4-3.95-1.91-.6-3.8.86-3.83,1.53Z"/></svg>