<?xml version="1.0" encoding="UTF-8"?><svg id="Layer_1" xmlns="http://www.w3.org/2000/svg" viewBox="0 0 426.9 677.6"><defs><style>.cls-1,.cls-2{fill:none;stroke:#000;stroke-miterlimit:10;stroke-width:3px;}.cls-2{opacity:.78;}.cls-3{opacity:.46;}</style></defs><g id="refrigerator"><path class="cls-1" d="m1.97,85.77l70.82,530.81c1.93,14.45,9.13,26.89,19.4,35.64,0,0,.02.02.03.03.03.02.04.04.07.06s.05.05.08.07c32.63,28.99,101.64,20.97,101.64,20.97l10.12-11.81,5.22-6.08,86.51-11.54c30.87-4.12,52.56-32.58,48.42-63.55L273.47,49.54c-.2-1.48-.45-2.94-.77-4.36-.14-.65-.3-1.29-.46-1.92-2.02-7.85-5.77-14.9-10.76-20.8,22.14-.56,42.32-3.15,50.95-8.84,0,0-28.29-14-89.24-9.74-1.02-.04-2.02-.05-3.05-.02-.03,0-.06,0-.09,0-.07,0-.15,0-.22,0-.08,0-.16,0-.25,0h-.02c-1.68.06-3.37.2-5.08.43L47.03,26.64c-.28.04-.54.07-.82.12-12.53,1.87-23.39,8.06-31.26,16.85-1.19,1.33-2.31,2.72-3.37,4.16C3.9,58.33.1,71.77,1.97,85.77Z"/><g class="cls-3"><path class="cls-1" d="m303.48,17.46c-1.61.48-3.33.92-5.16,1.32-.3-.37-.58-.75-.89-1.11,2.04-.05,4.06-.12,6.05-.21Z"/></g><path class="cls-1" d="m31.56,31.33c-.27,2.24,22.62,7.02,55.98,12.79,4.56-3.77,10.21-6.35,16.52-7.19l206.45-27.54c2.58-.34,5.12-.38,7.6-.13,1.76.18,3.49.49,5.17.94-11.64-3.94-40.52-11.2-88.58-7.81-1.08-.03-2.15-.05-3.23-.02-.03,0-.06,0-.09,0-.07,0-.15,0-.23,0-.09,0-.18,0-.26.01h-.02c-1.78.07-3.58.22-5.39.46L47.98,26.51c-.29.04-.57.08-.86.12-6.36,1.03-15.39,3.33-15.56,4.7Z"/><path class="cls-1" d="m133.88,221.13l-.17.22s40.8-6.88.17-.22Z"/><path class="cls-1" d="m102.45,272.92l49.61,371.86c2.47,18.54,19.51,31.56,38.05,29.09l216.73-28.92c11.71-1.56,19.94-12.33,18.38-24.04l-52.91-396.58c-1.56-11.71-12.33-19.94-24.04-18.38l-216.73,28.92c-18.54,2.47-31.56,19.51-29.09,38.05Z"/><path class="cls-1" d="m75.88,73.8l17.75,133.03c2.4,17.97,18.9,30.58,36.87,28.19l218.81-29.19c11.14-1.49,18.96-11.72,17.48-22.86l-19.4-145.39c-2.05-15.4-14.47-26.86-29.27-28.32-2.48-.25-5.02-.21-7.6.13l-206.45,27.54c-17.97,2.4-30.58,18.9-28.19,36.87Z"/><path class="cls-1" d="m161.31,359.51c12.48,28.4,16.94,99.54,21.21,135.02,5.73,47.51,18.85,95.26,6.83,107.64-1.04,1.08-4.1,4.22-7.46,3.44-7.18-1.67-9.89-19.91-10.84-25.85-5.19-32.33-37.66-194.99-26.2-226.73.64-1.78,2.48-6.87,5.59-7.18,4.66-.47,9.29,10.07,10.87,13.67Z"/><path class="cls-1" d="m135.6,305.56c1.49,11.19,6.81,19.72,11.88,19.04,5.07-.68,7.97-10.3,6.47-21.49-1.49-11.19-6.81-19.72-11.88-19.04-5.07.68-7.97,10.3-6.47,21.49Z"/><path class="cls-1" d="m116.36,110.41c9.23,9.5,8.76,34.99,10.34,47.57,2.11,16.85,10.71,33.32-.64,38.56-.99.46-3.87,1.79-6.78,1.72-6.21-.15-7.48-6.59-7.95-8.68-2.57-11.39-21.11-68.26-9.06-80.48.68-.69,2.61-2.65,5.37-2.95,4.13-.46,7.55,3.06,8.72,4.27Z"/><path class="cls-1" d="m95.16,75.62c1.14,8.52,5.71,14.95,10.21,14.35,4.5-.6,7.23-8,6.09-16.52-1.14-8.52-5.71-14.95-10.21-14.35-4.5.6-7.23,8-6.09,16.52Z"/><path class="cls-1" d="m89.53,38.87l14.53-1.94c-17.97,2.4-30.58,18.9-28.19,36.87l17.75,133.03c2.4,17.97,18.9,30.58,36.87,28.19l-14.53,1.94c-17.97,2.4-34.47-10.22-36.87-28.19l-17.75-133.03c-2.4-17.96,10.22-34.47,28.19-36.87Z"/><path class="cls-1" d="m117,236.81l14.53-1.94c-18.54,2.47-31.56,19.51-29.09,38.05l49.61,371.86c2.47,18.54,19.51,31.56,38.05,29.09l-14.53,1.94c-18.54,2.47-35.57-10.55-38.05-29.09l-49.61-371.86c-2.47-18.54,10.55-35.57,29.09-38.05Z"/><path class="cls-2" d="m129.37,226.6l218.81-29.19c11.14-1.49,18.96-11.72,17.48-22.86l1.12,8.41c1.49,11.14-6.34,21.37-17.48,22.86l-218.81,29.19c-17.97,2.4-34.47-10.22-36.87-28.19l-1.12-8.41c2.4,17.97,18.9,30.58,36.87,28.19Z"/><path class="cls-1" d="m324.21,168.93c-1.81-2.89-.93-6.7,1.96-8.51l12.53-7.84c-4.09-37.86-9.18-79.1-11.15-86.11-1.95-1.72-8.74-5.06-15.23-7.44h0c-3.2-1.18-4.84-4.72-3.67-7.92,1.18-3.2,4.72-4.84,7.92-3.67,6.5,2.39,17.94,7.16,21.44,12.32,1.25,1.84,2.66,3.92,8.28,50.6,2.7,22.38,5.07,44.53,5.09,44.75.25,2.35-.86,4.63-2.86,5.89l-15.8,9.89c-.77.48-1.61.77-2.45.89-2.33.31-4.73-.73-6.05-2.84Zm3.16-103.02h0Z"/><path class="cls-1" d="m337.64,69.6c2.06.82,2.26,4.71,2.35,5.91,1.1,15.65,4.86,31.02,6.22,46.65.1,1.09.37,3.99-1.07,4.82,0,0-.56.32-1.38.18-3.43-.6-5.68-19.04-6.02-21.77-2.65-21.59-4.79-34.77-1.7-35.83.25-.08.92-.23,1.59.04Z"/><path class="cls-1" d="m326.17,160.42l12.53-7.84c-4.09-37.86-9.18-79.1-11.15-86.11-1.95-1.72-8.74-5.06-15.23-7.44-3.2-1.18-4.84-4.72-3.67-7.92.96-2.62,3.5-4.19,6.15-4.04-1.72.57-3.18,1.89-3.85,3.73-1.17,3.2.47,6.74,3.67,7.92,6.49,2.38,13.28,5.72,15.23,7.44,1.97,7.01,7.06,48.25,11.15,86.11l-12.53,7.84c-2.89,1.81-3.77,5.62-1.96,8.51,1.11,1.77,2.97,2.77,4.91,2.88-.38.13-.76.22-1.15.27-2.33.31-4.73-.73-6.05-2.84-1.81-2.89-.93-6.7,1.96-8.51Z"/><path class="cls-1" d="m348.09,347.89c-1.81-2.89-.93-6.7,1.96-8.51l12.53-7.84c-4.09-37.86-9.18-79.1-11.15-86.11-1.95-1.72-8.74-5.06-15.23-7.44h0c-3.2-1.18-4.84-4.72-3.67-7.92,1.18-3.2,4.72-4.84,7.92-3.67,6.5,2.39,17.94,7.16,21.44,12.32,1.25,1.84,2.66,3.92,8.28,50.6,2.7,22.38,5.07,44.53,5.09,44.75.25,2.35-.86,4.63-2.86,5.89l-15.81,9.89c-.77.48-1.61.77-2.45.89-2.33.31-4.73-.73-6.05-2.84Zm3.16-103.02h0Z"/><path class="cls-1" d="m361.52,248.56c2.06.82,2.26,4.71,2.35,5.91,1.1,15.65,4.86,31.02,6.22,46.65.1,1.09.37,3.99-1.07,4.82,0,0-.56.32-1.38.18-3.43-.61-5.68-19.04-6.02-21.77-2.65-21.59-4.79-34.77-1.7-35.83.25-.08.92-.23,1.59.04Z"/><path class="cls-1" d="m350.04,339.39l12.53-7.84c-4.09-37.86-9.18-79.1-11.15-86.11-1.95-1.72-8.74-5.06-15.23-7.44-3.2-1.18-4.84-4.72-3.67-7.92.96-2.62,3.5-4.19,6.15-4.04-1.72.57-3.18,1.89-3.85,3.73-1.17,3.2.47,6.74,3.67,7.92,6.49,2.39,13.28,5.72,15.23,7.44,1.97,7.01,7.06,48.25,11.15,86.11l-12.53,7.84c-2.89,1.81-3.77,5.62-1.96,8.51,1.11,1.77,2.97,2.77,4.91,2.88-.38.13-.76.22-1.15.27-2.33.31-4.73-.73-6.05-2.84-1.81-2.89-.93-6.7,1.96-8.51Z"/></g></svg>