<?xml version="1.0" encoding="UTF-8"?><svg id="Layer_1" xmlns="http://www.w3.org/2000/svg" viewBox="0 0 267.65 260.04"><defs><style>.cls-1{fill:none;stroke:#000;stroke-miterlimit:10;stroke-width:3px;}</style></defs><g id="hodgepodge"><path class="cls-1" d="m1.5,98.8v149.55h107.65V98.8c0-12.48-10.12-22.59-22.59-22.59H24.08c-12.47,0-22.58,10.11-22.58,22.59Z"/><ellipse class="cls-1" cx="55.32" cy="248.36" rx="53.46" ry="10.18"/><path class="cls-1" d="m7.62,74.78c.01,1.98.23,3.73.48,5.16,0,1.2.85,2.36,2.42,3.43.43.3.92.59,1.45.87,3.01,1.6,7.64,2.99,13.42,4.08.48.09.96.18,1.45.26,4.02.7,8.54,1.25,13.41,1.63.48.03.97.07,1.45.1,4.25.3,8.75.45,13.42.46h.15c.44,0,.87,0,1.3,0,4.67-.03,9.18-.21,13.42-.53.49-.03.97-.07,1.45-.12,4.9-.41,9.43-1,13.41-1.74.49-.09.98-.18,1.45-.28,6.02-1.2,10.68-2.75,13.42-4.51.57-.37,1.06-.75,1.45-1.13.83-.8,1.27-1.64,1.27-2.5h.18c.43-1.16,1.01-3.15.97-5.67-.04-2.25-.56-4.04-.97-5.16h-6.98c-.65.2-1.52.32-2.47.32s-1.82-.12-2.47-.32h-18.33c-.28.09-.59.16-.94.21-.44.07-.94.11-1.45.11h-.08c-.96,0-1.82-.12-2.47-.32h-11.54c-.23.07-.49.14-.78.18-.5.09-1.09.14-1.7.14-.96,0-1.82-.12-2.47-.32h-10.57s-.09.02-.13.04c-.63.18-1.45.29-2.34.29-.96,0-1.82-.12-2.47-.32h-15.9c-.65.2-1.52.32-2.47.32s-1.82-.12-2.47-.32h-6.5c-.28,1.55-.5,3.47-.48,5.67Zm70.8-2.2c0-.67,1.63-1.21,3.64-1.21,1.14,0,2.16.17,2.83.45.5.2.81.47.81.76s-.31.56-.81.76c-.66.28-1.69.45-2.83.45-2.01,0-3.64-.54-3.64-1.21Zm-17.94,1.94c0-.67,1.63-1.21,3.64-1.21s3.64.54,3.64,1.21-1.63,1.21-3.64,1.21-3.64-.54-3.64-1.21Zm-17.94.48c0-.67,1.63-1.21,3.64-1.21s3.64.54,3.64,1.21-1.63,1.21-3.64,1.21-3.64-.54-3.64-1.21Zm-18.43-2.42c0-.37.5-.7,1.29-.93.42-.12.91-.2,1.45-.25.28-.02.58-.04.89-.04,2.01,0,3.64.54,3.64,1.21s-1.63,1.21-3.64,1.21c-.31,0-.61-.01-.89-.04-.54-.04-1.04-.13-1.45-.25-.79-.22-1.29-.55-1.29-.93Z"/><path class="cls-1" d="m99.75,69.1v14.47c.57-.37,1.06-.75,1.45-1.13v-13.33h-1.45Z"/><path class="cls-1" d="m85.69,72.58c0,.29-.31.56-.81.76v15.03c.49-.09.98-.18,1.45-.28v-18.98h-1.45v2.72c.5.2.81.47.81.76Z"/><path class="cls-1" d="m70.01,69.43v20.8c.49-.03.97-.07,1.45-.12v-20.79c-.44.07-.94.11-1.45.11Z"/><path class="cls-1" d="m55.14,69.29v21.48h.15c.44,0,.87,0,1.3,0v-21.66h-.68c-.23.07-.49.14-.78.18Z"/><path class="cls-1" d="m40.27,69.14v21.06c.48.03.97.07,1.45.1v-21.2h-1.32s-.09.02-.13.04Z"/><path class="cls-1" d="m25.4,69.1v2.55c.42-.12.91-.2,1.45-.25v-2.3h-1.45Z"/><path class="cls-1" d="m26.86,73.75c-.54-.04-1.04-.13-1.45-.25v14.81c.48.09.96.18,1.45.26v-14.82Z"/><path class="cls-1" d="m10.53,69.1v14.27c.43.3.92.59,1.45.87v-15.13h-1.45Z"/><path class="cls-1" d="m8.1,69.1c0,1.2.85,2.36,2.42,3.43.43.3.92.59,1.45.87,3.01,1.6,7.64,3,13.42,4.08.48.09.96.18,1.45.26,4.02.7,8.54,1.25,13.41,1.63.48.03.97.07,1.45.1,4.25.3,8.75.45,13.42.46h.15c.44,0,.87,0,1.3,0,4.67-.03,9.18-.21,13.42-.53.49-.03.97-.07,1.45-.12,4.9-.41,9.43-1,13.41-1.74.49-.09.98-.18,1.45-.28,6.02-1.2,10.68-2.75,13.42-4.52.57-.37,1.06-.75,1.45-1.13.83-.8,1.27-1.64,1.27-2.51,0-5.98-21.12-10.83-47.19-10.83s-47.19,4.85-47.19,10.83Zm81.46-.89c0-.67,1.63-1.21,3.64-1.21s3.64.54,3.64,1.21c0,.35-.45.66-1.16.89-.65.2-1.52.32-2.47.32s-1.82-.12-2.47-.32c-.72-.22-1.16-.54-1.16-.89Zm-11.15,4.36c0-.67,1.63-1.21,3.64-1.21,1.14,0,2.16.17,2.83.45.5.2.81.47.81.76s-.31.56-.81.76c-.66.28-1.69.45-2.83.45-2.01,0-3.64-.54-3.64-1.21Zm-.97-8.24c0-.67,1.63-1.21,3.64-1.21s3.64.54,3.64,1.21-1.63,1.21-3.64,1.21-3.64-.54-3.64-1.21Zm-7.52,5.09c-.96,0-1.82-.12-2.47-.32-.72-.22-1.16-.54-1.16-.89,0-.67,1.63-1.21,3.64-1.21s3.64.54,3.64,1.21c0,.35-.45.66-1.16.89-.28.09-.59.16-.94.21-.12.01-.24.03-.36.04-.1.01-.2.02-.31.03-.25.02-.51.03-.78.03h-.08Zm-9.46,5.09c0-.67,1.63-1.21,3.64-1.21s3.64.54,3.64,1.21-1.63,1.21-3.64,1.21-3.64-.54-3.64-1.21Zm-1.45-12.61c0-.67,1.63-1.21,3.64-1.21s3.64.54,3.64,1.21-1.63,1.21-3.64,1.21-3.64-.54-3.64-1.21Zm-9.21,6.3c0-.67,1.63-1.21,3.64-1.21s3.64.54,3.64,1.21c0,.35-.45.66-1.16.89-.23.07-.49.14-.78.18-.5.09-1.09.14-1.7.14-.96,0-1.82-.12-2.47-.32-.72-.22-1.16-.54-1.16-.89Zm-7.27,6.79c0-.67,1.63-1.21,3.64-1.21s3.64.54,3.64,1.21-1.63,1.21-3.64,1.21-3.64-.54-3.64-1.21Zm-.48-13.09c0-.67,1.63-1.21,3.64-1.21s3.64.54,3.64,1.21-1.63,1.21-3.64,1.21-3.64-.54-3.64-1.21Zm-7.76,6.3c0-.67,1.63-1.21,3.64-1.21s3.64.54,3.64,1.21c0,.35-.45.66-1.16.89-.04.01-.09.02-.13.04-.63.18-1.45.29-2.34.29-.96,0-1.82-.12-2.47-.32-.72-.22-1.16-.54-1.16-.89Zm-5.58-2.67c-2.01,0-3.64-.54-3.64-1.21s1.63-1.21,3.64-1.21,3.64.54,3.64,1.21-1.63,1.21-3.64,1.21Zm-4.61,7.03c0-.37.5-.7,1.29-.93.13-.04.28-.07.43-.1.08-.02.16-.03.25-.05.14-.02.3-.05.45-.06.11-.01.21-.03.32-.03.28-.02.58-.04.89-.04,2.01,0,3.64.54,3.64,1.21s-1.63,1.21-3.64,1.21c-.31,0-.61-.01-.89-.04-.11,0-.22-.02-.32-.03-.15-.01-.31-.04-.45-.06-.09-.01-.17-.03-.25-.05-.15-.03-.3-.06-.43-.1-.79-.22-1.29-.55-1.29-.93Zm-10.67-4.36c0-.67,1.63-1.21,3.64-1.21s3.64.54,3.64,1.21c0,.35-.45.66-1.16.89-.65.2-1.52.32-2.47.32s-1.82-.12-2.47-.32c-.72-.22-1.16-.54-1.16-.89Z"/><path class="cls-1" d="m15.56,138v80.1c0,3.12,1.16,5.97,3.07,8.14,2.26,2.57,5.57,4.18,9.25,4.18h54.7c6.8,0,12.32-5.52,12.32-12.32v-80.1c0-6.8-5.52-12.32-12.32-12.32H27.88c-6.8,0-12.32,5.52-12.32,12.32Z"/><path class="cls-1" d="m76.96,102.4c-12.6,1.44-21.87-1.23-23.76,2.91-.43.95-.61,2.54,0,3.88,1,2.21,3.8,2.98,5.82,3.39,15.15,3.13,32.49-1.45,32.49-1.45,10.84-2.87,13.05-5.08,13.58-7.27.4-1.69-.06-3.91-1.45-5.33-3.95-4.03-11.65,2.16-26.67,3.88Z"/><path class="cls-1" d="m28.29,105.44c-.34-1.24.2-2.61.9-3.41,1.72-1.97,5.11-1.38,9.2-.66,3.92.69,6.89,1.25,8.32,3.72.29.5,1.18,2.04.61,3.23-1.83,3.79-17.63,2.17-19.03-2.88Z"/><path class="cls-1" d="m67.75,125.68s21.34.48,21.82,13.09c.27,7,2.18,25.67,4,43.79,0,0,0,.02,0,.06,0,0,0,.01,0,.02.46,4.57.91,9.11,1.33,13.42v-58.07c0-6.8-5.52-12.32-12.32-12.32h-14.83Z"/><path class="cls-1" d="m18.63,226.23c2.26,2.57,5.57,4.18,9.25,4.18h54.7c6.8,0,12.32-5.52,12.32-12.32v-36.43l-1.33.89s0,.02,0,.06c0,0,0,.01,0,.02.04,1.67.69,27.62-4.01,34.19-4.85,6.79-4.85,8.24-25.7,9.7-16.89,1.18-32.83,3.31-45.24-.31Z"/><path class="cls-1" d="m15.56,138v27.61c.84-7.9,1.92-16.44,3.21-23.44,2.51-13.62,19.9-16.11,28.8-16.49h-19.69c-6.8,0-12.32,5.52-12.32,12.32Z"/><path class="cls-1" d="m28.77,214.79c2.29-3.27,1.77-9.78,1.59-12.56-1.65-25.31,5.18-42.66-.56-49.02-.56-.62-1.09-1.18-1.76-1.03-6.22,1.46-9.43,61.24-2.91,64.43,1.12.55,2.7-.49,3.64-1.83Z"/><path class="cls-1" d="m35.97,207.14c-3.97-.87-4.38-39.09,0-40.73.09-.03.37-.14.69,0,1.74.77,1.2,7.47,1.38,16,.29,13.83,2.22,20.18-.69,23.76-.45.56-.88,1.08-1.38.97Z"/><path class="cls-1" d="m79.37,156.24c3.95,1.27,3.64,54.4-.77,56.63-.09.04-.38.19-.69,0-1.73-1.09-1.06-10.41-1.08-22.27-.03-19.24-1.84-28.08,1.14-33.02.46-.77.9-1.49,1.4-1.33Z"/><path class="cls-1" d="m113.36,66.93l51.22,140.51,101.14-36.87L214.5,30.06c-4.27-11.72-17.24-17.76-28.96-13.48l-58.7,21.4c-11.72,4.27-17.75,17.23-13.48,28.96Z"/><path class="cls-1" d="m164.93,207.31c1.93,5.28,25.98,1.37,53.72-8.74,27.74-10.11,48.67-22.59,46.74-27.88-1.93-5.28-25.98-1.37-53.72,8.74-27.74,10.11-48.67,22.59-46.74,27.88Z"/><path class="cls-1" d="m110.88,42.26c.69,1.86,1.49,3.43,2.22,4.68.41,1.13,1.61,1.92,3.45,2.4.51.13,1.06.24,1.66.32,3.38.47,8.2.19,14-.76.48-.08.96-.16,1.46-.25,4.02-.72,8.45-1.75,13.16-3.06.46-.13.93-.27,1.4-.4,4.1-1.18,8.38-2.57,12.76-4.17l.14-.05c.41-.15.82-.3,1.22-.45,4.38-1.63,8.55-3.34,12.42-5.1.45-.2.89-.4,1.33-.61,4.47-2.06,8.51-4.17,12.01-6.23.43-.25.86-.51,1.27-.76,5.24-3.19,9.09-6.25,11.06-8.84.41-.54.74-1.06.98-1.56.5-1.04.63-1.97.34-2.79l.17-.06c0-1.24-.13-3.31-1.03-5.66-.81-2.11-1.91-3.61-2.68-4.52l-6.56,2.39c-.54.41-1.31.83-2.21,1.15-.9.33-1.75.51-2.43.54l-17.22,6.28c-.23.18-.5.35-.81.52-.39.21-.84.42-1.33.6l-.08.03c-.9.33-1.75.51-2.43.54l-10.84,3.95c-.19.15-.42.3-.67.44-.44.26-.97.5-1.55.71-.9.33-1.75.51-2.43.54l-9.93,3.62s-.07.05-.11.08c-.53.38-1.26.77-2.1,1.07-.9.33-1.75.51-2.43.54l-14.94,5.45c-.54.41-1.31.82-2.21,1.15-.9.33-1.75.51-2.43.54l-6.1,2.23c.27,1.55.71,3.43,1.49,5.5Zm65.76-26.31c-.23-.63,1.12-1.7,3-2.38,1.07-.39,2.09-.58,2.81-.54.54.02.92.16,1.02.44.1.27-.1.63-.5.99-.53.49-1.43,1-2.5,1.39-1.89.69-3.6.74-3.83.11Zm-16.19,7.97c-.23-.63,1.12-1.7,3-2.38s3.6-.74,3.83-.11c.23.63-1.12,1.7-3,2.38s-3.6.74-3.83.11Zm-16.69,6.6c-.23-.63,1.12-1.7,3-2.38,1.89-.69,3.6-.74,3.83-.11.23.63-1.12,1.7-3,2.38s-3.6.74-3.83.11Zm-18.14,4.03c-.13-.35.23-.83.9-1.31.35-.25.79-.5,1.28-.73.26-.12.53-.24.82-.34,1.89-.69,3.6-.74,3.83-.11.23.63-1.12,1.7-3,2.38-.29.1-.57.19-.85.27-.53.15-1.02.23-1.45.27-.82.06-1.41-.08-1.53-.43Z"/><path class="cls-1" d="m195.5,5.37l4.96,13.59c.41-.54.74-1.06.98-1.56l-4.57-12.53-1.37.5Z"/><path class="cls-1" d="m183.48,13.45c.1.27-.1.63-.5.99l5.15,14.12c.43-.25.86-.51,1.27-.76l-6.5-17.84-1.37.5.93,2.55c.54.02.92.16,1.02.44Z"/><path class="cls-1" d="m167.67,15.86l7.12,19.54c.45-.2.89-.4,1.33-.61l-7.12-19.54c-.39.21-.84.42-1.33.6Z"/><path class="cls-1" d="m153.65,20.82l7.36,20.18.14-.05c.41-.15.82-.3,1.22-.45l-7.42-20.35-.64.23c-.19.15-.42.3-.67.44Z"/><path class="cls-1" d="m139.63,25.78l7.21,19.79c.46-.13.93-.27,1.4-.4l-7.26-19.92-1.24.45s-.07.05-.11.08Z"/><path class="cls-1" d="m125.65,30.84l.87,2.4c.35-.25.79-.5,1.28-.73l-.79-2.16-1.37.5Z"/><path class="cls-1" d="m128.61,34.71c-.53.15-1.02.23-1.45.27l5.07,13.91c.48-.08.96-.16,1.46-.25l-5.08-13.93Z"/><path class="cls-1" d="m111.67,35.93l4.89,13.4c.51.13,1.06.24,1.66.32l-5.18-14.22-1.37.5Z"/><path class="cls-1" d="m109.4,36.76c.41,1.13,1.61,1.92,3.45,2.4.51.13,1.06.24,1.66.32,3.38.47,8.21.2,14-.76.48-.08.96-.16,1.46-.25,4.02-.72,8.45-1.75,13.16-3.06.46-.13.93-.27,1.4-.4,4.1-1.18,8.38-2.57,12.76-4.17l.14-.05c.41-.15.82-.3,1.22-.45,4.38-1.63,8.55-3.34,12.42-5.1.45-.2.89-.4,1.33-.61,4.47-2.06,8.51-4.17,12-6.23.43-.25.86-.51,1.27-.76,5.24-3.19,9.09-6.25,11.06-8.84.41-.54.74-1.06.98-1.56.5-1.04.63-1.98.34-2.79-2.05-5.62-23.55-2.94-48.04,5.99-24.48,8.92-42.67,20.72-40.62,26.33Zm76.23-28.73c-.23-.63,1.12-1.7,3-2.38,1.89-.69,3.6-.74,3.83-.11.12.33-.19.78-.79,1.23-.54.41-1.31.83-2.21,1.15-.9.33-1.75.51-2.43.54-.75.04-1.28-.11-1.4-.44Zm-8.98,7.92c-.23-.63,1.12-1.7,3-2.38,1.07-.39,2.09-.58,2.81-.54.54.02.92.16,1.02.44.1.27-.1.63-.5.99-.53.49-1.43,1-2.5,1.39-1.89.69-3.6.74-3.83.11Zm-3.73-7.41c-.23-.63,1.12-1.7,3-2.38,1.89-.69,3.6-.74,3.83-.11.23.63-1.12,1.7-3,2.38-1.89.69-3.6.74-3.83.11Zm-5.32,7.36c-.9.33-1.75.51-2.43.54-.75.04-1.28-.11-1.4-.43-.23-.63,1.12-1.7,3-2.38,1.89-.69,3.6-.74,3.83-.11.12.33-.19.78-.79,1.23-.23.18-.5.35-.81.52-.1.05-.21.11-.33.17-.09.05-.18.09-.28.14-.23.1-.47.21-.72.3l-.08.03Zm-7.14,8.02c-.23-.63,1.12-1.7,3-2.38s3.6-.74,3.83-.11c.23.63-1.12,1.7-3,2.38s-3.6.74-3.83.11Zm-5.68-11.35c-.23-.63,1.12-1.7,3-2.38,1.89-.69,3.6-.74,3.83-.11.23.63-1.12,1.7-3,2.38-1.89.69-3.6.74-3.83.11Zm-6.5,9.08c-.23-.63,1.12-1.7,3-2.38s3.6-.74,3.83-.11c.12.33-.19.78-.79,1.23-.19.15-.42.3-.67.44-.44.26-.97.5-1.55.71-.9.33-1.75.51-2.43.54-.75.04-1.28-.11-1.4-.44Zm-4.51,8.87c-.23-.63,1.12-1.7,3-2.38,1.89-.69,3.6-.74,3.83-.11.23.63-1.12,1.7-3,2.38s-3.6.74-3.83.11Zm-4.94-12.13c-.23-.63,1.12-1.7,3-2.38,1.89-.69,3.6-.74,3.83-.11.23.63-1.12,1.7-3,2.38-1.89.69-3.6.74-3.83.11Zm-5.13,8.58c-.23-.63,1.12-1.7,3-2.38,1.89-.69,3.6-.74,3.83-.11.12.33-.19.78-.79,1.23-.04.03-.07.05-.11.08-.53.38-1.26.77-2.1,1.07-.9.33-1.75.51-2.43.54-.75.04-1.28-.11-1.4-.43Zm-6.15-.6c-1.89.69-3.6.74-3.83.11-.23-.63,1.12-1.7,3-2.38,1.89-.69,3.6-.74,3.83-.11.23.63-1.12,1.7-3,2.38Zm-1.92,8.18c-.13-.35.23-.83.9-1.31.11-.08.23-.16.37-.24.07-.04.14-.09.22-.13.12-.07.26-.15.4-.21.1-.05.19-.1.29-.14.26-.12.53-.24.82-.34,1.89-.69,3.6-.74,3.83-.11.23.63-1.12,1.7-3,2.38-.29.1-.57.19-.85.27-.11.03-.21.06-.32.08-.15.04-.3.07-.45.1-.09.02-.17.03-.25.04-.15.02-.3.04-.44.05-.82.06-1.41-.08-1.53-.43Zm-11.52-.45c-.23-.63,1.12-1.7,3-2.38,1.89-.69,3.6-.74,3.83-.11.12.33-.19.78-.79,1.23-.54.41-1.31.82-2.21,1.15-.9.33-1.75.51-2.43.54-.75.04-1.28-.11-1.4-.44Z"/><path class="cls-1" d="m140,98.93l27.43,75.25c1.07,2.93,3.13,5.21,5.67,6.59,3,1.64,6.66,2.03,10.13.76l51.39-18.73c6.39-2.33,9.69-9.4,7.36-15.8l-27.43-75.25c-2.33-6.39-9.4-9.69-15.8-7.36l-51.39,18.73c-6.39,2.33-9.69,9.4-7.36,15.8Z"/><path class="cls-1" d="m185.49,44.46c-11.34,5.67-20.97,6.34-21.33,10.87-.08,1.04.3,2.6,1.33,3.64,1.7,1.73,4.59,1.5,6.63,1.2,15.31-2.25,30.03-12.49,30.03-12.49,9.2-6.41,10.52-9.24,10.26-11.48-.2-1.73-1.4-3.66-3.19-4.51-5.09-2.43-10.21,6.02-23.73,12.78Z"/><path class="cls-1" d="m140.81,63.98c-.75-1.04-.7-2.52-.32-3.52.94-2.45,4.33-3.05,8.42-3.77,3.92-.7,6.91-1.18,9.09.65.45.37,1.81,1.51,1.68,2.83-.42,4.19-15.82,8.07-18.86,3.82Z"/><path class="cls-1" d="m184.81,69.48s20.21-6.85,24.99,4.83c2.65,6.49,10.84,23.37,18.76,39.77,0,0,0,.02.03.06,0,.01,0,.02,0,.02,2,4.14,3.98,8.25,5.84,12.15l-19.89-54.56c-2.33-6.39-9.4-9.69-15.8-7.36l-13.94,5.08Z"/><path class="cls-1" d="m173.1,180.78c3,1.64,6.66,2.03,10.13.76l51.39-18.73c6.39-2.33,9.69-9.4,7.36-15.8l-12.48-34.22-.95,1.3s0,.02.03.06c0,.01,0,.02,0,.02.61,1.56,10.11,25.71,7.95,33.49-2.23,8.04-1.73,9.41-20.82,17.91-15.47,6.89-29.71,14.36-42.61,15.21Z"/><path class="cls-1" d="m140,98.93l9.46,25.94c-1.92-7.71-3.83-16.11-5.01-23.13-2.31-13.65,13.17-21.95,21.41-25.35l-18.5,6.74c-6.39,2.33-9.69,9.4-7.36,15.8Z"/><path class="cls-1" d="m178.71,166.56c1.03-3.85-1.69-9.8-2.81-12.35-10.22-23.22-9.74-41.86-17.31-45.86-.74-.39-1.42-.74-2-.36-5.35,3.5,12.11,60.77,19.34,61.53,1.24.13,2.37-1.38,2.79-2.96Z"/><path class="cls-1" d="m182.85,156.91c-4.03.54-17.5-35.22-13.95-38.27.07-.06.3-.26.65-.24,1.9.12,3.69,6.61,6.78,14.56,5.01,12.9,9,18.19,7.49,22.56-.23.68-.46,1.32-.97,1.39Z"/><path class="cls-1" d="m206.19,94.22c4.15-.16,22.05,49.86,18.67,53.47-.07.07-.29.31-.65.23-2-.43-4.56-9.41-8.64-20.55-6.62-18.06-11.35-25.75-10.24-31.42.17-.88.33-1.71.86-1.73Z"/></g></svg>