<?xml version="1.0" encoding="UTF-8"?><svg id="Layer_1" xmlns="http://www.w3.org/2000/svg" viewBox="0 0 435.19 154.29"><defs><style>.cls-1{fill:none;stroke:#1d1d1b;stroke-miterlimit:10;stroke-width:3px;}</style></defs><path class="cls-1" d="m166.42,53.08c37.92,26.76,85.58,35.38,131.81,39.39,37.74,3.28,75.71,3.96,113.54,2.04,4.21-.21,8.51-.48,12.41-2.08,2.15-.88,5.02-1.98,6.42-.13,1.04,1.37.31,3.32-.5,4.84-7.73,14.56-19.52,26.49-31.13,38.19-3.45,3.47-6.93,6.97-11.08,9.57-7.01,4.39-15.42,5.9-23.65,6.76-18.58,1.96-37.35,1.09-55.96-.57-29.83-2.66-59.7-7.43-87.75-17.91-11.16-4.17-22.19-9.37-30.89-17.51-16.44-15.38-22.27-38.99-23.24-62.59Z"/><path class="cls-1" d="m201.07,81.97c36.08,13.7,74.09,22.59,112.5,26.31,37.27,3.61,75.12,2.71,112.05-3.62,1.6-2.43,3.11-4.93,4.48-7.52.81-1.52,1.54-3.47.5-4.84-1.4-1.85-4.28-.75-6.42.13-3.9,1.6-8.2,1.86-12.41,2.08-37.83,1.92-75.8,1.24-113.54-2.04-46.24-4.02-93.9-12.63-131.81-39.39.2,4.76.6,9.53,1.24,14.22,10.93,5.33,22,10.33,33.41,14.67Z"/><path class="cls-1" d="m401.77,113.22c-5.21,8.63-11.28,16.73-18.1,24.15-2.92,3.17-6.06,6.29-9.99,8.08-3.46,1.58-7.32,2.03-11.11,2.43-2,.21-4.51.14-5.39-1.67,5.32-5.1,10.27-10.59,14.79-16.4,2.69-3.46,5.27-7.07,8.58-9.94,6.39-5.53,15.42-7.85,21.21-6.64Z"/><path class="cls-1" d="m373.02,116.36c-5.63,8.12-11.9,15.8-18.72,22.96-3.73,3.91-8.87,7.99-13.98,6.24-.28-1.36.93-2.53,2.01-3.41,7.68-6.29,14.79-13.29,21.19-20.87,2.37-2.81,5.24-5.98,8.91-5.77,1.29.71,1.47,2.8.59.87Z"/><path class="cls-1" d="m187.11,80.93c11.6,3.88,23.19,7.76,34.79,11.65,5.62,1.88,11.28,3.78,16.45,6.67-7.18,3.54-15.78,1.67-23.37-.86-10.08-3.35-20.28-8.09-27.86-17.46Z"/><path class="cls-1" d="m49.22,58.68c-10.26-2.31-21.18-1.65-31.09,1.87-2.64.94-5.31,2.09-8.11,2.02-.55-.01-1.14-.09-1.56-.45-1.05-.89-.32-2.59.53-3.67,7.71-9.75,20.99-14.09,33.36-12.84,4.49.45,9.65,2.24,10.88,6.58.82,2.89-.69,6.25-4.01,6.48Z"/><path class="cls-1" d="m177.03,50.94c-44.37-11.69-90.83-19.95-136.01-11.98-9.89,1.75-19.83,4.34-28.31,9.73-7.15,4.55-13.52,13.09-10.4,20.97,1.88,4.76,6.7,7.69,11.5,9.47,16.89,6.26,35.58,2.26,53.43-.13,30.94-4.13,62.31-3.15,93.46-5.22,4.61-.31,9.57-.82,13.05-3.87,5.09-4.47,4.93-12.31,3.28-18.97Zm-133.08,8.6c-.92,1.69-2.5,2.63-4.23,3.31-8.21,3.23-17.34,3.95-25.7.79-1.97-.74-2.3-3.11-.57-4.34,4.11-2.91,8.81-4.97,13.73-5.88,1.56-.46,3.15-.82,4.77-1.04,3.55-.49,8.36-1.06,11.23,1.65,1.53,1.45,1.77,3.67.77,5.51Z"/><path class="cls-1" d="m165.52,64.38c-6.74,1.01-13.51,1.87-20.25,2.84-6.1.88-12.27,1.24-18.4,1.88-6.07.63-12.15,1.19-18.23,1.68-12.05.96-24.12,1.48-36.21,1.72-12.2.24-24.41.21-36.6-.24-11.1-.42-22.18-1.32-33.26-2.1,2.02,4.46,6.63,7.26,11.25,8.97,16.89,6.26,35.58,2.26,53.43-.13,30.94-4.13,62.31-3.15,93.46-5.22,4.61-.31,9.57-.82,13.05-3.87,2.19-1.92,3.4-4.47,3.95-7.28-4.04.73-8.17,1.15-12.17,1.75Z"/><path class="cls-1" d="m153.05,53.46c-27.94-4.53-56.34-6.24-84.62-5.1-8.97.36-18.15.98-26.74-1.64.26-2.51,3.37-3.45,5.87-3.77,34.06-4.32,68.89-2.58,102.35,5.13,3.17.73,6.98,2.24,7.24,5.48-2.41.72-5.02.77-4.11-.11Z"/><path class="cls-1" d="m316.72,21.36c-39.08-13.17-82.08-3.76-120.97,9.92-10.18,3.58-20.62,7.68-28.06,15.5-1.77,1.86-3.45,4.36-2.73,6.83.4,1.39,1.5,2.45,2.57,3.42,19.45,17.54,45.9,24.8,71.59,29.94,57.33,11.47,116.21,15.18,174.53,10.99,6.1-.44,12.61-1.13,17.32-5.03,1.31-1.08,2.48-2.49,2.7-4.18.19-1.48-.38-2.95-1.09-4.27-2.75-5.12-7.49-8.84-12.17-12.28-32.27-23.68-69.44-39.32-103.67-50.85Z"/><path class="cls-1" d="m277,8.51c.27,5.04.54,10.13,1.97,14.97,1.43,4.84,4.14,9.48,8.36,12.25,5.05,3.32,11.46,3.55,17.51,3.68,3,.06,6,.12,8.99.18,1.53.03,3.11.06,4.55-.47,1.84-.68,3.24-2.19,4.51-3.69,4.59-5.45,8.46-11.51,11.47-17.97-2.87-1.93-6.04-3.42-9.36-4.4-4.49-1.32-9.2-1.7-13.87-2.08-11.98-.96-23.96-1.92-34.13-2.47Z"/><path class="cls-1" d="m300.6,1.94c5.83.74,11.61,1.96,17.24,3.62,5.64,1.67,11.38,3.94,15.27,8.36.88,1,1.69,2.31,1.32,3.58-.49,1.68-2.59,2.16-4.33,2.31-15.87,1.31-31.83-1.69-47.09-6.29-1.33-.4-2.69-.83-3.82-1.64-1.14-.81-2.03-2.07-2.05-3.47-.02-2.5,2.57-4.13,4.92-5,6.32-2.33,13.22-2.16,18.54-1.48Z"/><path class="cls-1" d="m334.74,33.2c30.07,11.96,60.7,24.24,85.59,44.92,3.41,2.84,7.03,7.26,5.01,11.21-1.33,2.6-4.71,3.59-7.58,3.04-2.87-.55-5.35-2.29-7.73-3.98-24.11-17.16-48.23-34.32-72.34-51.48-1.39-.99-2.9-2.92-2.94-3.72Z"/><path class="cls-1" d="m279.64,41.5c-20.26,11.28-40.51,22.56-60.77,33.83.41,1.76,2.45,2.51,4.2,2.96,8.5,2.18,17.1,3.96,25.77,5.33,6.22.98,12.68,1.74,18.75.05,7.38-2.06,13.4-7.6,17.58-14.03,4.18-6.42,6.75-13.73,9.29-20.97.58-1.66,1.13-3.62.14-5.08-.8-1.17-2.32-1.57-3.72-1.79-4.88-.79-10.08-.97-11.25-.32Z"/><path class="cls-1" d="m279.89,34.67c-19.33,12.89-41.77,20.39-61.66,32.41-2.71,1.64-5.47,3.4-8.6,3.9-3.13.5-6.77-.62-8.17-3.46,22.11-15.45,46.56-27.53,72.27-35.69,1.19-.38,2.44-.75,3.68-.57,1.24.18,2.47,1.1,2.48,3.4Z"/><path class="cls-1" d="m339.24,46.49c21.43,17.39,43.61,33.87,66.45,49.38-5.66,1.04-11.54-.84-16.41-3.92-4.87-3.07-8.92-7.26-13-11.32-11.4-11.35-23.45-22.05-37.04-34.14Z"/></svg>