<?xml version="1.0" encoding="UTF-8"?><svg id="Layer_1" xmlns="http://www.w3.org/2000/svg" viewBox="0 0 357.2 350.19"><defs><style>.cls-1{opacity:.56;}.cls-1,.cls-2{fill:none;stroke:#000;stroke-miterlimit:10;stroke-width:3px;}</style></defs><g id="teapot"><path class="cls-2" d="m3.52,214.08c4.52,3.84,11.34,10,18.71,18.39,27.98,31.84,27.65,54.52,47.69,68.08,8.66,5.86,23.25,11.45,48.44,7.37-1.31-12.45-2.61-24.91-3.92-37.37-1.08-10.34-2.17-20.69-3.25-31.03-6.49-3.03-13.26-6.01-20.31-8.88-21.83-8.9-42.69-15.38-61.96-20.13l-25.4,3.57Z"/><path class="cls-2" d="m3.52,214.08c4.52,3.84,11.34,10,18.71,18.39,27.98,31.84,27.65,54.52,47.69,68.08,8.66,5.86,23.25,11.45,48.44,7.37-1.31-12.45-2.61-24.91-3.92-37.37-1.35-.71-2.94-.93-4.83-.5-17.53,3.93-49.87-10.59-63.66-25.27-9.72-10.34-28.89-23.98-39.36-31.12l-3.08.43Z"/><path class="cls-2" d="m73.93,245.59l13.35,95.01c.88,8.98,73.59,11.8,141.95,1.59,62.7-9.37,128.02-30.65,126.44-39.3l-13.35-95.01c-4.52-32.19-23.22-59.32-49.9-77.32-4.19-2.83-8.58-5.43-13.14-7.79-.38-.2-.76-.39-1.15-.59-24.6-12.43-54.1-17.89-84.82-13.93h-.01c-.54.07-1.08.14-1.63.22h-.09c-1.03.16-2.05.31-3.08.47-30.44,4.88-57.11,18.39-77.13,37.2-.35.32-.7.65-1.04.98-3.67,3.52-7.12,7.23-10.32,11.1-20.3,24.53-30.56,55.48-26.08,87.37Z"/><path class="cls-2" d="m110.32,147.12c6.64,18.07,44.97,27.55,89.12,21.35,44.63-6.27,79.12-26.31,79.82-45.7-25.3-13.09-55.93-18.75-87.76-14.27-32.23,4.53-60.4,18.69-81.19,38.63Z"/><path class="cls-2" d="m303.89,139.62c-3.9-3.71-7.8-7.42-11.7-11.13l-5.69-102.24-21.22-1.47,15.84,112.77c3.15,5.06,6.31,10.12,9.46,15.18,3.8,3.45,9.7,3.23,13.14-.38,3.3-3.46,3.42-9.04.17-12.73Z"/><path class="cls-2" d="m110.32,147.12c6.64,18.07,44.97,27.55,89.12,21.35,44.63-6.27,79.12-26.31,79.82-45.7-25.3-13.09-55.93-18.75-87.76-14.27-32.23,4.53-60.4,18.69-81.19,38.63Z"/><path class="cls-2" d="m111.36,146.14c9.78,15.06,45.93,22.39,87.28,16.58,41.79-5.87,74.77-23.18,79.49-40.54-24.6-12.43-54.1-17.89-84.82-13.93h-.01c-.54.07-1.08.14-1.63.22h-.09c-1.03.16-2.05.31-3.08.47-30.44,4.88-57.11,18.39-77.13,37.2Z"/><path class="cls-2" d="m34.26,215.44s26.24,8.8,28.8,11.47c2.57,2.67,1.28,2.85-9.03,1.27-10.31-1.58-38.41-14.28-19.77-12.74Z"/><path class="cls-2" d="m125.85,137.99c9.4-4.33,16.5,7.29,32.11,9.93,17.49,2.97,30.16-7.96,36.83-.86.53.57,1.84,1.96,1.64,3.59-.63,5.26-16.21,8.15-26.72,8.45-24.13.7-48.49-11.44-47.54-17.78.26-1.77,2.45-2.78,3.68-3.34Z"/><path class="cls-2" d="m204.72,150.38c.5,3.57,5.74,5.79,11.69,4.95,5.96-.84,10.38-4.41,9.87-7.99-.5-3.57-5.74-5.79-11.69-4.95-5.96.84-10.38,4.41-9.87,7.99Z"/><path class="cls-2" d="m268.73,25.02l14.67,104.39c3.15,5.06,6.31,10.12,9.46,15.18,3.8,3.45,9.7,3.23,13.14-.38.03-.03.06-.07.09-.1.56,2.91-.24,6.02-2.36,8.24-3.44,3.61-9.34,3.84-13.14.38-3.15-5.06-6.31-10.12-9.46-15.18l-15.84-112.77,3.45.24Z"/><path class="cls-2" d="m281.93,98.1c1.03,11.45,3.06,20.62,4.52,20.49,1.46-.13,1.81-9.52.78-20.97-1.03-11.45-3.06-20.62-4.52-20.49-1.46.13-1.81,9.52-.78,20.97Z"/><path class="cls-2" d="m89.37,168.54c2.73-4.64,5.45-9.28,8.18-13.92l-22.7-99.85,20-7.26,15.85,112.77c-1.64,5.73-3.28,11.47-4.91,17.2-2.71,4.37-8.43,5.77-12.74,3.26-4.13-2.41-5.78-7.75-3.67-12.19Z"/><path class="cls-2" d="m91.59,48.69l14.67,104.39c-1.64,5.73-3.28,11.47-4.91,17.2-2.71,4.37-8.43,5.77-12.74,3.26-.04-.02-.07-.05-.11-.07.26,2.95,1.89,5.72,4.54,7.27,4.31,2.52,10.03,1.11,12.74-3.26,1.64-5.73,3.28-11.47,4.91-17.2l-15.85-112.77-3.26,1.18Z"/><path class="cls-2" d="m99.03,122.58c2.16,11.29,2.74,20.66,1.3,20.94-1.44.28-4.37-8.65-6.53-19.94-2.16-11.29-2.74-20.66-1.3-20.94,1.44-.28,4.37,8.65,6.53,19.94Z"/><path class="cls-2" d="m84.26,59.25c64.22-27.61,163.14-30.95,197.72-31.23,6.99-.06,12.74-5.53,13.13-12.51v-.02c.42-7.63-5.68-14.04-13.32-13.98-15.13.12-41.1.8-71.41,3.59-56.46,5.19-102.33,15.17-136.69,29.72-7.36,3.12-10.26,12.01-6.22,18.9l.07.11c3.4,5.78,10.56,8.07,16.72,5.43Z"/><path class="cls-2" d="m180.64,18.78c1.4,1.72,2.83,4.76,1.86,7.29-2.12,5.55-13.89,3.53-29.85,5.45-26.92,3.25-43.95,15.1-48.26,9.28-1.22-1.65-1-4.15-.97-4.46.42-4.22,4.75-7.23,9.06-9.5,10.48-5.5,21.78-7.07,30.39-8.21,27.84-3.68,34.18-4.28,37.77.15Z"/><path class="cls-2" d="m222.67,12.65c1.49,1.39,2.52,4.09,2.01,7.19-.19,1.15-.7,2-1.48,2.63-4.21,3.41-12.73,4.36-18.67,3.65-1.14-.14-12.56-1.5-12.95-6.28-.24-2.96,3.86-5.58,4.9-6.24,7.46-4.75,21.33-5.5,26.19-.95Z"/><path class="cls-2" d="m284.71,162.79c22.93-.71,39.46,52.83,42.47,62.6,5.17,16.73,17.26,55.9.36,68.66-6.26,4.73-16.34,5.72-24.08,2.22-22.43-10.13-12.37-52.18-33.03-78.79-1.69-2.17-7.77-9.64-9.48-20.62-.49-3.17-1.37-9.19.99-15.59,3.58-9.72,13.85-18.21,22.76-18.48Z"/><path class="cls-1" d="m81.68,300.79l5.59,39.81c.88,8.98,73.59,11.8,141.95,1.59,62.7-9.37,128.02-30.65,126.44-39.3l-1.97-14.02c-27.86,13.9-76.52,31.23-149.61,34.37-83.57,3.6-112.44-11.79-122.4-22.45Z"/><path class="cls-2" d="m248.25,202.15s28.85,54.78,26.34,85c-.11,1.31-.4,4.31-2.6,6.28-2.61,2.34-6.59,2.07-7.97,1.8-8.29-1.66-7.69-20.49-17.28-49.32-7.07-21.26-10.61-31.89-12.95-35.97-2.73-4.75-7.92-12.84-5.4-20.96.3-.98,1.62-5.23,4.36-5.79,4.74-.96,10.67,9.81,15.49,18.96Z"/><path class="cls-2" d="m123.76,201.36c2.73-.2,5.24,2.87,6.21,4.06,4.65,5.7,3.7,13.56,3.41,16.25-1.11,10.27-4.3,54.3,1.86,79.09.7,2.82,2.55,9.53-.39,11.9-2.59,2.08-7.89,0-10.91-1.93-6.05-3.87-8.9-10.96-11.3-26.21-2.31-14.65-4.35-27.61-1.81-46.95.69-5.29,4.67-35.58,12.94-36.21Z"/><path class="cls-2" d="m177.45,91.87c1.67,7.23,3.89,15.89,5.21,20.93.68,2.59,1.12,4.22,1.12,4.22,0,0,10.8,11.11,18.3-1.78-.11-3.96-.26-10.39-.33-18.44-.06-8.1.02-10.15-1.65-12-.2-.22-.41-.42-.64-.61-5.54-4.69-19.49-1.94-21.82,4.19-.42,1.09-.53,2.05-.2,3.49Z"/><path class="cls-2" d="m182.66,112.81c.68,2.59,1.12,4.22,1.12,4.22,0,0,10.8,11.11,18.3-1.78-.11-3.96-.26-10.39-.33-18.44-.06-8.1.02-10.15-1.65-12-.2-.22-.41-.42-.64-.61-.25,11.94-1.03,32.12-3.39,32.45-2.75.39-4.67,1.97-13.41-3.84Z"/><path class="cls-2" d="m194.09,90.05s-5.92,2.79-11.3,1.59c-5.37-1.2-2.58,2.81,2.95,2.52,5.53-.29,12.09-1.21,8.34-4.1Z"/></g></svg>