<?xml version="1.0" encoding="UTF-8"?><svg id="Layer_1" xmlns="http://www.w3.org/2000/svg" viewBox="0 0 375.89 370.95"><defs><style>.cls-1{fill:none;stroke:#1d1d1b;stroke-miterlimit:10;stroke-width:3px;}</style></defs><path class="cls-1" d="m252.45,12.24c-.37-4.43-1.75-10.01-6.15-10.68-1.28-.19-2.58.12-3.84.43-26.3,6.63-51.38,17.29-76.34,27.92-1.68.72-3.45,1.5-4.53,2.97-2.12,2.88-.77,6.91.66,10.19,30.22-12.25,61.24-22.54,90.21-30.83Z"/><path class="cls-1" d="m117.39,59.24c-1-5.12-3.06-11.32-8.22-12.11-2-.3-4,.35-5.92,1-22.99,7.77-45.84,15.97-68.52,24.62-1.89.72-3.84,1.49-5.23,2.95-3.26,3.45-2.09,8.99-.7,13.54,30.07-10.38,60.14-20.76,88.59-30Z"/><path class="cls-1" d="m149.65,44.34c-43.14,15.43-86.29,30.85-129.43,46.28-7.37,2.64-15.66,6.18-18.05,13.64-1.54,4.83-.12,10.05,1.31,14.91,24.13,81.64,52.49,162.03,84.93,240.73,1.6,3.89,3.73,8.25,7.8,9.31,2.49.65,5.1-.14,7.56-.92,89.62-28.64,177.94-52.49,264.6-89.11,2.04-.86,4.23-1.85,5.31-3.79,1.38-2.48.46-5.56-.48-8.24-24.87-70.5-49.74-149.85-74.61-220.35-4.25-12.04-8.54-24.18-15.22-35.05-1.67-2.72-3.64-5.48-6.59-6.69-2.78-1.14-5.93-.69-8.88-.13-16.17,3.04-31.7,8.7-47.16,14.34-26.35,9.61-52.91,18.58-71.09,25.08Z"/><path class="cls-1" d="m14.63,155.78c4.41-1.47,8.84-2.91,13.23-4.4,11.84-4.02,23.64-8.18,35.45-12.29,21.04-7.32,42.27-14.08,63.32-21.36,21.04-7.27,42.11-14.44,63.18-21.61,21.06-7.17,42.05-14.56,63.11-21.73,16.48-5.62,32.95-11.27,49.4-16.98-1.24-3.55-2.48-7.1-3.72-10.61-4.25-12.04-8.54-24.18-15.22-35.05-1.67-2.72-3.64-5.48-6.59-6.69-2.78-1.14-5.93-.69-8.88-.13-16.17,3.04-31.7,8.7-47.16,14.34-26.35,9.61-52.91,18.58-71.09,25.08-43.14,15.43-86.29,30.85-129.43,46.28-7.37,2.64-15.66,6.18-18.05,13.64-1.54,4.83-.12,10.05,1.31,14.91,3.62,12.23,7.34,24.44,11.14,36.61Z"/><path class="cls-1" d="m359.75,228.45c-40.12,11.4-79.25,25.95-118.34,40.49-54.72,20.35-109.45,40.7-164.17,61.05.78,2.29,1.56,4.57,2.34,6.86,64.98-30.36,124.08-45.63,191.14-71.08,12.11-4.6,72.47-24.55,85.24-29.79,1.71-.7,3.53-1.49,4.53-3.06.99-1.56.6-4.12-.73-4.47Z"/><path class="cls-1" d="m300.98,160.91c-5.94-16.71-12.03-33.37-18.27-49.98-1.32-3.52-2.93-7.35-6.3-9.02-3.2-1.58-7-.71-10.44.23-16.33,4.49-32.33,10.08-48.32,15.68-47.96,16.78-95.92,33.56-143.87,50.35-4.27,1.49-9.08,3.53-10.4,7.86-.79,2.59-.08,5.38.64,7.99,9.48,34.34,20.85,68.16,34.04,101.25,1.34,3.36,2.93,6.98,6.12,8.7,3.87,2.09,8.62.63,12.76-.86,8.2-2.95,16.41-5.91,24.61-8.87,55.81-20.11,111.63-40.21,167.45-60.32,2.68-.97,5.59-2.12,6.97-4.61,1.42-2.56.79-5.72.1-8.55-4.19-17.11-9.43-33.98-15.07-49.85Z"/><path class="cls-1" d="m293.73,163.76c-5.25-14.77-10.63-29.49-16.15-44.16-1.17-3.11-2.59-6.5-5.57-7.97-2.83-1.39-6.19-.63-9.23.21-14.43,3.96-39.63,12.6-53.76,17.54-42.38,14.83-84.75,29.66-127.13,44.49-3.77,1.32-8.03,3.12-9.19,6.94-.7,2.29-.07,4.75.56,7.06,8.38,30.34,18.42,60.23,30.08,89.47,1.18,2.97,2.59,6.17,5.4,7.69,3.42,1.84,7.62.55,11.28-.76,7.25-2.61,14.5-5.22,21.75-7.83,49.32-17.77,109.7-39.22,159.02-56.99,2.37-.85,4.94-1.87,6.16-4.07,1.25-2.26.7-5.05.09-7.56-3.7-15.12-8.34-30.02-13.32-44.05Z"/><path class="cls-1" d="m79.02,204.1c3.56-11,7.15-21.98,10.71-32.97-2.33.81-4.65,1.63-6.98,2.44-2.25,6.74-4.49,13.48-6.72,20.23-.2.59-.39,1.18-.59,1.77.98,3.43,1.99,6.85,3.01,10.27.19-.58.38-1.16.56-1.74Z"/><path class="cls-1" d="m123.84,282.88c5.11-24.19,10.17-48.38,15.23-72.58,4.24-20.29,8.45-40.58,12.65-60.87-5.81,2.03-11.61,4.06-17.42,6.09-1.45,7.65-2.9,15.3-4.36,22.95-5.86,30.87-11.71,61.75-17.54,92.63-.9,4.77-1.79,9.55-2.68,14.33,3.23,1.17,6.98.02,10.3-1.17,1.27-.46,2.54-.92,3.81-1.37Z"/><path class="cls-1" d="m175.69,263.19c5.12-24.08,10.28-48.15,15.33-72.24,4.17-19.88,8.37-39.76,12.52-59.65-12.94,4.53-25.87,9.05-38.81,13.58-2.12,10.9-4.1,21.83-6.11,32.76-3.86,20.96-7.98,41.88-12.1,62.8-2.07,10.51-4.31,20.99-6.24,31.52-.33,1.77-.64,3.56-.94,5.35.81-.29,1.63-.59,2.44-.88,10.77-3.88,22.08-7.94,33.67-12.09.08-.38.16-.76.24-1.14Z"/><path class="cls-1" d="m307.05,207.8c-1.9-7.77-4.06-15.48-6.37-23.05-2.5,12.56-5.21,25.09-7.98,37.6,2.73-.98,5.44-1.96,8.11-2.92,2.37-.85,4.94-1.87,6.16-4.07,1.25-2.26.7-5.05.09-7.56Z"/><path class="cls-1" d="m269.31,110.92c-2.14-.19-4.41.34-6.52.92-1.5.41-3.13.88-4.84,1.39-2.05,10.2-4.08,20.41-6.16,30.61-4.58,22.45-9.35,44.86-13.81,67.33-2.2,11.09-4.5,22.16-6.81,33.23,3.59-1.28,7.17-2.56,10.74-3.84,9.3-43.18,18.41-86.4,27.41-129.64Z"/><circle class="cls-1" cx="42.53" cy="114.95" r="18.99" transform="translate(-79.09 130.17) rotate(-76.83)"/><path class="cls-1" d="m31.41,97.54c4.08,12.01,8.6,23.88,13.55,35.56.27.64.56,1.3,1.11,1.72.69.53,1.64.54,2.51.46,1.95-.19,3.86-.78,5.57-1.73-4-10.93-8-21.86-12.01-32.79-.96-2.63-2.2-5.55-4.82-6.53-2.45-.92-6.81.67-5.91,3.31Z"/><path class="cls-1" d="m121.53,81.39c.92-9.01,8.98-15.57,17.99-14.65,9.01.92,15.57,8.97,14.65,17.99-.92,9.01-8.97,15.57-17.99,14.65-9.01-.92-15.57-8.97-14.65-17.99Z"/><path class="cls-1" d="m129.82,67.12c2.45,10.68,5.29,21.27,8.52,31.75.18.57.37,1.17.81,1.57.55.51,1.36.61,2.12.61,1.69,0,5-1.22,4.94-2.9-.32-9.09-4.96-17.57-7.43-27.32-.6-2.34-1.41-4.96-3.57-6.03-2.03-1-5.91-.02-5.37,2.32Z"/><path class="cls-1" d="m160.39,68.56c.92-9.01,8.97-15.57,17.99-14.65,9.01.92,15.57,8.97,14.65,17.99-.92,9.01-8.98,15.57-17.99,14.65-9.01-.92-15.57-8.97-14.65-17.99Z"/><path class="cls-1" d="m168.68,54.29c2.45,10.68,5.29,21.27,8.52,31.75.18.57.37,1.17.81,1.57.55.51,1.37.61,2.12.61,1.69,0,5-1.22,4.94-2.9-.33-9.09-4.96-17.58-7.44-27.32-.6-2.34-1.41-4.96-3.57-6.03-2.03-1-5.91-.02-5.37,2.32Z"/><path class="cls-1" d="m199.47,54.18c.92-9.01,8.97-15.57,17.99-14.65,9.01.92,15.57,8.97,14.65,17.99-.92,9.01-8.98,15.57-17.99,14.65-9.01-.92-15.57-8.97-14.65-17.99Z"/><path class="cls-1" d="m207.75,39.91c2.45,10.68,5.29,21.27,8.52,31.75.18.57.37,1.17.81,1.57.55.51,1.37.61,2.12.61,1.69,0,5-1.22,4.94-2.9-.33-9.09-4.96-17.58-7.44-27.32-.59-2.34-1.41-4.96-3.57-6.03-2.03-1-5.91-.02-5.37,2.32Z"/><path class="cls-1" d="m282.88,76.68c-76.38,26.36-152.77,52.71-229.15,79.07-2.95,1.02-5.99,2.09-8.29,4.2-2.3,2.11-5.2.15-2.9,6.59,1.04,2.91,5.05,4.98,8.14,4.83,3.51-.17,134.11-47.4,234.23-83.82,4.1-1.49,5.9-4.41,4.43-8.51-1.46-4.07-4.14-3.15-6.45-2.35Z"/><path class="cls-1" d="m238.19,41.96c.92-9.01,8.97-15.57,17.99-14.65,9.01.92,15.57,8.97,14.65,17.99-.92,9.01-8.98,15.57-17.99,14.65s-15.57-8.97-14.65-17.99Z"/><path class="cls-1" d="m246.48,27.69c2.45,10.68,5.29,21.27,8.52,31.75.18.57.37,1.17.81,1.57.55.51,1.37.61,2.12.61,1.69,0,5-1.21,4.94-2.9-.33-9.09-4.96-17.58-7.44-27.32-.59-2.34-1.41-4.96-3.57-6.03-2.03-1.01-5.91-.02-5.37,2.32Z"/><path class="cls-1" d="m68.55,91.1c0-3.56,2.89-6.45,6.45-6.45s6.45,2.89,6.45,6.45-2.89,6.45-6.45,6.45-6.45-2.89-6.45-6.45Z"/><path class="cls-1" d="m87.73,84.64c0-3.56,2.89-6.45,6.45-6.45s6.45,2.89,6.45,6.45-2.89,6.45-6.45,6.45-6.45-2.89-6.45-6.45Z"/><path class="cls-1" d="m281.83,72.99c-76.38,26.36-152.77,52.71-229.15,79.07-2.95,1.02-5.99,2.09-8.29,4.2-2.3,2.11-3.67,5.56-2.45,8.43,1.21,2.84,4.6,4.24,7.68,4.09,3.51-.17,134.11-47.77,234.23-84.19,4.1-1.49,6.51-3.67,5.05-7.78-1.46-4.07-4.76-4.62-7.07-3.83Z"/><path class="cls-1" d="m105.83,135.79c-4.02,1.63-8.07,3.17-12.01,4.97-1.32.63-2.65,1.23-3.99,1.81-6.82,2.55-13.67,5.01-20.57,7.37-5.09,1.85-10.08,3.97-15.2,5.77-2.68,1.05-5.6,1.7-8.02,3.3-.18.13-.34.28-.48.45,0-.02-.05.02-.17.17-1.25,1.36-.22,3.3,1.56,3.34,4.02.2,7.83-1.7,11.55-3,7.87-2.89,15.57-6.19,23.1-9.89,6.59-2.89,16.38-8.6,25.48-11.3,1.29-.39,3.23-.82,3.3-2.45-.43-2.22-2.72-1.31-4.56-.54Z"/><path class="cls-1" d="m30.35,117.88c-.33-1.07-.32-1.29-.33-3.1-.08-2.68.95-5.3,1.86-8.04.21-1.49-2.03-2.13-2.67-.77-1.52,4.04-3.32,8.49-2.01,12.84.42,1.06.7,2.74,2.1,2.81,1.13.17,2.09-1.09,1.7-2.15-.24-.52-.47-1.04-.65-1.59Z"/><path class="cls-1" d="m129.37,74.41c-.35-1.18-2.11-1.32-2.65-.21-1.33,3.07-2.49,6.28-2.52,9.66,0,1-.15,2.44,1.04,2.81.68.3,1.52-.07,1.85-.72.32-.6.07-1.29.11-1.94.04-1.79.01-1.55.31-3.26.5-2.35.81-2.9,1.76-5.23.18-.34.21-.75.09-1.12Z"/><path class="cls-1" d="m168.27,63.35c-.47-1.57-2.81-1.75-3.51-.27-1.04,2.08-4.72,9.74-.48,10.02,1.87-.24,1.72-1.89,1.7-2.55.18-1.48.28-1.52.59-2.34.48-1.61,2.07-3.12,1.7-4.86Z"/><path class="cls-1" d="m205.24,54.09c.23-1.48,1.5-3.1.68-4.54-.82-1.34-3.04-.93-3.33.61-.75,2.56-1.97,5.2-1.42,7.92-.19-1.05.01.18.1.55.31,1.03,1.63,1.61,2.58,1.08,1.15-.46,1.11-1.77.95-2.79,0-.14,0-.24,0-.32.07-.85.21-1.69.45-2.51Z"/><path class="cls-1" d="m245.57,48.8c-1.19-3.45-1.17-4.56-.64-7.88.06-1.34,1.18-3.08.48-4.26-.72-1.18-2.68-.82-2.94.54-1.09,3.79-1.53,7.99.18,11.67.52.91.74,2.35,1.87,2.68.82.2,1.65-.51,1.59-1.35-.27-1.13-.27-.53-.54-1.4Z"/><path class="cls-1" d="m360.21,236.09c-11.02,2.13-21.66,5.84-32.25,9.53-55.42,19.34-110.83,38.67-166.24,58-15.58,5.44-31.22,10.9-45.87,18.49,65.36-20.89,130.91-41.16,196.64-60.81,9.45-2.83,19-5.66,28.83-6.45,9.84-.79,20.11.61,28.55,5.74-1.7-8.87-4.75-17.48-9.65-24.51Z"/></svg>